<?xml version="1.0" encoding="utf-8"?>
<!-- Generator: Adobe Illustrator 23.1.0, SVG Export Plug-In . SVG Version: 6.00 Build 0)  -->
<svg version="1.1" id="Layer_1" xmlns="http://www.w3.org/2000/svg" xmlns:xlink="http://www.w3.org/1999/xlink" x="0px" y="0px"
	 viewBox="0 0 291 291" style="enable-background:new 0 0 291 291;" xml:space="preserve">
<style type="text/css">
	.st0{fill:#231F20;}
	.st1{fill:none;stroke:#231F20;stroke-width:3;stroke-miterlimit:10;}
</style>
<g>
	<path class="st0" d="M177.34,189.99c-0.29-0.12-0.51-0.31-0.67-0.27c-1.22,0.33-1.12-0.62-1.14-1.26c-0.02-1.17,0.08-2.34,0.15-3.5
		c0.09-1.47,0.22-2.93,0.24-4.4c-0.53,2.07-1.05,4.13-1.57,6.21c-0.03,0.12,0.08,0.28,0.11,0.43c0.12,0.61-0.06,1.09-0.71,1.15
		c-0.77,0.07-1.57,0.09-2.33-0.03c-0.28-0.04-0.72-0.6-0.67-0.85c0.18-0.9-0.47-1.01-1-1.13c-1.65-0.38-1.66-0.35-1.59-2.07
		c0.01-0.15,0.02-0.3,0.03-0.52c-0.82-0.1-1.43-0.02-1.66,0.92c-0.06,0.24-0.44,0.64-0.58,0.6c-1.06-0.28-2.38,0.4-3.2-0.81
		c-0.07-0.1-0.26-0.16-0.39-0.15c-3.98,0.3-7.96,0.61-11.97,0.93c-0.54,1.7-1.16,3.6-1.75,5.5c-0.05,0.17,0.02,0.42,0.11,0.6
		c1.1,2.24,2.09,4.55,3.35,6.69c1.27,2.16,2.87,4.12,4.2,6.25c1.1,1.77,1.92,3.7,1.89,5.85c-0.02,1.44-0.93,2.12-2.17,1.83
		c0,0.4-0.02,0.82,0.01,1.23c0.01,0.17,0.09,0.35,0.19,0.48c1.63,2.33,3.26,4.66,4.92,7.01c1.14-0.36,1.84,0.41,2.49,1.2
		c2.08,2.52,3.35,5.34,3.52,8.67c0.07,1.31,0.01,2.47-0.68,3.59c-0.67,1.1-1.67,1.59-2.91,1.61c-0.45,0.01-0.53,0.18-0.76,0.54
		c-0.61,1-1.28,2.01-2.14,2.78c-0.86,0.77-2.12,0.36-3.47-0.87c-0.88,1.16-1.76,2.32-3.25,2.77c-1.74,0.52-2.76-0.57-3.71-1.63
		c-0.46,0.7-0.83,1.41-1.33,1.99c-1.54,1.77-3.62,0.82-4.72-0.49c-1.99-2.38-3.37-5.08-3.58-8.27c-0.02-0.35-0.35-0.69-0.32-1.02
		c0.07-0.87,0.03-1.87,0.45-2.56c0.76-1.24,0.57-2.46,0.37-3.7c-0.36-2.28-0.81-4.55-1.21-6.83c-0.02-0.09-0.04-0.2,0-0.28
		c0.54-1.21-0.56-1.85-0.97-2.73c-0.06-0.14-0.37-0.14-0.53-0.25c-0.27-0.2-0.63-0.4-0.75-0.68c-0.8-1.91-1.55-3.85-2.31-5.75
		c-0.99,0.32-1.83,0.65-2.71,0.86c-2.11,0.51-3.87-0.03-5.34-1.72c-2.03-2.34-4.26-4.5-6.25-6.87c-3.24-3.85-6.36-7.8-9.54-11.7
		c-0.27-0.33-0.58-0.65-0.91-0.92c-0.41-0.33-0.57-0.65-0.31-1.18c0.09-0.2-0.09-0.57-0.22-0.82c-0.28-0.51-0.59-1.01-0.92-1.49
		c-0.14-0.2-0.36-0.4-0.59-0.46c-2.09-0.52-4.19-1.01-6.28-1.52c-0.11-0.03-0.26-0.17-0.32-0.14c-1.4,0.84-1.33-0.48-1.7-1.15
		c-0.03-0.05-0.07-0.1-0.14-0.2c-1.2,0.87-2.59,0.56-3.92,0.56c-1.32,0-2.63-0.12-4.02-0.19c-0.97,2.53-2.16,5-2.85,7.6
		c-0.79,2.99-1.07,6.11-1.71,9.15c-0.23,1.08,0.09,1.7,0.81,2.45c2.27,2.39,3.25,5.4,3.65,8.6c0.13,1.05,0.1,2.14-0.01,3.19
		c-0.08,0.77,0.35,1.24,0.76,1.69c2.59,2.89,5.2,5.75,7.82,8.61c0.7,0.76,1.51,1.43,2.18,2.22c0.29,0.34,0.34,0.88,0.59,1.59
		c2.23,0.31,4.77,0.67,7.32,1.01c0.17,0.02,0.42-0.09,0.54-0.22c2.29-2.45,4.01-1.4,5.8,0.51c0.06,0.07,0.18,0.15,0.17,0.21
		c-0.33,1.52,1.15,2.35,1.4,3.66c0.21,1.13,0.58,2.25,0.66,3.39c0.12,1.58,0.14,3.18,0,4.76c-0.16,1.76-1.45,2.92-2.68,4.02
		c-0.23,0.21-0.81,0.03-1.42,0.03c-1.55,1.41-3.47,2.49-6.05,1.85c-0.06,0.2-0.1,0.44-0.21,0.63c-0.21,0.4-0.37,0.98-0.71,1.12
		c-1.13,0.49-2.31,1-3.51,1.16c-1.3,0.17-2.66,0.01-3.99-0.11c-1.29-0.12-2.11-1.09-2.66-2.08c-0.73-1.32-1.29-2.76-1.2-4.36
		c0.02-0.32-0.22-0.74-0.47-0.98c-1.09-1.07-2.23-2.11-3.37-3.13c-0.17-0.15-0.48-0.19-0.73-0.21c-0.92-0.07-1.73-0.3-2.28-1.14
		c-0.15-0.23-0.47-0.35-0.72-0.49c-1.01-0.56-1.55-1.35-1.67-2.55c-0.19-1.88-0.73-3.52-2.45-4.78c-2.77-2.03-5.32-4.36-7.96-6.56
		c-0.19-0.16-0.38-0.31-0.58-0.47c-1.8,1.34-3.62,0.94-5.21-0.16c-1.99-1.37-3.63-3.13-4.23-5.61c-0.07-0.29-0.11-0.6-0.12-0.9
		c-0.02-1.26-0.34-1.67-1.57-2.18c-1.38-0.57-1.8-1.84-2.13-3.13c-0.05-0.18,0.03-0.42-0.07-0.54c-1.54-1.78-0.63-3.71-0.37-5.61
		c0.18-1.38,0.44-2.72,1.46-3.69c-0.3-1.46-0.55-2.87-0.89-4.25c-0.86-3.48-3.02-6.14-5.39-8.72c-1.56-1.69-3.22-3.17-5.23-4.29
		c-0.71-0.4-1.29-1.04-1.95-1.54c-0.6-0.46-0.73-0.87-0.05-1.38c0.24-0.18,0.39-0.48,0.64-0.81c-0.03-0.08-0.14-0.32-0.25-0.61
		c-0.09,0.05-0.16,0.08-0.22,0.12c-0.9,0.64-1.47,0.58-2.03-0.25c-3.25-4.81-5.81-9.97-7.37-15.56c-0.64-2.27-0.95-4.65-1.22-7.01
		c-0.26-2.34-0.38-4.71-0.38-7.07c0-4.64,1.06-9.08,2.81-13.36c0.81-1.97,1.77-3.87,2.74-5.95c-1.81-1.47-3.25-3.55-4.49-5.77
		c-1.91-3.41-3.17-7.03-3.69-10.92c-0.48-3.51-0.71-7.04-0.5-10.57c0.13-2.15,0.68-4.27,1.04-6.4c0.84-4.9,2.58-9.47,5.03-13.78
		c1.48-2.62,3.29-4.99,5.34-7.21c3.42-3.71,7.33-6.67,11.87-8.84c3.79-1.82,7.72-3.14,11.91-3.64c1.73-0.2,3.44-0.55,5.17-0.68
		c1.12-0.09,2.26,0.07,3.39,0.16c2.08,0.16,4.16,0.3,6.22,0.55c2.82,0.34,5.62,0.76,8.43,1.16c2.29,0.33,4.58,0.71,6.87,1.04
		c1.48,0.21,2.97,0.42,4.46,0.54c2.17,0.17,4.16-0.36,6.01-1.55c2.72-1.76,3.78-4.54,4.78-7.38c0.23-0.65,0.29-1.35,0.43-2.02
		c-4.38-1.47-7.4-5.78-7.47-10.36c-0.06-3.83,1.59-6.98,3.66-9.98c1.49-2.17,3.05-4.29,4.6-6.42c0.45-0.62,0.99-1.18,1.58-1.87
		c0.86,1.01,1.68,2.04,2.58,2.99c1.33,1.4,2.7,2.78,4.1,4.11c2.47,2.35,3.78,5.29,4.43,8.57c0.78,3.96,0.01,7.59-2.45,10.82
		c-0.79,1.03-1.77,1.85-3.08,2.33c-0.01,2.2-0.43,4.39-1.32,6.5c-1.37,3.25-3.13,6.22-6.2,8.12c-1.86,1.16-3.83,2.14-5.82,3.06
		c-1.54,0.71-3.23,0.64-4.89,0.39c-2.62-0.38-5.24-0.81-7.86-1.18c-3.26-0.46-6.52-0.9-9.79-1.3c-2-0.24-4.02-0.54-6.02-0.53
		c-3.67,0.03-7.35,0.34-10.86,1.47c-3.36,1.09-6.37,2.91-9.33,4.84c-3.29,2.15-5.82,4.97-8.06,8.12c-0.17,0.23-0.18,0.57-0.3,0.84
		c-0.12,0.26-0.25,0.53-0.44,0.75c-0.34,0.4-0.84,0.7-1.07,1.15c-1.97,3.83-3.93,7.67-4.84,11.95c-0.48,2.25-0.53,4.46-0.34,6.75
		c0.23,2.75,0.84,5.36,2.08,7.8c0.58,1.15,1.44,2.15,2.21,3.28c2.83-3.46,6.12-6.08,9.94-8.03c2.07-1.05,4.17-2.03,6.27-3.03
		c0.53-0.25,1.19-0.6,1.58,0c0.4,0.61,1.05,1.27,0.52,2.16c-0.14,0.23-0.2,0.51-0.34,0.89c1.05-0.22,2.02-0.42,2.99-0.62
		c0.54-0.11,1.09-0.37,1.6-0.31c0.99,0.11,1.43-0.62,2.11-1.04c1.58-0.97,3.19-1.94,4.91-2.61c3.87-1.5,7.88-2.4,12.09-2.16
		c1.55,0.09,2.73,0.98,4.07,1.52c2.32,0.93,4.61,1.93,6.92,2.87c1.02,0.41,1.12,0.81,0.44,1.67c-0.28,0.34-0.45,0.76-0.71,1.21
		c0.68,0.17,1.25,0.36,1.84,0.45c0.2,0.03,0.59-0.16,0.64-0.32c0.36-1.21,1.31-1,2.14-0.87c0.71,0.11,1.4,0.41,2.09,0.64
		c3.35,1.11,6.65,2.38,10.04,3.3c4.99,1.34,10.05,2.43,15.07,3.64c0.4,0.1,0.75,0.38,1.15,0.59c-0.09-0.72,0.29-1.08,1-1.29
		c4.48-1.33,8.23-3.98,11.89-6.76c1.66-1.26,3.11-2.81,4.83-3.97c2.56-1.73,5.48-2.68,8.54-3.01c2.26-0.24,4.54-0.24,6.95-0.36
		c-0.54-1.06-1.06-2.18-1.65-3.25c-1.51-2.74-3.54-5.06-5.74-7.28c-2.55-2.58-4.79-5.47-7.39-7.99c-1.65-1.6-3.68-2.82-5.62-4.1
		c-0.78-0.52-1.12-1.02-1.14-1.98c-0.03-2.08,0.37-3.95,1.88-5.47c0.22-0.22,0.41-0.47,0.66-0.64c2.15-1.45,4.02-3.22,5.66-5.22
		c0.7-0.85,1.66-0.97,2.6-1.14c0.26-0.05,0.74,0.3,0.85,0.58c0.08,0.19-0.28,0.58-0.48,0.86c-0.24,0.34-0.65,0.63-0.74,1
		c-0.39,1.52-0.49,3.13,0.4,4.44c0.67,0.99,1.7,1.82,2.72,2.5c2.83,1.87,5.74,3.63,8.63,5.42c0.77,0.48,1.8,0.4,2.53-0.12
		c0.67-0.47,1.36-0.92,2.05-1.37c1.94-1.24,2.63-2.98,1-4.77c-1.6-1.75-3.3-3.4-4.98-5.07c-1.14-1.12-2.35-2.18-3.52-3.28
		c-0.99-0.92-1.96-1.86-2.97-2.76c-0.16-0.14-0.53-0.21-0.71-0.12c-0.76,0.36-1.47,0.84-2.23,1.19c-0.34,0.16-0.77,0.15-1.16,0.21
		c-0.02-0.36-0.18-0.79-0.05-1.07c1.02-2.07,2.05-4.13,3.17-6.15c0.91-1.63,2.4-2.94,4.3-3.29c-0.49-1.8,1.4-3.51,2.96-3.81
		c2-0.38,3.53,0.47,4.87,1.78c1.67,1.64,3.2,3.43,4.92,5.01c4.35,3.98,9.37,6.54,15.26,7.56c3.65,0.64,7.25,1.75,10.13,4.35
		c0.56,0.51,1.21,0.72,1.94,0.56c2.01-0.43,3.96-0.09,5.89,0.39c2.15,0.53,4.4,0.85,6.41,1.72c4.28,1.86,8.57,3.71,12.1,6.97
		c3.05,2.81,5.49,5.97,7.24,9.73c1.32,2.83,2.43,5.74,3.05,8.79c0.41,2,0.7,3.98,1.5,5.9c1.02,2.42,2.75,4.17,4.62,5.87
		c0.32,0.29,0.71,0.53,0.93,0.88c0.15,0.24,0.17,0.68,0.07,0.96c-0.34,0.97-0.78,1.9-1.14,2.86c-0.06,0.15,0,0.44,0.11,0.53
		c0.91,0.7,1.64,1.67,2.94,1.78c0.25,0.02,0.66,0.5,0.67,0.78c0.06,1.69,0.07,3.38-0.01,5.07c-0.01,0.27-0.56,0.76-0.82,0.74
		c-0.86-0.08-1.7-0.35-2.7-0.58c-0.26,0.88-0.58,1.91-0.85,2.95c-0.31,1.2-0.54,1.35-1.82,1.21c0.63,0.52,1.24,1.07,1.91,1.56
		c0.69,0.51,1.43,0.94,2.15,1.41c0.64,0.42,1.11,1.03,0.86,1.77c-0.35,1.06-0.77,2.14-1.41,3.03c-0.28,0.39-1.21,0.47-1.82,0.4
		c-0.73-0.08-1.43-0.48-2.34-0.81c0.61,1.76,1.11,3.45,1.77,5.08c0.59,1.46,0.48,1.75-1.09,1.8c-0.14,0-0.29,0.03-0.43,0.04
		c-0.06,0.08-0.11,0.17-0.17,0.25c1.35,1.27,2.69,2.53,4.04,3.8c0.22,0.21,0.6,0.34,0.69,0.59c0.11,0.31,0.13,0.85-0.05,1.03
		c-0.62,0.61-1.36,1.11-2.12,1.71c0.11,0.14,0.24,0.33,0.39,0.5c0.79,0.84,0.65,2.06-0.34,2.62c-0.4,0.23-0.82,0.41-1.24,0.58
		c-1.12,0.46-1.93,0.24-2.67-0.69c-0.26-0.33-0.55-0.64-0.83-0.96c-0.1,0.05-0.2,0.1-0.3,0.15c0.61,1.53,1.18,3.08,1.86,4.57
		c0.33,0.74,0.86,1.38,1.3,2.07c0.33,0.52,0.07,1.09-0.69,1.3c-0.93,0.25-1.89,0.4-2.84,0.59c-0.11,0.02-0.23,0.04-0.51,0.08
		c0.71,1.43,1.37,2.79,2.06,4.14c0.41,0.8,0.29,1.19-0.55,1.43c-0.41,0.12-0.82,0.21-1.23,0.31c-0.54,0.13-1.26,0.55-1.6,0.34
		c-0.69-0.43-1.26-1.14-1.74-1.82c-0.74-1.04-1.36-2.16-2.22-3.21c0.15,1.12,0.3,2.23,0.44,3.35c0.31,2.37,0.85,4.67,1.88,6.84
		c0.33,0.7-0.16,1.53-1.13,1.89c-1.67,0.63-2.66,0.67-3.3-1.27c-0.04-0.14-0.13-0.26-0.25-0.48c-0.1,0.21-0.19,0.34-0.2,0.46
		c-0.07,1.79-0.12,3.57-0.2,5.36c-0.04,0.95-0.12,1.9-0.21,2.85c-0.08,0.78-0.51,1.24-1.28,1.5c-0.73,0.25-1.43,0.64-2.11,1.02
		c-0.45,0.25-0.85,0.48-1.34,0.11c-0.48-0.36-0.67-0.75-0.55-1.42c0.3-1.73,0.48-3.49,0.72-5.32c-1.56,1.92-3.05,3.75-4.54,5.57
		c-0.21,0.26-0.43,0.53-0.69,0.74c-0.64,0.5-1.11,0.38-1.46-0.35c-0.27-0.55-0.52-1.1-0.78-1.65c-0.04-0.08-0.12-0.13-0.25-0.27
		c-1.09,1.4-2.15,2.8-3.24,4.18c-0.44,0.56-0.51,1.07-0.46,1.83c0.13,1.83-0.07,3.68-0.2,5.52c-0.11,1.52-0.34,3.04-0.46,4.56
		c-0.13,1.69-0.22,3.38-0.29,5.07c-0.01,0.26,0.1,0.59,0.28,0.77c1.4,1.42,1.82,3.8,0.97,5.63c-0.17,0.36-0.29,0.76-0.52,1.08
		c-0.33,0.44-0.73,0.83-1.2,1.16c-0.94,2.18-0.17,4.47-0.27,6.74c-0.06,1.37-0.47,2.75-0.88,4.08c-0.99,3.28-3.51,4.86-6.62,5.67
		c-0.55,0.14-1.17,0.02-1.87,0.02c-3.32,4.34-6.21,9.13-8.86,14.06c-0.23,0.43-0.49,0.84-0.74,1.27c-0.42,0.74-0.77,1.37-0.63,2.38
		c0.24,1.72-0.8,3.2-1.66,4.64c-0.15,0.25-0.66,0.47-0.95,0.41c-0.81-0.16-1.03,0.34-1.19,0.91c-0.17,0.6-0.46,0.93-1.12,1.01
		c-0.31,0.04-0.59,0.41-0.86,0.67c-0.29,0.27-0.54,0.57-0.91,0.98c-0.01-0.05,0.06,0.12,0.08,0.29c0.12,1.05,0.21,1.95,1.61,2.28
		c1.01,0.23,1.17,1.49,1.35,2.44c0.59,3.17-0.29,6.01-2.13,8.57c-0.5,0.7-1.21,1.26-1.88,1.82c-1.12,0.95-2.72,0.16-3.12-1.25
		c-2.37,1.91-4.59,0.65-6.11-2c-1.73,2.59-4.65,2.62-6.54,0.85c-2.33,1.64-4.65,0.38-5.15-2.07c-0.61-3-0.82-6,0.11-8.98
		c0.41-1.31,1.32-2.03,2.57-2.53c0.67-0.27,1.18-0.92,1.78-1.39c0.95-0.73,1.85-1.53,2.87-2.14c1.08-0.65,1.26-1.54,1.06-2.64
		c-0.8,0.34-1.6,0.7-2.41,1.02c-1.23,0.48-2,0.1-2.44-1.11c-0.14-0.39-0.45-0.72-0.68-1.08c-0.15-0.23-0.4-0.46-0.42-0.7
		c-0.1-1.16-0.32-2.36-0.15-3.49c0.35-2.26,2.43-4.07,5.24-4.21c1.21-3.2,3.08-6.02,4.78-8.93c1.32-2.26,2.54-4.59,3.83-6.88
		c0.57-1.01,1.23-1.96,1.8-2.97c0.14-0.24,0.16-0.58,0.13-0.86c-0.15-1.18-0.52-2.35-0.48-3.52c0.03-1.22,0.2-2.55,0.73-3.62
		c0.74-1.49,0.76-3.05,1.09-4.58c0.23-1.06-0.24-1.74-0.68-2.58c-0.62-1.17-0.48-2.52,0.09-3.69c0.45-0.93,1.19-1.72,1.92-2.74
		c0.04-0.56,0.09-1.41,0.15-2.35c-0.64-0.26-1.31-0.53-1.97-0.8c-1.27-0.51-1.52-1.2-0.95-2.45c0.2-0.44,0.44-0.93,0.41-1.38
		c-0.02-0.3-0.47-0.58-0.68-0.81c-1.34,1.08-2.8,0.75-4.13,1.01c-0.47,1.57-0.96,3.13-1.42,4.71c-0.43,1.5-0.66,1.64-2.19,1.25
		c-0.56-0.14-1.12-0.26-1.69-0.39C177.43,191.37,176.95,190.98,177.34,189.99z M100.21,226.9c0.44-0.32,0.88-0.64,1.32-0.97
		c-0.49-0.76-0.79-1.63-1.4-2.1c-3.26-2.5-5.73-5.73-8.39-8.79c-1.57-1.81-3.17-3.6-4.75-5.39c0.56,2.26,1.73,4.44,0.47,6.89
		c3.96,3.71,7.96,7.46,12,11.25c0.2-0.25,0.4-0.5,0.61-0.76C100.12,226.99,100.17,226.95,100.21,226.9z M151.52,171.82l-0.03-0.03
		c0.28,0.56,0.56,1.11,0.84,1.66c0.73-0.83,1.43-1.63,1.88-2.14c0.28-2.76,0.53-5.23,0.78-7.7c-1.07-0.12-1.95-0.2-2.82-0.3
		c-0.66-0.08-0.9-0.44-0.72-1.09c0.17-0.61,0.31-1.23,0.51-2.02c-0.73-0.2-1.45-0.41-2.17-0.58c-0.86-0.2-1.05-0.55-0.71-1.36
		c0.12-0.28,0.2-0.58,0.24-0.88c0.25-2.17,0.48-4.34,0.73-6.58c-0.2-0.14-0.52-0.35-0.84-0.55c-0.33,1.08-0.7,2.12-0.95,3.17
		c-0.17,0.7-0.58,0.92-1.2,0.82c-0.89-0.14-1.76-0.42-2.65-0.53c-0.6-0.07-0.78-0.35-0.82-0.88c-0.08-1.06-0.17-2.12-0.28-3.39
		c-0.31,0.34-0.57,0.55-0.76,0.82c-2.47,3.47-4.41,7.22-5.76,11.27c-0.92,2.74-1.79,5.48-2.72,8.22c-0.22,0.64,0.05,0.71,0.57,0.82
		c0.59,0.12,1.22,0.29,1.69,0.63c2.27,1.66,4.27,3.58,5.48,6.19c0.1,0.22,0.25,0.42,0.46,0.77c0-0.26,0.02-0.36,0-0.44
		c-0.69-2.22-0.4-4.27,1.05-6.14c0.24-0.3,0.39-0.68,0.56-1.04c0.65-1.41,1.91-1.96,3.4-1.53
		C148.98,169.52,150.22,170.7,151.52,171.82z M133.22,128.83c0.5,1.05,1,2.1,1.48,3.11c2.52-2.34,4.94-4.72,7.49-6.93
		c2.55-2.21,5.23-4.26,7.85-6.37c-1.74,0.64-3.37,1.45-4.98,2.28c-1.1,0.56-2.09,1.11-2.89,2.27c-1.43,2.07-3.52,3.6-5.77,4.75
		c-0.97,0.5-2.13,0.63-3.21,0.93c-0.51-1.03,0.44-1.09,0.94-1.24c2.77-0.83,4.79-2.72,6.78-4.67c-0.59,0.16-1.15,0.35-1.69,0.61
		c-0.26,0.13-0.45,0.41-0.68,0.61c-0.23,0.2-0.55,0.6-0.7,0.55c-0.3-0.1-0.65-0.43-0.72-0.72c-0.16-0.68-0.16-1.39-0.23-2.09
		c-0.08-0.88,0.08-1.64,0.97-2.08c0.9-0.45,0.98-1.16,0.56-2.01c-0.06-0.13-0.07-0.28-0.07-0.29c-0.48,0.11-0.97,0.38-1.38,0.29
		c-3.71-0.8-7.41-1.64-11.11-2.51c-2.3-0.55-4.64-1.02-6.87-1.8c-2.98-1.05-5.88-2.33-8.78-3.57c-0.81-0.34-1.17-0.14-1.35,0.65
		l0.03-0.03c-0.18,0.23-0.4,0.44-0.53,0.7c-5.23,9.58-8.73,19.81-11.36,30.36c-0.16,0.66-0.07,0.86,0.58,0.99
		c2.8,0.52,5.6,1.09,8.4,1.64c0.92,0.18,1.84,0.4,2.77,0.55c1.54,0.24,3.11,0.29,4.62,0.65c4.41,1.05,8.73,2.48,13.28,2.84
		c0.57,0.04,0.8-0.08,0.73-0.69c-0.04-0.34-0.04-0.74,0.11-1.03c1.19-2.38,2.83-4.28,5.48-5.1c0.15-0.05,0.35-0.14,0.41-0.27
		c0.45-0.99,0.87-1.98,1.3-2.98c-0.27,0.08-0.43,0.22-0.58,0.37c-0.49,0.47-0.92,0.32-1.2-0.2c-0.38-0.72-0.75-1.46-1.01-2.23
		c-0.1-0.31-0.04-0.83,0.16-1.06c0.55-0.62,1.22-1.14,1.85-1.71c-1.2-1.15-1.23-2.51-1.4-3.79
		C132.5,129.38,132.97,129.09,133.22,128.83z M104.8,107.7c-1.4-0.74-2.8-1.38-4.09-2.19c-3.27-2.03-6.88-2.41-10.54-1.98
		c-3.74,0.44-7.35,1.56-10.61,3.5c-1.05,0.63-2.03,1.53-2.76,2.52c-1.2,1.64-2.3,3.39-3.2,5.22c-1.42,2.9-2.64,5.89-3.94,8.85
		c-0.21,0.49-0.19,0.83,0.35,1.2c1.27,0.87,2.5,1.86,2.85,3.47c0.41,1.93,0.8,3.87,1.02,5.83c0.16,1.46,0.03,2.96,0.04,4.44
		c0,0.23,0.13,0.46,0.2,0.73c0.11-0.53,0.11-0.93,0.29-1.22c0.07-0.12,0.53,0,0.82,0.02c-0.09,0.43-0.18,0.87-0.24,1.19
		c6.67,1.28,13.4,2.82,20.04,3.22c0.11-6.21,2.16-11.93,3.63-17.77C100.16,118.85,101.98,113.06,104.8,107.7z M77.6,163.72
		c-1.64-2.43-2.63-5.23-3.46-8.05c-1.27-4.29-1.71-8.75-1.86-13.21c-0.13-4.06-0.04-8.12-0.79-12.13c-0.27-1.45-1-2.65-2.21-3.66
		c-0.93-0.78-1.86-0.56-2.82-0.59c-1.2-0.03-2.41-0.05-3.61,0c-1.78,0.07-3.55,0.21-5.31,0.33c-0.18,0.49-0.31,0.92-0.5,1.34
		c-1.42,3.18-1.99,6.53-2.01,9.98c-0.02,2.49-0.01,4.99,0.2,7.47c0.2,2.42,0.58,4.84,1.05,7.23c0.77,3.86,2.06,7.57,3.65,11.17
		c0.97,2.2,1.94,4.4,2.94,6.66c0.51-0.29,0.86-0.49,0.98-0.56c-0.23-0.53-0.5-0.94-0.54-1.38c-0.01-0.15,0.67-0.58,0.79-0.5
		c0.39,0.25,0.67,0.68,0.98,1.03C69.11,167.2,73.34,165.46,77.6,163.72z M195.39,106.5c0,0.4-0.09,0.79,0.01,1.12
		c0.64,2.09,1,4.21,0.96,6.4c-0.04,2.09-0.16,4.18-0.17,6.27c0,2.06,0.19,4.13,0.13,6.19c-0.1,3.66-0.34,7.32-0.51,10.97
		c-0.09,1.9-0.08,3.81-0.21,5.72c-0.09,1.34-0.32,2.66-0.52,3.99c-0.16,1.08-0.39,2.16-0.56,3.24c-0.37,2.29-0.68,4.58-1.08,6.86
		c-0.32,1.82-0.77,3.62-1.14,5.44c-0.84,4.2-1.64,8.42-2.5,12.62c-0.58,2.84-1.23,5.67-1.85,8.52c0.85,0.55,1.16,0.01,1.38-0.72
		c0.9-2.93,1.86-5.85,2.68-8.8c1.02-3.66,1.97-7.33,2.86-11.02c1.16-4.81,2.28-9.64,3.34-14.48c0.38-1.72,0.37-3.53,0.8-5.23
		c0.95-3.73,0.9-7.54,1.01-11.31c0.1-3.27-0.31-6.57-0.51-9.85c-0.05-0.79-0.17-1.58-0.28-2.38c-0.27-2.09-0.52-4.18-0.82-6.26
		c-0.3-2.08-0.55-4.17-0.98-6.23c-0.45-2.13,1.22-4.13,3.43-3.94c0.13,0.01,0.29-0.04,0.4-0.12c0.96-0.64,1.92-1.28,2.85-1.96
		c0.2-0.15,0.39-0.44,0.42-0.68c0.12-1.25,0.18-2.5,0.27-3.76c-1.97,0-3.8,0-5.65,0c-0.04,0.06-0.12,0.12-0.14,0.21
		c-0.83,2.87-2.62,4.8-5.58,5.5c-1.79,0.42-3.57,0.79-5.4,0.03c-3.23-1.34-4.19-5.62-3.75-8.17c0.13-0.76,0.01-1.18-0.71-1.32
		c-1.85-0.35-3.73-0.59-5.57-1.02c-1.59-0.37-3.27-0.69-4.64-1.49c-1.53-0.9-2.83-2.24-4.11-3.52c-3.12-3.12-6.17-6.3-9.25-9.47
		c-2.05-2.11-4.09-4.24-6.1-6.33c-1.82,1.21-2.22,2.93-2.36,4.78c-0.04,0.56,0.18,0.8,0.65,1.12c2.07,1.4,4.3,2.67,6.06,4.41
		c2.78,2.77,5.24,5.87,7.82,8.83c2.7,3.09,4.78,6.57,6.6,10.24c0.21,0.43,0.64,0.82,1.06,1.05c1.29,0.71,2.63,1.32,3.95,1.98
		c1.85,0.92,3.65,1.94,5.77,2.19c1.23,0.14,2.51,0.31,3.65,0.77c0.87,0.35,1.71,0.54,2.49,0.26c1.76-0.62,3.71,0.39,5.38-0.71
		C195.04,106.4,195.23,106.49,195.39,106.5z M59.55,171.76c-0.13-0.49-0.33-0.94-0.34-1.4c0-0.11,0.75-0.43,0.89-0.32
		c0.33,0.27,0.5,0.73,0.77,1.18c0.29-0.15,0.73-0.37,1.08-0.54c-0.49-0.78-1.03-1.46-1.39-2.22c-0.97-2.07-1.86-4.17-2.8-6.25
		c-2.25-4.96-3.4-10.23-3.99-15.59c-0.36-3.2-0.43-6.45-0.37-9.68c0.04-2.15,0.44-4.31,0.84-6.43c0.26-1.37,0.8-2.68,1.16-3.87
		c-0.88,0-1.76,0.04-2.64-0.01c-1-0.06-1.88,0.03-2.61,0.88c-0.71,0.84-1.66,1.47-2.35,2.33c-1.56,1.95-2.6,4.19-3.5,6.52
		c-1.8,4.66-3.02,9.42-2.82,14.46c0.06,1.47,0.07,2.95,0.2,4.42c0.15,1.61,0.39,3.21,0.63,4.81c0.41,2.76,1.3,5.39,2.46,7.91
		c1.25,2.71,2.56,5.39,3.85,8.08c0.08,0.16,0.22,0.29,0.2,0.26c0.51-0.25,0.95-0.52,1.42-0.64c0.08-0.02,0.53,0.69,0.45,0.94
		c-0.13,0.4-0.57,0.69-0.98,1.14c-0.01-0.01,0.12,0.21,0.13,0.24C53.18,175.84,56.44,173.75,59.55,171.76z M99.84,180.58
		c-2.98-11.84-4.13-23.91-4.1-36.01c-1.79-0.18-3.5-0.3-5.2-0.53c-2.21-0.29-4.42-0.58-6.59-1.04c-2.47-0.52-4.89-1.23-7.34-1.83
		c-0.86-0.21-1.74-0.33-2.69-0.51c0,0.41-0.02,0.66,0,0.9c0.25,2.84,0.38,5.69,0.79,8.51c0.31,2.19,0.82,4.37,1.51,6.47
		c0.76,2.31,1.86,4.5,2.75,6.77c0.22,0.55,0.18,1.19,0.31,2.08c1.03,0.84,1.79,2.35,3.32,3.34c1.72,1.11,3.09,2.88,4.38,4.54
		c1.57,2.02,2.92,4.22,4.34,6.37c0.33,0.5,0.65,0.77,1.31,0.75c1.88-0.05,3.77-0.03,5.65-0.01
		C98.77,180.38,99.27,180.5,99.84,180.58z M126.58,150.09c-1.58-0.21-3.05-0.33-4.48-0.62c-4.67-0.94-9.15-2.66-13.97-3.11
		c-3.33-0.32-6.59-1.36-9.89-2.09c-1.32-0.29-1.38-0.25-1.22,1.12c0.02,0.18,0.02,0.37,0.03,0.55c0.13,4.03,0.22,8.06,0.39,12.08
		c0.06,1.3,0.32,2.6,0.5,3.9c0.2,1.48,0.4,2.96,0.6,4.44c0.23,1.69,0.39,3.39,0.71,5.07c0.39,2.06,0.91,4.09,1.37,6.14
		c0.23,1.03,0.45,2.05,0.63,2.86c0.43-0.1,0.74-0.26,1.01-0.21c0.15,0.03,0.39,0.51,0.32,0.62c-0.2,0.32-0.53,0.56-0.76,0.79
		c1.67,0.36,3.5,0.75,5.41,1.16c0-0.24,0.02-0.39,0-0.53c-0.3-1.99-0.74-3.97-0.87-5.96c-0.23-3.72-0.32-7.45-0.39-11.17
		c-0.03-1.91,0.12-3.81,0.16-5.72c0.04-1.7,0.1-1.74,1.74-1.66c2.97,0.15,5.95,0.25,8.93,0.38c0.86,0.04,1.72,0.11,2.57,0.16
		c1.32,0.08,2.64,0.14,3.95,0.22c0.45,0.03,0.7-0.07,0.82-0.61c0.2-0.98,0.54-1.93,0.84-2.89
		C125.51,153.4,126.04,151.79,126.58,150.09z M80.74,169.98c-3.26,0.31-6.35,1.17-9.38,2.25c-3.02,1.08-5.99,2.28-8.9,3.4
		c0.49,1.24,1.09,2.43,1.43,3.68c0.81,2.89,1.53,5.81,2.22,8.74c0.54,2.27,1.01,4.56,1.49,6.85c0.34,1.64,0.64,3.28,0.99,4.92
		c0.09,0.41,0.29,0.8,0.48,1.17c0.3,0.59,0.82,1.15,0.9,1.76c0.23,1.72,0.35,3.46,0.4,5.2c0.05,1.59-0.39,3.04-1.72,4.07
		c-0.31,0.24-0.62,0.46-0.94,0.69c0.07,0.1,0.14,0.2,0.21,0.3c0.65,0,1.33,0.12,1.95-0.02c1.68-0.39,2.67-1.67,3.45-3.09
		c0.59-1.06,0.93-2.26,1.55-3.31c1.1-1.89,2.77-3.15,4.77-4.02c0.23-0.1,0.53-0.45,0.51-0.66c-0.26-3.32-0.73-6.63-0.82-9.96
		c-0.11-4.22,0.18-8.44,0.11-12.66C79.4,176.14,80.2,173.13,80.74,169.98z M133.17,142.6c-1.71,0.56-3.93,2.83-4.42,4.4
		c-1,3.19-2.06,6.35-3,9.56c-1.68,5.74-3.35,11.49-4.26,17.42c-0.35,2.28-0.93,4.53-0.37,6.88c0.31,1.33,0.82,2.88,1.53,3.53
		c-1.01-2.73-0.75-5.35,0.61-7.74c0.88-1.55,2.09-2.97,3.39-4.19c0.92-0.86,2.22-1.33,3.4-1.86c0.59-0.27,1.32-0.23,1.95-0.43
		c0.25-0.08,0.53-0.37,0.61-0.63c0.45-1.51,0.73-3.08,1.28-4.55c0.84-2.25,2.07-4.38,2.75-6.67c0.79-2.67,2.17-4.95,3.67-7.21
		c0.45-0.68,0.94-1.32,1.48-2.07c-0.7-0.27-1.31-0.46-1.87-0.74c-0.25-0.12-0.58-0.46-0.55-0.67c0.08-0.77,0.26-1.53,0.46-2.29
		c0.23-0.9,0.51-1.79,0.74-2.57c-0.67-0.36-1.25-0.68-1.92-1.05c-0.2,0.92-0.39,1.8-0.59,2.67c-0.08,0.35-0.06,0.88-0.27,1
		c-0.27,0.15-0.77,0.06-1.1-0.08c-0.96-0.4-1.85-0.97-2.82-1.29C133.06,143.75,132.82,143.39,133.17,142.6z M188.75,215.76
		c-3.37,5.86-6.75,11.74-10.13,17.62c1.14,1.4,1.31,3.5,0.26,5.27c-0.97,1.64-2.19,3.07-4.19,3.63c0.32,0.08,0.6,0.08,0.83-0.04
		c1.13-0.61,2.24-1.28,3.38-1.86c1.73-0.89,3.6-1.33,5.53-1.44c1.1-0.06,2.21,0.14,3.32,0.12c0.31-0.01,0.73-0.34,0.9-0.64
		c0.51-0.9,0.88-1.89,1.38-2.79c3.34-5.98,6.71-11.94,10.05-17.92c0.13-0.23,0.22-0.6,0.13-0.82c-0.6-1.48-0.31-2.87,0.33-4.24
		c0.34-0.73,0.71-1.44,1.06-2.13c-3.01-0.65-5.92-1.27-8.93-1.92c-0.05,0.29-0.2,0.65-0.15,0.99c0.21,1.47,0.25,3.03,0.78,4.39
		c0.69,1.73-0.29,2.45-1.38,3.27c-0.1,0.07-0.2,0.15-0.3,0.22c-0.83,0.61-1.73,0.44-2.25-0.46
		C189.1,216.58,188.92,216.13,188.75,215.76z M119.38,184.05c-0.47-1.56,0.66-2.88,0.22-4.38c-0.22-0.74-0.22-1.62-0.06-2.38
		c0.73-3.42,1.53-6.81,2.34-10.21c0.54-2.26,1.13-4.51,1.7-6.76c-5.41-0.38-10.64-0.75-15.78-1.11c0,4.15-0.07,8.31,0.02,12.47
		c0.08,3.5,0.37,6.99,0.54,10.48c0.03,0.58,0.22,0.76,0.82,0.82c1.7,0.17,3.38,0.47,5.08,0.65
		C115.9,183.81,117.54,183.91,119.38,184.05z M125.63,53.04c0.12,0.07,0.24,0.14,0.35,0.21c0.59-0.71,1.23-1.38,1.76-2.13
		c2-2.83,2.82-5.97,2.1-9.38c-0.59-2.78-1.67-5.36-3.78-7.38c-1.51-1.45-3-2.92-4.49-4.39c-0.45-0.45-0.86-0.93-1.31-1.42
		c-0.73,1.04-1.39,1.99-2.05,2.93c-1.75,2.46-3.8,4.72-4.97,7.57c-1.13,2.75-1.57,5.52-0.2,8.32c0.44,0.91,0.98,1.77,1.46,2.66
		c0.67,1.24,1.91,1.69,3.04,2.35c0.77-2.49,1.54-3.27,3.25-3.37C123.63,48.86,124.85,50.69,125.63,53.04z M175.72,80.38
		c0.01,0.12,0.02,0.24,0.03,0.35c2.35,0.91,4.7,1.82,7.04,2.74c0.97,0.39,1.74,0.34,2.59-0.46c1.44-1.36,3.05-2.54,4.62-3.81
		c-2.26-3.28-2.66-6.53-0.46-9.79c-0.57-0.32-1.1-0.56-1.55-0.9c-1.42-1.07-2.84-2.15-4.21-3.29c-3.29-2.76-6.55-5.56-9.83-8.33
		c-0.96-0.81-2-1.53-2.91-2.39c-0.95-0.9-1.86-0.79-2.74-0.23c-2.19,1.39-3.04,3.79-4.31,5.97c0.82-0.18,1.49-0.31,2.16-0.48
		c0.98-0.25,0.99,0.83,1.58,1.12c0.11,0.05,0.19,0.15,0.29,0.23c0.62,0.51,1.24,1,1.84,1.52c1.75,1.51,3.54,2.97,5.21,4.55
		c1.56,1.47,3.08,3.01,4.46,4.65c0.94,1.12,1.45,2.54,0.85,4.03c-0.51,1.26-1.26,2.38-2.48,3.11
		C177.15,79.41,176.44,79.91,175.72,80.38z M154.8,70.9c1,0.94,2,1.81,2.91,2.75c2.53,2.61,4.97,5.32,7.55,7.87
		c2.54,2.51,5.17,4.92,7.86,7.27c0.75,0.65,1.22,1.77,2.53,1.75c0.94-0.01,1.88,0.16,2.81,0.35c1.84,0.37,3.67,0.79,5.5,1.2
		c0.57,0.13,0.95,0.16,1.34-0.48c0.59-0.95,1.29-1.91,2.16-2.59c1.23-0.97,2.61-1.86,4.35-1.12c0.15,0.06,0.36,0,0.55-0.03
		c3.22-0.37,5.91,1.38,6.58,4.15c0.29,1.17,0.37,2.39,0.56,3.7c1.16-0.08,2.38-0.17,3.44-0.24c0.04-0.42-0.05-1,0.15-1.13
		c0.29-0.19,0.79-0.05,1.25-0.05c-0.36-1.98-1.18-3.9-2.29-5.7c-1.47-2.39-3.62-3.92-6.4-3.99c-2.64-0.06-5.29,0.34-7.92,0.63
		c-1.28,0.14-2.49,0.5-3.85,0.17c-4.16-1.01-7.94-2.97-11.71-4.85c-2.74-1.37-5.25-3.24-7.81-4.96c-1.39-0.94-2.74-1.96-4.01-3.05
		c-1.42-1.23-1.61-3.01-1.82-4.89C157.24,68.78,156.05,69.82,154.8,70.9z M190.24,68.5c3.72-3.46,5.72-3.77,10.21-0.92
		c1.32,0.84,2.44,1.89,2.86,3.46c0.71,2.65-0.12,5.04-1.4,7.28c4.41,4.23,8.77,8.43,13.13,12.62c0.1-0.07,0.21-0.14,0.31-0.21
		c-0.28-2.02-0.51-4.05-0.83-6.07c-0.8-4.92-2.42-9.51-5.79-13.31c-1.01-1.14-2-2.32-3.19-3.25c-2.52-2-5.62-2.78-8.66-3.5
		c-4.01-0.96-7.85-2.22-11.12-4.85c-0.64-0.52-1.24-1.22-1.98-1.46c-1.37-0.43-2.33-1.33-3.28-2.29c-1.54-1.55-3.01-3.16-4.56-4.71
		c-1.39-1.39-2.62-1.52-4.27-0.56c-0.79,0.46-0.98,1.13-0.39,1.8c0.52,0.6,1.16,1.09,1.77,1.6c1.99,1.68,3.97,3.38,5.99,5.03
		c3.36,2.73,6.75,5.41,10.11,8.13C189.57,67.64,189.88,68.1,190.24,68.5z M138.28,213.18c0.89-1.26,1.58-2.66,2.64-3.63
		c1.06-0.97,2.51-1.52,3.9-2.32c-0.42-0.95-0.93-2.12-1.45-3.28c-1.2-2.67-2.38-5.35-3.62-8.01c-1.35-2.88-2.78-5.71-4.1-8.61
		c-0.28-0.62-0.5-1.08-1.22-1.23c-0.36-0.08-0.71-0.36-1-0.61c-1.37-1.17-2.39-2.58-2.75-4.49c-1.77,1.57-4.41,1.15-5.94,2.95
		c0.23,0.61,0.4,1.2,0.67,1.74c0.88,1.84,1.79,3.66,2.69,5.49c0.97,1.97,1.9,3.95,2.9,5.9c0.86,1.68,1.75,3.35,2.69,4.99
		c1.71,3.01,2.95,6.21,4.05,9.47C137.92,212.1,138.11,212.67,138.28,213.18z M207.72,101.41c0.89,2.65,1.77,5.17,2.6,7.72
		c0.85,2.6,1.69,5.2,2.46,7.82c0.52,1.78,1,3.58,1.34,5.4c0.47,2.48,0.82,4.99,1.16,7.5c0.29,2.15,0.62,4.31,0.68,6.48
		c0.08,2.94-0.01,5.9-0.16,8.84c-0.16,3.06-0.61,6.1-0.68,9.15c-0.09,3.54-1.02,6.98-1,10.53c0.01,1.39-0.23,2.81-0.56,4.16
		c-0.85,3.48-1.8,6.93-2.72,10.39c-0.29,1.1-0.64,2.18-0.96,3.27c0.59,0.17,1.08,0.31,1.61,0.46c0.39-0.88,0.84-1.75,1.17-2.66
		c1.82-4.94,3.59-9.9,4.6-15.08c0.51-2.63,0.8-5.29,1.18-7.95c0.14-1.03,0.24-2.07,0.35-3.11c0.12-1.16,0.27-2.31,0.31-3.47
		c0.09-2.31,0.14-4.63,0.15-6.94c0.01-2.98,0.06-5.97-0.12-8.95c-0.14-2.46-0.55-4.91-0.89-7.35c-0.23-1.65-0.39-3.35-0.9-4.92
		c-1.21-3.73-2.55-7.42-3.94-11.08c-1.01-2.64-2.17-5.23-3.32-7.81c-0.44-0.98-1.06-1.89-1.61-2.85
		C208.06,101.2,207.8,101.36,207.72,101.41z M147.41,192.13c-1.16-0.11-2.23-0.15-3.28-0.33c-1.08-0.18-1.2-0.76-0.49-1.61
		c0.42-0.51,0.87-1.05,1.09-1.66c0.73-1.99,0.23-3.9-0.61-5.75c-0.08-0.18-0.35-0.3-0.56-0.39c-0.97-0.41-1.98-0.86-2.4-1.87
		c-0.58-1.4-1.68-1.38-2.85-1.26c-0.63,0.06-1.26,0.17-2.1,0.29c0.26,1.19,0.5,2.37,0.78,3.54c0.36,1.48,0.17,2.27-0.6,2.79
		c3.32,7.14,6.62,14.25,9.87,21.23c0.07-0.4,0.03-0.88,0.24-1.2c0.13-0.2,0.85-0.33,0.91-0.23c0.24,0.36,0.32,0.83,0.49,1.37
		c1.89-0.35,3.6,0.65,5.37,1.5c1.1,0.53,2.25,0.97,3.48,1.5c-0.04-0.41-0.03-0.69-0.09-0.95c-0.52-2.27-1.6-4.27-2.99-6.11
		C151.12,199.61,148.97,196.01,147.41,192.13z M244.18,161.02c-1-2.51-2.19-4.94-2.93-7.5c-0.95-3.26-1.56-6.62-2.26-9.94
		c-0.72-3.42-1.29-6.87-2.07-10.28c-0.99-4.35-1.95-8.73-3.92-12.79c-1.85-3.81-3.61-7.69-5.73-11.35
		c-2.21-3.82-4.55-7.63-8.13-10.43c-0.19-0.15-0.33-0.36-0.5-0.54c-0.9-0.96-1.8-1.92-2.74-2.93c-0.76,0.56-1.45,1.06-1.99,1.45
		c1.55,2.04,3.02,4.02,4.54,5.97c2.99,3.84,5.81,7.79,8.21,12.04c3.34,5.92,6.03,12.12,7.85,18.67c0.95,3.42,1.94,6.84,2.26,10.41
		c0.19,2.06,0.51,4.11,0.93,6.14c0.36,1.76,0.24,3.63,1.26,5.26c1.32,2.12,2.53,4.29,3.76,6.38
		C243.36,161.33,243.81,161.16,244.18,161.02z M201.16,187.32c0.4-0.52,0.84-0.97,1.14-1.5c1.04-1.84,2.15-3.64,3.01-5.56
		c1.43-3.2,2.91-6.4,3.92-9.74c0.72-2.39,0.75-5,1.02-7.52c0.18-1.71,0.3-3.42,0.37-5.14c0.15-3.82,0.32-7.64,0.36-11.46
		c0.04-3.12,0.04-6.23-0.66-9.34c-0.57-2.52-0.55-5.17-0.81-7.75c-0.3-2.92-0.46-5.86-0.97-8.75c-0.64-3.62-1.43-7.22-2.42-10.76
		c-0.61-2.17-1.73-4.21-2.64-6.36c-0.7,0.51-1.23,0.9-1.78,1.31c0.05,0.15,0.08,0.26,0.13,0.37c1.58,3.57,3.02,7.18,3.92,10.99
		c0.93,3.96,1.67,7.96,1.69,12.04c0.01,2.84-0.1,5.67-0.16,8.51c-0.05,2.37-0.12,4.75-0.16,7.12c0,0.23,0.09,0.47,0.17,0.69
		c0.3,0.81,0.75,1.59,0.88,2.42c0.19,1.21,0.18,2.45,0.21,3.68c0.11,4.74-0.04,9.46-0.92,14.13c-0.61,3.23-1.04,6.51-1.94,9.65
		c-1.12,3.92-2.65,7.73-5.25,10.99c-0.35,0.44-0.64,0.92-0.95,1.39C199.99,186.95,200.54,187.12,201.16,187.32z M204.94,103.05
		c1.14,3.02,2.42,5.8,3.22,8.72c0.92,3.36,1.49,6.83,2.06,10.28c0.39,2.32,0.54,4.67,0.77,7.01c0.15,1.46,0.26,2.93,0.4,4.39
		c0.24,2.55,0.62,5.11,0.68,7.66c0.06,2.64-0.23,5.28-0.32,7.93c-0.09,2.56-0.12,5.12-0.2,7.68c-0.04,1.32-0.09,2.64-0.2,3.96
		c-0.22,2.72-0.45,5.44-0.73,8.15c-0.12,1.21-0.29,2.42-0.56,3.6c-0.86,3.78-2.53,7.24-4.36,10.63c-0.14,0.26-0.22,0.56-0.25,0.86
		c-0.1,0.96-0.16,1.93-0.23,2.93c0.12,0,0.28,0.03,0.42,0c0.44-0.1,0.91-0.16,1.32-0.34c0.28-0.13,0.62-0.4,0.69-0.67
		c1.63-6.22,4.19-12.2,4.94-18.66c0.26-2.28,0.58-4.55,0.83-6.82c0.18-1.62,0.27-3.24,0.42-4.86c0.22-2.41,0.48-4.81,0.7-7.21
		c0.11-1.22,0.17-2.45,0.22-3.68c0.07-2.05,0.25-4.11,0.14-6.16c-0.21-3.73-0.43-7.46-0.95-11.15c-0.46-3.22-0.53-6.54-1.97-9.59
		c-0.73-1.56-1.11-3.28-1.7-4.91c-1.23-3.43-2.49-6.84-3.76-10.31C205.85,102.72,205.34,102.9,204.94,103.05z M85.61,203.21
		c0.04-0.09,0.13-0.22,0.15-0.37c0.2-2.04,0.27-4.1,0.6-6.11c0.5-3.02,1.05-6.05,1.83-9c0.51-1.93,1.47-3.74,2.2-5.61
		c0.1-0.27,0.13-0.67,0.01-0.91c-0.55-1.06-1.1-2.12-1.78-3.1c-1.84-2.63-3.74-5.22-5.63-7.81c-0.13-0.17-0.4-0.24-0.67-0.39
		c-2.28,10.76-1.56,21.43-0.89,31.89C82.94,202.31,84.23,202.74,85.61,203.21z M206.26,212.42c-1.11,1.71-2.07,3.2-3.04,4.68
		c-0.11,0.17-0.29,0.4-0.46,0.43c-0.95,0.19-1.24,0.97-1.65,1.69c-2.51,4.47-5.03,8.94-7.55,13.41c-1.25,2.23-2.5,4.46-3.8,6.78
		c2.2,1.14,3.49,2.95,4.45,5.18c0.17-0.33,0.26-0.49,0.35-0.64c2.4-4.34,4.8-8.68,7.21-13.02c2.03-3.66,4.96-6.75,6.66-10.62
		c0.36-0.82,1.14-1.46,1.82-2.29C208.99,216.26,207.66,214.39,206.26,212.42z M190.19,108.34c0.08,0.34,0.21,0.66,0.23,0.98
		c0.07,1.14,0.12,2.28,0.14,3.42c0.09,3.67,0.21,7.34,0.22,11.01c0.01,3.74-0.04,7.49-0.21,11.23c-0.08,1.72-0.51,3.43-0.8,5.14
		c-0.33,1.95-0.68,3.89-1.01,5.84c-0.31,1.86-0.56,3.73-0.9,5.59c-0.54,2.9-1.13,5.79-1.69,8.68c-0.36,1.88-0.47,3.84-1.08,5.63
		c-2.34,6.92-4.39,13.91-5.94,21.05c-0.23,1.05-0.46,2.1-0.7,3.17c0.82,0.16,1.43,0.27,2.13,0.41c1.24-4.49,2.46-8.94,3.69-13.39
		c1.1-3.95,2.29-7.88,3.33-11.85c0.86-3.26,1.63-6.55,2.3-9.85c0.53-2.59,0.95-5.21,1.25-7.84c0.4-3.52,0.66-7.06,0.95-10.59
		c0.27-3.27,0.73-6.54,0.7-9.81c-0.06-5.77,0.59-11.56-0.49-17.31C191.95,107.94,192.04,107.93,190.19,108.34
		C190.18,108.35,190.15,108.37,190.19,108.34z M81.57,211.94c-0.16,0-0.19-0.01-0.21,0c-2.01,1.44-4.05,2.84-5.99,4.37
		c-0.41,0.32-1.16,1-0.42,1.78c1.55,1.62,3.01,3.34,4.7,4.81c2.58,2.26,5.31,4.35,8,6.47c0.27,0.21,0.77,0.34,1.1,0.26
		c1.87-0.47,3.31,0.1,4.35,1.7c0.54,0.83,1.04,1.68,1.51,2.46c1.29-1.71,2.61-3.46,3.93-5.2c-3.66-3.93-8.34-6.93-11.46-11.53
		c-0.16,0.07-0.31,0.16-0.48,0.21c-2.11,0.59-3.32,0.84-3.85-1.76C82.5,214.27,81.96,213.1,81.57,211.94z M170.5,184.98
		c0.1-1.82,0.14-3.61,0.32-5.37c0.22-2.18,0.52-4.36,0.84-6.53c0.37-2.56,0.81-5.11,1.18-7.67c0.3-2.11,0.42-4.26,0.81-6.35
		c0.65-3.55,1.37-7.1,2.17-10.62c1.67-7.31,3.38-14.6,5.13-21.89c0.85-3.55,1.79-7.07,2.69-10.6c0.61-2.38,1.22-4.76,1.81-7.14
		c0.07-0.26,0.04-0.55,0.06-0.82c-0.24,0.18-0.6,0.3-0.71,0.54c-1.24,2.52-2.57,5-3.61,7.6c-1.98,4.93-3.82,9.93-4.89,15.17
		c-0.49,2.38-1.79,4.53-1.81,7.08c-0.02,2.02-0.6,4.02-0.89,6.04c-0.45,3.1-0.94,6.21-1.3,9.32c-0.37,3.19-0.6,6.39-0.93,9.59
		c-0.23,2.25-0.52,4.49-0.77,6.73c-0.24,2.09-0.48,4.19-0.7,6.28c-0.19,1.83-0.39,3.65-0.53,5.48c-0.07,1.05-0.01,2.1-0.01,3.18
		C169.63,184.98,169.99,184.98,170.5,184.98z M50.42,125.66c5.5-1.01,10.99-0.93,16.44-1.33c-0.36-2.95,0.07-5.8,0.6-8.63
		c0.52-2.79,1.24-5.55,1.88-8.35c-0.13,0.04-0.3,0.08-0.46,0.15c-3.86,1.79-7.65,3.69-10.98,6.44
		C54.14,117.05,51.87,121.03,50.42,125.66z M198.46,106.23c0.94,1.07,1.74,2.09,1.91,3.48c0.09,0.77,0.46,1.51,0.68,2.27
		c0.6,2.04,1.35,4.04,1.76,6.12c0.48,2.42,0.74,4.89,0.96,7.35c0.22,2.44,0.38,4.9,0.37,7.35c-0.01,3.04-0.33,6.08-0.33,9.12
		c0,1.75-0.38,3.47-0.1,5.27c0.21,1.35-0.14,2.8-0.31,4.19c-0.29,2.33-0.56,4.66-0.98,6.97c-0.79,4.27-1.72,8.52-2.51,12.79
		c-1,5.35-2.11,10.67-4.11,15.82c0.48,0.17,0.93,0.33,1.42,0.5c0.5-1.07,1.08-2.02,1.4-3.05c1.21-3.92,2.41-7.84,3.48-11.8
		c0.74-2.72,1.33-5.49,1.87-8.27c0.42-2.15,0.65-4.34,0.95-6.51c0.32-2.33,0.73-4.65,0.88-6.99c0.23-3.53,0.35-7.08,0.36-10.62
		c0.02-5.33,0.03-10.67-0.19-15.99c-0.13-3.15-0.65-6.27-2.04-9.21c-1.02-2.14-1.73-4.42-2.58-6.64c-0.39-1.03-0.79-2.06-1.19-3.12
		C199.56,105.61,199.08,105.88,198.46,106.23z M246.09,154.83c-0.71-1.85-1.47-3.64-2.09-5.47c-1.47-4.3-1.49-8.87-2.43-13.27
		c-0.78-3.65-1.68-7.27-2.59-10.89c-1.4-5.53-3.64-10.72-6.67-15.54c-1.7-2.71-3.42-5.45-5.43-7.93c-1.85-2.29-4.13-4.22-6.18-6.36
		c-1.06-1.11-2.28-1.87-3.74-2.38c-0.32,0.75-0.17,1.43,0.32,2.01c0.48,0.56,1.02,1.08,1.57,1.57c2.58,2.34,4.76,5.03,6.81,7.84
		c3.05,4.19,5.24,8.86,7.57,13.46c2.62,5.17,4.05,10.75,5.37,16.35c0.66,2.78,1.11,5.6,1.68,8.4c0.55,2.65,1.11,5.29,1.74,7.92
		c0.4,1.67,0.94,3.3,1.42,4.97C244.53,155.23,245.42,155,246.09,154.83z M203.3,186.82c-0.9,2.02-2.24,2.32-3.93,1.44
		c-0.5-0.26-0.8-0.11-1,0.4c-0.29,0.72-0.85,0.72-1.45,0.47c-0.45-0.2-0.87-0.45-1.3-0.69c-1.27-0.72-1.32-0.83-0.92-2.22
		c0.33-1.14,0.33-1.14-0.75-1.66c-1.16,2.97-1.55,5.24-1.15,6.72c1.27,0.07,1.76,0.41,2.28,1.62c0.98,2.27,0.43,4.5-0.29,6.69
		c-0.38,1.16-1.16,2.03-2.5,2.04c-0.66,0.01-1.32-0.19-2.09-0.31c0,1.67,0,3.42,0,5.13c5.45-6.11,10.56-7.24,17.25-6.86
		c0.16-3.85,0.32-7.71,0.48-11.52c-1.1,0.15-2.21,0.33-3.33,0.42c-0.26,0.02-0.6-0.24-0.79-0.47
		C203.62,187.76,203.55,187.41,203.3,186.82z M173.91,103.52c-0.34,0.36-0.57,0.69-0.88,0.92c-0.87,0.67-1.8,1.28-2.67,1.95
		c-3.95,3.04-7.42,6.57-10.4,10.56c-2.71,3.63-5.12,7.47-7.21,11.51c-2.99,5.78-5.5,11.75-7.06,18.08
		c-0.46,1.87-0.57,3.84-0.86,5.85c0.96,0.09,1.67,0.16,2.28,0.22c4.13-19.13,13.7-34.96,27.78-48.31
		C174.49,103.96,174.17,103.72,173.91,103.52z M215.12,207.02c0.45-0.24,0.95-0.44,1.38-0.74c0.21-0.14,0.41-0.45,0.42-0.68
		c0.08-2.37,0.07-4.75,0.19-7.12c0.13-2.63,0.28-5.27,0.59-7.88c0.31-2.59,0.85-5.15,1.28-7.72c-0.41,0.27-0.65,0.65-0.95,0.97
		c-0.7,0.76-1.38,1.55-2.17,2.2c-0.53,0.44-1.13,0.36-1.55-0.32c-0.51-0.82-1.06-1.61-1.62-2.43c-0.86,1.29-0.86,1.27-2.4,0.98
		c-0.57-0.11-1.1-0.08-1.17,0.73c-0.04,0.4-0.22,0.8-0.35,1.23c0.76,0.07,0.96,0.5,0.93,1.15c-0.13,3.91-0.25,7.81-0.36,11.72
		c-0.02,0.6-0.13,1.2,0.54,1.64C212.29,202.33,214.06,204.47,215.12,207.02z M217.97,114.07c-0.11,0.04-0.23,0.09-0.34,0.13
		c0.13,0.39,0.25,0.79,0.4,1.18c2.56,6.68,5.44,13.23,7.59,20.07c1.13,3.61,2.2,7.26,2.35,11.03c0.15,3.61-0.06,7.25-0.35,10.85
		c-0.26,3.31-0.98,6.54-2.5,9.56c-2.78,5.53-6.42,10.35-11.25,14.24c-0.25,0.2-0.47,0.85-0.34,1.05c0.61,0.97,1.35,1.86,1.99,2.7
		c1.19-1.6,2.39-3.21,3.58-4.82c1.88-2.53,3.76-5.06,5.63-7.6c2.27-3.07,4.55-6.16,5.1-10.08c0.38-2.73,0.63-5.48,0.78-8.23
		c0.09-1.74,0.02-3.51-0.19-5.24c-0.46-3.91-1.62-7.67-2.84-11.4c-1.96-6-4.61-11.73-7.04-17.54
		C219.71,117.99,218.83,116.04,217.97,114.07z M213.38,101.7c0.09,0.31,0.1,0.39,0.13,0.47c1.47,3.02,2.96,6.03,4.4,9.07
		c1.09,2.31,1.86,4.81,3.2,6.96c2.02,3.27,2.96,6.98,4.71,10.37c1.68,3.26,2.59,6.93,3.66,10.48c0.83,2.76,1.64,5.56,2.02,8.4
		c0.4,3.01,1.1,5.97,1.4,8.98c0.24,2.41,0.24,4.85,0.25,7.28c0.01,1.38-0.19,2.76-0.29,4.13c-0.18,2.47-0.37,4.95-0.55,7.42
		c-0.06,0.78-0.1,1.56-0.15,2.3c0.61-0.21,1.24-0.36,1.8-0.62c0.3-0.14,0.7-0.47,0.72-0.75c0.18-2.3,0.33-4.6,0.38-6.9
		c0.04-1.5-0.15-3-0.16-4.51c-0.03-3.38,0.09-6.76-0.55-10.11c-0.49-2.57-0.72-5.19-1.26-7.75c-0.65-3.09-1.45-6.15-2.26-9.2
		c-1.85-7.03-4.54-13.76-7.68-20.31C220.51,111.89,217.45,106.61,213.38,101.7z M164.21,183.38c0.14,0.07,0.28,0.15,0.42,0.22
		c0.15-0.23,0.4-0.45,0.42-0.69c0.21-2.75,0.36-5.51,0.58-8.27c0.21-2.56,0.4-5.13,0.76-7.67c0.54-3.86,1.12-7.72,1.86-11.55
		c0.73-3.79,1.56-7.57,2.55-11.3c1.22-4.61,2.63-9.18,4-13.75c1.94-6.49,3.91-12.96,7.1-18.98c0.57-1.07,1.06-2.19,1.61-3.35
		c-0.52-0.2-0.97-0.36-1.44-0.54c-0.56,1-1.05,1.98-1.63,2.91c-2.92,4.72-5.4,9.66-7.37,14.84c-1.44,3.79-2.87,7.6-3.21,11.71
		c-0.2,2.45-0.41,4.93-0.98,7.32c-0.7,2.94-0.85,5.92-1.24,8.88c-0.38,2.86-0.93,5.71-1.35,8.57c-0.44,2.99-0.86,5.98-1.22,8.97
		c-0.2,1.67-0.3,3.36-0.41,5.04C164.49,178.29,164.36,180.84,164.21,183.38z M184,121.08c-0.1-0.01-0.21-0.02-0.31-0.03
		c-1.7,6.84-3.47,13.67-5.09,20.53c-1.21,5.11-2.27,10.26-3.29,15.42c-0.51,2.54-0.8,5.12-1.17,7.68c-0.33,2.29-0.63,4.59-0.98,6.88
		c-0.19,1.26-0.48,2.51-0.69,3.77c-0.21,1.23-0.42,2.47-0.54,3.71c-0.12,1.28,0.02,2.61-0.25,3.86c-0.27,1.25,0.42,2.41,0.11,3.62
		c-0.04,0.14,0.21,0.45,0.39,0.52c0.26,0.1,0.71,0.17,0.84,0.04c0.22-0.24,0.31-0.64,0.38-0.99c0.96-4.77,1.93-9.53,2.84-14.31
		c0.56-2.96,1.49-5.85,1.44-8.91c-0.01-0.74-0.07-1.48,0-2.21c0.27-2.68,0.58-5.35,0.91-8.02c0.3-2.42,0.58-4.85,0.96-7.26
		c0.49-3.03,1.07-6.05,1.63-9.07c0.65-3.53,1.33-7.05,1.99-10.58C183.46,124.18,183.72,122.63,184,121.08z M186.64,84.07
		c1.99-0.25,4.17-0.39,6.3-0.82c3.99-0.8,8.8,1.57,10.84,5.03c2.27,3.84,2.94,7.98,2.41,12.36c-0.02,0.14,0.08,0.3,0.09,0.36
		c0.64-0.51,1.21-1.34,1.86-1.4c1.02-0.1,1.07-1.1,1.77-1.36c0.29-0.11,0.64-0.06,0.82-0.08c0.88-1.06,1.73-2.09,2.41-2.92
		c-0.32-0.4-0.76-0.71-0.79-1.06c-0.02-0.26,0.63-0.85,0.73-0.8c0.42,0.21,0.75,0.61,1.19,1.01c0.25-0.18,0.7-0.49,1.02-0.72
		c-4.85-4.81-9.59-9.51-14.24-14.12c-1.15,0.57-2.27,1.3-3.5,1.69c-1.95,0.6-3.88,0.08-5.72-0.64c-0.54-0.21-0.89-0.18-1.3,0.17
		C189.21,81.89,187.85,83.04,186.64,84.07z M180.42,176.04c1.16-3.38,2.01-6.51,1.75-9.93c-0.24-3.06,0.03-6.16,0.13-9.24
		c0.07-1.96,0.21-3.92,0.38-5.88c0.28-3.35,0.6-6.7,0.91-10.05c0.24-2.65,0.41-5.31,0.77-7.94c0.46-3.28,1.07-6.54,1.64-9.81
		c0.48-2.76,0.98-5.51,1.48-8.26c0.36-2,0.75-4,1.1-6.01c0.15-0.84-0.31-1.06-1.07-0.94c-0.26,1.65-0.49,3.25-0.78,4.83
		c-0.28,1.55-0.66,3.09-0.92,4.65c-0.44,2.61-0.76,5.24-1.25,7.84c-0.64,3.44-1.42,6.85-2.08,10.28c-0.7,3.58-1.38,7.16-1.99,10.76
		c-0.41,2.43-0.68,4.89-0.98,7.34c-0.18,1.46-0.31,2.92-0.41,4.39c-0.17,2.41-0.79,4.75-0.05,7.25c0.62,2.1,0.56,4.41,0.82,6.62
		C180.03,173.24,180.22,174.53,180.42,176.04z M157.78,169.81c0.1-0.44,0.18-0.76,0.24-1.09c0.33-2.17,0.56-4.36,1.01-6.5
		c0.83-3.96,1.74-7.9,2.7-11.83c2.12-8.63,4.25-17.26,7.23-25.64c1.41-3.96,2.7-7.97,4.88-11.61c0.66-1.11,1.22-2.28,1.83-3.42
		c-0.37,0.12-0.58,0.34-0.75,0.59c-2.42,3.64-4.86,7.27-7.25,10.94c-0.63,0.96-1.19,1.9-1.39,3.15c-0.43,2.63-1.18,5.21-1.9,7.78
		c-1.76,6.32-3.6,12.62-5.37,18.94c-0.64,2.28-1.28,4.58-1.69,6.91c-0.51,2.88-0.78,5.8-1.16,8.7c-0.12,0.93-0.27,1.85-0.4,2.78
		c0.38,0.1,0.67,0.21,0.96,0.25C157.05,169.8,157.39,169.79,157.78,169.81z M183.4,167c0.25-0.82,0.58-1.64,0.74-2.5
		c0.31-1.71,0.46-3.44,0.79-5.15c0.49-2.56,1.17-5.09,1.61-7.66c0.96-5.64,2.6-11.18,2.64-16.98c0.02-2.09,0.32-4.17,0.32-6.26
		c0-4.81-0.11-9.61-0.17-14.42c0-0.07-0.03-0.13-0.05-0.2c-0.57,2.34-0.99,4.7-1.43,7.05c-0.35,1.88-0.81,3.75-1.09,5.64
		c-0.5,3.38-0.91,6.76-1.32,10.15c-0.4,3.27-0.77,6.55-1.1,9.83c-0.34,3.41-0.74,6.82-0.9,10.23
		C183.28,160.16,183.4,163.59,183.4,167z M216.14,84.55c0.14,0.82,0.22,1.33,0.31,1.84c0.72,0.17,1.47,0.24,2.13,0.51
		c3.37,1.37,6.5,3.15,9.56,5.16c3.14,2.06,5.25,4.98,7.24,7.96c2.29,3.42,3.96,7.2,5.48,11.04c1.21,3.05,2.56,6.05,3.92,9.04
		c0.68,1.48,1.93,2.28,3.57,2.39c0.06-0.18,0.11-0.32,0.15-0.47c0.4-1.56,1.16-2.94-0.39-4.59c-2.25-2.41-3.66-5.47-5.06-8.46
		c-1.46-3.13-3.15-6.13-5.12-8.97c-3.7-5.33-8.16-9.81-14.16-12.53c-1.75-0.79-3.54-1.47-5.32-2.17
		C217.76,85.05,217.03,84.85,216.14,84.55z M183.86,184.46c1.76-0.27,2.94-0.86,2.91-2.67c0-0.06,0.06-0.11,0.07-0.17
		c0.9-3.72,1.84-7.42,2.68-11.15c0.68-3.02,1.22-6.08,1.85-9.11c0.47-2.23,1.06-4.44,1.49-6.67c0.33-1.77,0.49-3.56,0.73-5.35
		c0.18-1.36,0.42-2.71,0.54-4.07c0.17-1.86,0.26-3.73,0.4-5.59c0.24-3.27,0.63-6.55,0.69-9.82c0.1-5.13,0.12-10.25-0.48-15.37
		c-0.26-2.2-0.04-4.45-0.04-6.67c-0.59,0.14-1.11,0.25-1.67,0.38c0.06,0.69,0.15,1.38,0.19,2.08c0.25,4.08,0.63,8.16,0.68,12.24
		c0.04,3.16-0.33,6.33-0.5,9.49c-0.25,4.57-0.46,9.15-0.76,13.72c-0.16,2.41-0.29,4.84-0.79,7.19c-1.22,5.67-2.6,11.3-4.03,16.92
		C186.59,174.67,185.21,179.49,183.86,184.46z M112.09,188.03c1.37,1.69,2.76,3.44,4.2,5.15c2.04,2.42,4.07,4.85,6.21,7.18
		c2.24,2.44,4.59,4.78,6.9,7.15c0.73,0.75,1.66,1.05,2.67,0.79c0.87-0.23,1.72-0.57,2.56-0.86c-0.11-0.8-0.48-0.5-0.84-0.35
		c-1.92,0.84-3.16,0.71-4.35-0.59c-1.53-1.68-1.61-3.69-1-5.75c0.18-0.62,0.17-1.05-0.23-1.54c-0.8-0.97-1.53-2-2.35-2.95
		c-1.45-1.68-3.01-3.26-4.39-4.99c-1.35-1.7-2.54-3.52-3.79-5.3c-0.48-0.68-1.61-0.85-2.25-0.37
		C114.36,186.42,113.26,187.18,112.09,188.03z M176.93,105.14c-0.3-0.32-0.57-0.13-0.91,0.24c-2.76,2.98-5.66,5.84-8.3,8.93
		c-2.95,3.44-6.02,6.8-7.48,11.29c-1.1,3.38-2.6,6.63-3.81,9.97c-1.78,4.91-3.54,9.83-4.62,14.96c-0.51,2.43-0.97,4.88-1.46,7.37
		c0.66,0.16,1.2,0.29,1.74,0.42C154.85,137.97,164.44,120.9,176.93,105.14z M220.46,133.55c-0.1,0.03-0.2,0.05-0.3,0.08
		c0.16,1.2,0.46,2.4,0.44,3.6c-0.06,4.43-0.18,8.86-0.36,13.29c-0.11,2.61-0.26,5.22-0.58,7.81c-0.28,2.29-0.73,4.57-1.28,6.81
		c-0.91,3.69-1.96,7.34-2.96,11c-0.2,0.72-0.48,1.42-0.72,2.13c0.09,0.06,0.18,0.11,0.28,0.17c1.32-1.4,2.68-2.76,3.95-4.2
		c0.53-0.6,1.13-1.3,1.3-2.05c0.6-2.67,1.11-5.37,1.52-8.07c0.59-3.89,1.2-7.78,0.96-11.75c-0.1-1.61,0.31-3.25,0.17-4.85
		c-0.25-2.85-0.68-5.69-1.15-8.51C221.42,137.17,220.89,135.37,220.46,133.55z M53.13,182.34c3.36,1.56,6.03,4.09,8.39,7.01
		c2.42,3,3.46,6.51,3.9,10.23c0.61,0,1.13,0,1.81,0c-0.54-2.49-1-4.9-1.6-7.29c-0.74-2.92-1.72-5.77-2.38-8.71
		c-0.57-2.53-1.08-5.06-2.45-7.43c-3.02,1.56-6.05,3.12-9.15,4.72c0.41,0.38,0.72,0.67,0.88,0.81c0.37-0.3,0.64-0.55,0.95-0.73
		c0.04-0.03,0.44,0.37,0.41,0.43C53.71,181.68,53.46,181.93,53.13,182.34z M199.62,110.66c-0.1,0.02-0.19,0.04-0.29,0.06
		c0,0.24-0.02,0.48,0,0.72c0.24,2.15,0.52,4.3,0.73,6.46c0.12,1.19,0.12,2.39,0.2,3.59c0.24,3.95,0.56,7.9,0.71,11.85
		c0.11,2.92-0.06,5.85-0.01,8.77c0.03,1.53,0.38,3.07,0.34,4.59c-0.06,2.41-0.17,4.84-0.53,7.23c-0.58,3.88-1.23,7.75-2.09,11.58
		c-1.31,5.8-2.82,11.56-4.26,17.41c0.27,0.17,0.64,0.4,1.22,0.76c0.95-4.15,1.91-8.07,2.74-12.02c1-4.73,1.96-9.47,2.83-14.22
		c0.48-2.6,0.78-5.24,1.06-7.88c0.13-1.2-0.03-2.43,0.03-3.64c0.17-3.31,0.39-6.61,0.6-9.92c0.01-0.18,0.07-0.37,0.07-0.55
		c0.02-2.71,0.18-5.44,0.01-8.14c-0.17-2.55-0.56-5.1-1.08-7.6C201.26,116.67,200.39,113.68,199.62,110.66z M212.27,98.16
		c1.4,1.74,2.86,3.33,4.07,5.1c2.02,2.95,4.06,5.91,5.76,9.05c2.15,3.97,4.19,8.04,5.87,12.22c1.92,4.77,3.46,9.69,5.06,14.58
		c0.66,2.01,1.08,4.11,1.49,6.19c0.49,2.45,0.92,4.91,1.25,7.39c0.35,2.61,0.59,5.23,0.78,7.85c0.11,1.51,0.02,3.02,0.02,4.54
		c0,0.27-0.02,0.58,0.1,0.81c0.49,1,1.03,1.99,1.6,3.05c0.45-0.19,0.87-0.36,1.34-0.56c-1.66-3.04-1.77-6.32-2.28-9.49
		c-0.3-1.87-0.36-3.77-0.61-5.65c-0.31-2.35-0.71-4.7-1.07-7.04c-0.29-1.9-0.48-3.82-0.88-5.69c-1.23-5.75-2.82-11.41-5.26-16.78
		c-1.71-3.77-3.49-7.54-5.57-11.12c-1.77-3.06-3.98-5.87-6.06-8.74c-1.52-2.1-3.14-4.13-4.74-6.21
		C212.76,97.87,212.56,97.99,212.27,98.16z M150.29,183.51c4.08-0.42,8.29-0.85,12.45-1.27c0.13-2.99,0.26-5.86,0.39-8.74
		c-0.64,2.02-1.13,4.06-1.69,6.09c-0.08,0.3-0.61,0.77-0.8,0.71c-1.03-0.32-2.08-0.69-3.01-1.23c-0.72-0.42-0.1-1.08,0-1.65
		c0.35-2.06,0.65-4.14,0.97-6.21c-1.09,0.92-2.23,0.03-3.24-0.07c-0.36,0.6-0.63,1.13-0.97,1.61c-0.5,0.73-1.12,1.39-1.55,2.16
		c-0.97,1.77-1.74,3.66-3.35,5c-0.12,0.1-0.13,0.43-0.08,0.62C149.67,181.48,149.96,182.4,150.29,183.51z M247.3,136.95
		c-1.02-3.38-2.04-6.71-3.02-10.06c-0.83-2.83-1.43-5.74-2.43-8.5c-1.38-3.81-2.98-7.53-4.59-11.25c-1.14-2.63-2.35-5.25-4.17-7.5
		c-1.4-1.74-2.72-3.62-4.42-5.02c-2.28-1.87-4.84-3.44-7.39-4.94c-1.41-0.83-3.05-1.25-4.59-1.86c-0.08,0.13-0.16,0.26-0.24,0.39
		c0.38,0.34,0.71,0.81,1.16,0.99c2,0.78,3.87,1.72,5.66,2.94c2.7,1.83,4.82,4.2,6.87,6.64c1.31,1.56,2.44,3.3,3.49,5.06
		c1.42,2.38,2.89,4.77,3.98,7.31c2.45,5.69,3.78,11.74,5.43,17.69c0.81,2.91,1.72,5.78,3.37,8.32
		C246.77,137.07,247.06,137,247.3,136.95z M214.17,77.32c0.32,1,0.49,1.65,0.74,2.27c0.09,0.23,0.41,0.55,0.59,0.53
		c2.05-0.22,3.79,0.71,5.64,1.34c3.9,1.32,7.44,3.27,10.66,5.76c1.98,1.53,3.96,3.16,5.59,5.05c3.57,4.14,6.13,8.97,8.76,13.74
		c0.86,1.57,1.84,3.08,2.76,4.61c0.41-0.68,0.58-1.26,0.7-1.85c0.04-0.2-0.02-0.49-0.15-0.62c-0.8-0.85-1.64-1.65-2.45-2.49
		c-1.73-1.78-2.98-3.85-3.55-6.28c-0.48-2.04-1.3-3.93-2.33-5.73c-1.41-2.47-3.51-4.33-5.58-6.21c-1.11-1.01-2.26-2-3.5-2.84
		c-3.7-2.5-7.67-4.53-11.92-5.92C218.26,78.07,216.29,77.79,214.17,77.32z M143.51,147.8c4.01-14.88,10.73-28.22,21.64-39.3
		c-0.74,0.42-1.5,0.82-2.1,1.38c-0.69,0.64-1.21,1.45-1.86,2.14c-2.65,2.81-5.32,5.61-7.98,8.42c-0.1,0.11-0.16,0.26-0.24,0.39
		c-3.51,5.5-6.72,11.17-9.07,17.27c-1.1,2.85-2.02,5.77-3.03,8.67C141.93,147.18,142.78,147.51,143.51,147.8z M197.48,94.43
		c-0.07-3.11-1.62-4.96-4.91-5.02c-0.98-0.02-1.98,0.27-2.92,0.12c-0.95-0.15-1.39,0.31-1.89,0.9c-1.52,1.79-2.22,3.85-1.96,6.2
		c0.29,2.66,1.49,5.43,5.16,4.82c1.56-0.26,3.12-0.48,4.36-1.63C196.91,98.35,197.34,96.45,197.48,94.43z M201.57,72.95
		c0.1-1.04-0.1-2.02-0.85-2.73c-1.32-1.24-2.8-2.29-4.63-2.64c-1.02-0.19-2.06-0.51-3.08,0.23c-3.04,2.2-4.51,6-2.07,9.9
		c0.63,1,1.49,1.48,2.58,1.68c0.27,0.05,0.54,0.15,0.81,0.15c1.14,0,2.28,0.29,3.43-0.24C200.49,78.03,201.42,75.74,201.57,72.95z
		 M107.26,244.18c-0.1-0.98-0.13-2.49-0.43-3.95c-0.2-0.98-0.71-1.92-1.22-2.8c-0.43-0.74-1.18-0.77-1.96-0.42
		c-1.99,0.88-3.23,2.61-4.73,4.05c-0.38,0.37-0.63,0.82-0.4,1.46c0.39,1.05,0.52,2.22,1.03,3.2c0.33,0.64,1.07,1.3,1.74,1.46
		c1.06,0.26,2.23,0.17,3.34,0.11C106.5,247.2,107.26,246.4,107.26,244.18z M114.51,238.63c-0.13-2.57-0.46-4.89-1.33-6.02
		c-0.83-1.07-1.43-1.24-2.64-0.61c-1.55,0.81-2.59,2.1-3.56,3.49c-0.32,0.45-0.3,0.68,0.06,1.08c0.81,0.89,1.43,1.88,1.53,3.16
		c0.12,1.43,0.34,2.85,0.55,4.26c0.03,0.19,0.2,0.42,0.36,0.51c1.29,0.71,4.43-0.91,4.6-2.23
		C114.26,240.94,114.4,239.6,114.51,238.63z M213.59,76.09c10.3,0.76,18.52,5.49,25.68,12.42c-6.85-11.73-16.87-15.2-26.93-14.74
		C212.81,74.65,213.25,75.46,213.59,76.09z M252.58,118.8c0.34-1.7,0.38-2.99-1.53-4c-2.36-1.25-3.84-3.57-5.18-5.86
		c-2.02-3.45-3.9-6.99-5.97-10.41c-1.17-1.93-2.45-3.84-3.94-5.52c-3.75-4.2-8.37-7.22-13.52-9.46c-1.31-0.57-2.62-1.15-3.98-1.6
		c-0.95-0.31-1.97-0.4-3.1-0.62c0.12,0.44,0.22,0.64,0.22,0.84c-0.03,1.02,0.56,1.2,1.41,1.12c0.35-0.03,0.73,0.06,1.07,0.18
		c1.39,0.53,2.8,1.03,4.13,1.67c2.56,1.24,5.26,2.29,7.55,3.92c3.48,2.48,6.47,5.58,8.88,9.15c1.61,2.38,3.31,4.73,4.61,7.28
		c1.82,3.57,3.49,7.2,5.86,10.46C249.99,117.24,251.16,118.18,252.58,118.8z M153.04,162.1c0.42,0,0.97-0.09,1.49,0.03
		c0.51,0.11,0.68,0,0.72-0.49c0.02-0.27,0.12-0.53,0.17-0.8c0.56-2.86,0.95-5.77,1.71-8.58c1.74-6.42,3.68-12.79,5.52-19.19
		c0.49-1.71,0.91-3.45,1.37-5.17C158.13,138.61,154.61,150.07,153.04,162.1z M225.6,159.77c0.08,0.02,0.15,0.03,0.23,0.05
		c0.18-1.17,0.46-2.33,0.53-3.51c0.13-2.49,0.09-4.98,0.22-7.47c0.19-3.69-0.62-7.22-1.66-10.71c-2.19-7.33-4.93-14.47-7.78-21.57
		c-0.44-1.1-0.91-2.2-1.36-3.3c0.03,0.67,0.22,1.27,0.45,1.86c1.33,3.44,2.61,6.88,3.14,10.56c0.07,0.5,0.11,1.03,0.3,1.49
		c0.33,0.8,0.89,1.52,1.12,2.33c0.74,2.57,1.5,5.14,2.03,7.75c0.57,2.8,0.92,5.64,1.32,8.48c0.22,1.51,0.36,3.04,0.53,4.55
		c0.2,1.76,0.41,3.51,0.58,5.28C225.4,156.96,225.49,158.36,225.6,159.77z M191.27,188.68c1.03-3.72,2.14-7.36,3.04-11.05
		c1.31-5.31,2.49-10.65,3.68-15.99c0.41-1.84,0.69-3.71,0.97-5.58c0.27-1.78,0.48-3.57,0.67-5.36c0.14-1.28,0.19-2.57,0.27-3.71
		c-2.98,13.73-6.16,27.52-10.83,40.92C189.78,188.16,190.5,188.41,191.27,188.68z M155.6,236.22c-0.37-1.66-0.67-3.34-1.11-4.98
		c-0.5-1.83-1.11-3.62-2.53-4.99c-0.19-0.18-0.43-0.44-0.65-0.45c-1.66-0.06-3.52,2.71-2.96,4.31c0.46,1.32,1.03,2.63,1.24,4
		c0.3,1.97,1.43,3.33,2.78,4.59c0.26,0.24,0.8,0.4,1.13,0.32C154.49,238.76,155.43,237.31,155.6,236.22z M187.68,250.37
		c-1.74-0.08-2.54,1.29-3.68,2.04c-0.07,0.04-0.03,0.23-0.05,0.35c-0.46,2.2-0.87,4.41-1.4,6.59c-0.14,0.58-0.06,0.99,0.24,1.42
		c0.31,0.45,0.64,0.9,0.96,1.35c0.92,1.28,2.36,1.24,3.13-0.11c0.33-0.58,0.66-1.18,0.87-1.81c0.93-2.88,2.11-5.72,1.07-8.85
		C188.57,250.63,188.31,250.26,187.68,250.37z M175.73,256.86c0.09,0.99,0.1,1.98,0.28,2.93c0.12,0.65,0.29,1.46,0.74,1.84
		c0.8,0.69,2.7,0.31,3.24-0.82c1.42-2.99,2.36-6.08,2.11-9.44c-0.06-0.84-0.75-1.51-1.54-1.54c-1.81-0.06-4.42,2.33-4.58,4.19
		C175.9,254.98,175.82,255.92,175.73,256.86z M53.01,178.66c8.35-4.81,17.22-7.92,26.41-10.38c-0.38-0.56-0.87-1.16-1.22-1.83
		c-0.45-0.88-0.98-0.98-1.89-0.64c-7.32,2.72-14.27,6.2-20.95,10.23c-1,0.61-1.99,1.25-3.01,1.89
		C52.61,178.23,52.8,178.43,53.01,178.66z M210.83,203.67c-0.21,0.33-0.4,0.6-0.55,0.9c-0.88,1.74-1.72,3.49-2.63,5.21
		c-0.73,1.39-0.76,1.37,0.31,2.48c0.17,0.18,0.33,0.37,0.47,0.57c1.02,1.44,2.03,2.88,3.04,4.31
		C214.74,213.86,216.33,208.51,210.83,203.67z M240.32,125c0.06-0.01,0.11-0.03,0.17-0.04c-0.2-0.79-0.35-1.59-0.59-2.36
		c-1.28-3.99-2.41-8.04-3.95-11.93c-0.98-2.47-2.59-4.7-3.93-7.03c-1.97-3.41-4.55-6.33-7.49-8.9c-2.25-1.97-4.76-3.58-7.77-4.34
		c0.01,0.68,0.13,1.18,0.86,1.52c1.05,0.48,2.21,0.93,3,1.72c2.9,2.89,5.89,5.73,8.4,8.95c2.39,3.07,4.34,6.52,6.25,9.93
		c1.32,2.35,2.33,4.9,3.35,7.4C239.3,121.56,239.76,123.3,240.32,125z M202.29,208.97c1.19-2.65,2.37-5.29,3.63-8.09
		c-0.59-0.05-1.06-0.15-1.52-0.11c-0.82,0.07-1.66,0.13-2.44,0.35c-1.77,0.52-3.51,1.13-5.25,1.72c-0.2,0.07-0.42,0.29-0.48,0.48
		c-0.35,1.09-0.6,2.21-0.99,3.29c-0.26,0.71-0.08,0.87,0.62,1C197.97,208.01,200.07,208.5,202.29,208.97z M146.88,240.52
		c1.18-0.43,1.45-1.3,1.34-2.38c-0.14-1.36-0.04-2.8-0.44-4.07c-0.7-2.19-0.83-4.76-3.27-6.05c-0.64-0.34-1.26-0.45-1.71,0.13
		c-0.51,0.67-0.98,1.41-1.26,2.2c-0.18,0.51-0.07,1.18,0.1,1.73c0.25,0.83,0.64,1.63,1.02,2.42c0.66,1.4,1.28,2.83,2.04,4.18
		C145.18,239.55,145.89,240.31,146.88,240.52z M160.14,165.36c0.1,0.01,0.2,0.02,0.3,0.03c0.86-3.1,1.78-6.18,2.57-9.3
		c1.77-6.99,3.49-13.99,5.19-20.99c1.75-7.18,4.37-14.03,7.9-20.52c1.35-2.49,2.79-4.94,4.23-7.49c-0.33-0.23-0.62-0.43-0.91-0.62
		c-0.2,0.33-0.34,0.57-0.47,0.81c-1.86,3.41-3.94,6.73-5.52,10.27c-3.05,6.85-5.19,14.04-7.06,21.29
		c-1.83,7.09-3.49,14.23-5.19,21.35C160.77,161.9,160.48,163.64,160.14,165.36z M161.57,233.36c-0.45-2.41-1.01-5.13-2.62-7.47
		c-0.45-0.65-1.22-1.09-1.86-1.61c-0.08-0.06-0.24-0.02-0.36-0.02c-1.15,0.04-2.15,1.82-1.68,2.86c1.11,2.44,2.08,4.93,2.24,7.65
		c0.07,1.29,0.64,2.29,1.85,2.81c0.27,0.11,0.77,0.02,1-0.17C161.28,236.45,161.5,235.1,161.57,233.36z M139.95,118.01
		c0.85-0.43,1.59-0.83,2.36-1.19c4.87-2.3,9.67-4.71,13.69-8.41c2.86-2.63,6.17-4.54,9.84-5.87c-0.8,0.03-1.62,0.04-2.4,0.2
		c-2.7,0.56-5.32,1.35-7.52,3.11c-1.75,1.4-3.39,2.93-5.21,4.24c-2.57,1.85-5.04,3.91-8.12,4.93c-1.03,0.34-2.07,0.65-3.16,1
		C139.6,116.68,139.76,117.29,139.95,118.01z M130.83,172.05c-4.25,0.27-8.64,7.38-6.94,11c1.75-2.04,4.38-2.08,6.66-3.09
		C130.63,177.44,130.73,174.77,130.83,172.05z M208.85,68.87c-0.05,0.11-0.09,0.22-0.14,0.33c0.18,0.25,0.32,0.53,0.53,0.75
		c0.61,0.65,1.36,1.21,1.84,1.94c0.43,0.66,0.84,0.62,1.51,0.58c1.87-0.11,3.83-0.4,5.62-0.01c3.28,0.72,6.51,1.74,9.67,2.89
		c3.17,1.15,5.76,3.21,7.86,5.87c0.65,0.82,1.32,1.62,1.98,2.42c-1.38-2.84-3.62-4.91-5.98-6.86c-2.79-2.32-6.11-3.76-9.4-5.13
		c-2.5-1.05-5.21-1.65-7.88-2.22C212.63,69.04,210.72,69.05,208.85,68.87z M168,182.36c1.28-12.11,2.55-24.17,3.83-36.23
		c-2.71,11.92-4.79,23.92-4.95,36.23C167.35,182.36,167.74,182.36,168,182.36z M138.44,122.75c6.53-3.39,13.14-6.43,18.97-10.83
		c-1.12,0.11-2.18,0.33-3.25,0.55c-0.58,0.13-1.22,0.17-1.73,0.44c-1.32,0.69-2.56,1.54-3.89,2.23c-2.94,1.53-5.92,2.99-8.88,4.51
		c-0.58,0.3-1.37,0.62-1.57,1.12C137.89,121.29,138.29,122.05,138.44,122.75z M166.55,149.49c-0.02,0.01-0.04,0.01-0.06,0.02
		c-2.66,9.49-5.32,18.98-7.99,28.51c0.52,0.2,0.96,0.37,1.44,0.56c0.11-0.23,0.23-0.41,0.28-0.61c0.45-1.67,0.81-3.37,1.35-5.01
		c0.55-1.69,0.57-3.64,2.14-4.9c0.07-0.06,0.04-0.23,0.06-0.35c0.12-0.81,0.23-1.63,0.37-2.44c0.65-3.71,1.34-7.42,1.94-11.13
		C166.33,152.6,166.4,151.04,166.55,149.49z M42.85,124.61c1.17,1.4,2.32,2.77,3.57,4.27c0.68-1.3,2.02-1.67,2.32-3.17
		c0.58-2.84,1.77-5.5,3.39-7.94c0.03-0.04,0.03-0.1,0.05-0.19c-0.19-0.16-0.39-0.34-0.63-0.54
		C48.67,119.53,45.82,122.01,42.85,124.61z M202.26,216.61c2.42-4.53,4.82-9.02,7.2-13.52c0.09-0.18,0.03-0.61-0.1-0.7
		c-0.7-0.45-1.44-0.82-2.07-1.16c-1.42,3.14-2.75,6.11-4.11,9.07c-0.59,1.28-1.3,2.5-1.84,3.8
		C200.84,215.31,201.11,216.1,202.26,216.61z M136.79,143.45c1.56-6.84,5.18-12.54,9.54-17.86c-0.49,0.27-0.92,0.57-1.26,0.95
		c-2.11,2.28-4.23,4.54-6.29,6.87c-0.85,0.96-1.66,1.98-2.29,3.08c-0.77,1.34-1.36,2.78-1.98,4.21c-0.24,0.56-0.33,1.19-0.49,1.75
		C135.05,142.81,135.9,143.13,136.79,143.45z M81.43,203.8c-1.21,0.52-2.34,1.01-3.42,1.48c3.05,3.29,6.04,6.41,6.5,11
		c1.12,0.03,1.71-0.36,1.8-1.25c0.06-0.57,0-1.17-0.12-1.73C85.44,209.79,83.16,207.05,81.43,203.8z M170.75,255.58
		c0.29,1.71,0.51,3.24,0.82,4.76c0.18,0.9,0.94,1.35,1.68,1.15c0.52-0.14,1.27-1.41,1.18-1.94c-0.06-0.36-0.12-0.73-0.1-1.09
		c0.11-2.11,0.24-4.22,0.37-6.32c0.05-0.82-0.24-1.46-1.05-1.73c-0.73-0.24-1.7,0.26-1.96,1.13
		C171.29,252.89,171.05,254.29,170.75,255.58z M131.96,172.05c0.04,0.67,0.1,1.22,0.11,1.76c0.01,1.45,0.01,2.9,0,4.35
		c-0.02,2.48,0.62,4.67,2.67,6.26c0.23,0.18,0.53,0.28,0.8,0.41c0.07-0.35,0.24-0.72,0.18-1.05c-0.2-1.1-0.57-2.18-0.71-3.29
		c-0.32-2.5-0.33-4.99,0.79-7.41C134.69,172.15,133.38,171.94,131.96,172.05z M225.59,177.36c0.92-1.17,1.81-2.3,2.7-3.44
		c0.81-1.04,1.54-2.15,2.45-3.09c0.43-0.45,0.63-0.81,0.65-1.41c0.04-1.38,0.18-2.76,0.2-4.14c0.04-2.19,0.01-4.38,0.01-6.57
		c-0.11-0.02-0.22-0.05-0.32-0.07c0.53,6.97-3.04,12.21-7.13,17.15C224.69,176.38,225.13,176.85,225.59,177.36z M165.6,231.59
		c-0.09-0.02-0.18-0.04-0.26-0.06c0.06-3.45-1.21-6.39-3.41-8.96c-0.13-0.15-0.45-0.35-0.5-0.31c-0.47,0.42-0.97,0.83-1.3,1.35
		c-0.18,0.28-0.19,0.88-0.01,1.14c1.81,2.52,2.52,5.43,3.08,8.4c0.05,0.26,0.21,0.66,0.39,0.7c0.28,0.06,0.75-0.03,0.89-0.23
		C164.92,232.99,165.24,232.27,165.6,231.59z M47.56,108.52c-3.11,0.6-6.12,1.19-9.27,1.8c0.23,1.38,0.45,2.76,0.68,4.15
		c2.93-1.22,5.8-2.4,8.65-3.62c0.18-0.08,0.36-0.44,0.33-0.64C47.88,109.65,47.7,109.1,47.56,108.52z M73.36,213.05
		c0.58,0.5,1.31,1.13,2.06,1.77c1.74-1.36,3.46-2.7,5.21-4.07c-1.17-1.51-2.3-2.97-3.55-4.59
		C75.79,208.55,74.59,210.78,73.36,213.05z M41.69,87.66c2.98,1.22,5.87,2.41,8.81,3.62c0.38-0.78,0.77-1.57,1.17-2.38
		c-2.8-1.47-5.58-2.92-8.4-4.39c-0.42,0.81-0.81,1.54-1.19,2.28C41.94,87.07,41.83,87.36,41.69,87.66z M104.77,110.23
		c-3.73,8.35-5.54,17.15-7.65,25.87c2.47-8.59,5.14-17.09,9.73-24.87C106.1,110.87,105.53,110.6,104.77,110.23z M39.84,92.95
		c3.13,0.76,6.16,1.49,9.17,2.22c0.26-0.74,0.51-1.46,0.73-2.06c-2.89-1.29-5.77-2.58-8.73-3.91
		C40.64,90.38,40.25,91.65,39.84,92.95z M150.61,174.7c0-0.25,0.01-0.31,0-0.37c-0.03-0.12-0.08-0.23-0.12-0.34
		c-0.62-1.66-1.98-2.46-3.5-3.11c-0.56-0.24-0.98-0.13-1.43,0.22c-1.82,1.42-2.53,4.12-1.49,6.54c0.6,1.39,2.32,2.05,3.56,1.19
		c1.23-0.85,2.26-1.97,2.8-3.44C150.52,175.12,150.58,174.82,150.61,174.7z M169.67,103.49c-5.9,0.28-10.21,3.4-14.41,7.27
		C161.02,109.94,165.32,106.81,169.67,103.49z M48.46,97.1c-3.06-0.8-6.06-1.58-9.11-2.38c-0.24,1.24-0.46,2.36-0.68,3.53
		c2.64,0.33,5.18,0.65,7.72,0.97c1.37,0.17,1.43,0.12,1.82-1.23C48.29,97.7,48.38,97.4,48.46,97.1z M43.98,83.14
		c2.86,1.46,5.6,2.86,8.38,4.28c0.41-0.73,0.78-1.38,1.1-1.95c-2.54-1.8-5.03-3.56-7.55-5.35C45.33,81.03,44.68,82.06,43.98,83.14z
		 M188.71,262.65c-0.04-0.04,0.11,0.11,0.24,0.28c0.62,0.8,0.93,0.84,1.67,0.15c0.24-0.23,0.5-0.48,0.64-0.77
		c0.67-1.42,1.53-2.81,1.87-4.31c0.29-1.29,0-2.71-0.12-4.07c-0.06-0.71-0.75-0.91-1.29-0.9c-0.62,0.01-0.82,0.52-0.74,1.13
		c0.03,0.21,0.02,0.44-0.04,0.64C190.22,257.35,189.49,259.91,188.71,262.65z M74.81,109.49c-1.36,0.25-2.66,0.45-3.92,0.76
		c-0.28,0.07-0.6,0.51-0.66,0.82c-0.59,2.89-1.17,5.78-1.66,8.69c-0.2,1.21-0.16,2.45-0.23,3.68
		C69.85,118.54,72.01,113.97,74.81,109.49z M38.31,100.01c-0.13,1.26-0.25,2.55-0.37,3.75c3.12-0.13,6.09-0.26,9.08-0.39
		c0.08-0.7,0.15-1.41,0.23-2.08C44.24,100.86,41.35,100.45,38.31,100.01z M177.45,188.48c0.74-3.18,1.48-6.28,2.19-9.39
		c0.1-0.42,0.12-0.88,0.05-1.31c-0.41-2.39-0.86-4.78-1.31-7.17c-0.02-0.11-0.15-0.21-0.36-0.48c-0.48,6.23-0.94,12.27-1.41,18.34
		C176.98,188.48,177.26,188.48,177.45,188.48z M53.92,71.63c2.05,1.98,3.98,3.86,5.95,5.76c0.62-0.45,1.28-0.94,1.91-1.41
		c-1.44-2.2-2.88-4.38-4.36-6.63C56.32,70.07,55.21,70.8,53.92,71.63z M46.96,78.6c2.6,1.84,5.05,3.58,7.55,5.35
		c0.53-0.72,0.99-1.36,1.41-1.93c-2.25-1.96-4.46-3.89-6.75-5.88C48.42,76.98,47.71,77.77,46.96,78.6z M50.21,74.99
		c2.29,1.94,4.5,3.81,6.73,5.7c0.44-0.52,1.03-1.22,1.59-1.88c-1.98-2.05-3.9-4.03-5.84-6.04C51.9,73.48,51.06,74.24,50.21,74.99z
		 M40.13,118.71c3.14-1.65,6.15-3.23,9.15-4.81c-0.27-0.6-0.5-1.12-0.73-1.65c-0.17,0.05-0.28,0.07-0.39,0.11
		c-2.83,1.02-5.66,2.04-8.47,3.09c-0.19,0.07-0.43,0.47-0.38,0.65C39.52,116.96,39.83,117.78,40.13,118.71z M38.19,108.89
		c3.09-0.75,6.15-1.5,9.19-2.24c-0.08-0.57-0.15-1.01-0.22-1.52c-3.07,0-6.1,0-9.23,0C38.01,106.35,38.1,107.6,38.19,108.89z
		 M147.78,126.37c-3.92,4.24-6.93,9.03-8.78,14.41c0.67,0.25,1.32,0.5,2.02,0.76C142.74,136.34,145.06,131.27,147.78,126.37z
		 M65.6,201.42c1.17,0.98,1.89,2.1,1.63,3.57c-0.31,1.76-0.56,3.58-2.32,4.63c-0.13,0.08-0.29,0.37-0.24,0.47
		c0.31,0.61,0.61,1.24,1.05,1.76c0.16,0.2,0.86,0.27,0.99,0.12c0.73-0.83,1.65-1.67,1.95-2.67c0.37-1.22,0.31-2.61,0.22-3.92
		c-0.06-0.98-0.36-1.97-0.73-2.89C67.69,201.37,66.61,200.94,65.6,201.42z M209.35,221.42c0.11,0.14,0.23,0.28,0.34,0.42
		c1.13-0.48,2.3-0.88,3.36-1.48c0.64-0.36,1.22-0.93,1.64-1.54c2.06-3.03,2.37-6.44,2.04-9.97c-0.03-0.3-0.17-0.58-0.26-0.87
		c-0.11,0.01-0.23,0.01-0.34,0.02c-0.17,1.15-0.33,2.3-0.5,3.44c-0.13,0.87-0.14,1.78-0.43,2.6c-0.81,2.34-2.11,4.3-4.39,5.56
		C210.18,219.93,209.83,220.79,209.35,221.42z M50.06,115.32c-3.13,1.58-6.25,3.16-9.42,4.77c0.5,1.03,0.99,2.04,1.55,3.18
		c2.82-2.47,5.57-4.87,8.33-7.29C50.38,115.78,50.23,115.56,50.06,115.32z M243.32,137.9c0.23,1.81,0.54,3.4,0.62,5.01
		c0.07,1.51,0.75,2.61,1.82,3.57c0.39,0.35,0.81,0.67,1.15,1.06c1.04,1.2,1.19,1.22,2.23,0.35
		C247.23,144.62,245.34,141.38,243.32,137.9z M63.09,66.63c1.18,2.03,2.33,4.01,3.5,6.03c0.72-0.42,1.44-0.85,2.19-1.3
		c-0.9-2-1.77-3.92-2.65-5.87C65.11,65.88,64.09,66.26,63.09,66.63z M112.9,230.12c0.4,0.35,0.86,0.66,1.19,1.07
		c2.27,2.84,2.14,6.19,1.98,9.54c-0.02,0.45-0.08,0.91-0.12,1.36c0.12,0.03,0.24,0.06,0.36,0.09c0.38-0.84,0.98-1.65,1.09-2.52
		c0.18-1.44,0.1-2.92,0.03-4.39c-0.07-1.34-0.35-2.65-1.03-3.85C115.65,230.1,114.22,229.55,112.9,230.12z M63.44,74.82
		c0.44-0.32,1.03-0.74,1.47-1.07c-1.14-2.19-2.22-4.29-3.37-6.5c-0.98,0.46-1.99,0.93-2.76,1.3C60.33,70.64,61.85,72.69,63.44,74.82
		z M150.49,224.03c-0.69-2.47-1.35-4.87-2.01-7.26c-0.18-0.66-0.18-1.65-0.59-1.88c-0.45-0.25-1.3,0.2-1.97,0.36
		c-0.05,0.01-0.08,0.08-0.14,0.15c1.14,3.06,2.28,6.14,3.42,9.22C149.69,224.38,150.14,224.18,150.49,224.03z M221.82,169.87
		c3.26-3.84,3.54-9.52,2.17-14.15C223.31,160.15,222.55,165.11,221.82,169.87z M90.83,211.96c-0.2-3.91-1.35-7.22-3.48-10.34
		c-0.18,0.77-0.27,1.42-0.48,2.04c-0.2,0.6-0.12,1.06,0.19,1.62c0.62,1.12,1.34,2.26,1.58,3.48
		C88.91,210.15,89.74,210.92,90.83,211.96z M250.91,128.99c-2.03-1.75-3.95-3.41-5.79-5.01c0.36,1.33,0.82,2.81,1.13,4.32
		c0.2,0.96,0.71,1.5,1.59,1.75c0.76,0.21,1.52,0.39,2.32,0.6C250.46,129.99,250.72,129.41,250.91,128.99z M68.13,214.5
		c0.54,2.46,1.88,4.34,3.7,5.85c1.3,1.09,2.64,1.22,3.7,0.6c-0.35-0.47-0.66-0.97-1.06-1.39c-0.27-0.29-0.66-0.48-1.02-0.67
		c-0.44-0.24-0.99-0.34-1.36-0.65c-1.12-0.94-1.93-2.11-2.15-3.56C69.34,214.62,68.8,214.57,68.13,214.5z M145.18,182.18
		c1.72,2.6,1.76,5.3,0.63,8.12c0.25-0.05,0.42-0.08,0.59-0.11c0.17-0.03,0.33-0.07,0.24-0.05c1.65-3.06,2.43-6.04,0.98-9.34
		C146.75,181.29,146,181.72,145.18,182.18z M112.36,65.5c-0.62,0.26-1.24,0.45-1.78,0.77c-0.25,0.15-0.51,0.58-0.47,0.84
		c0.17,1.14,0.44,2.26,0.68,3.38c0.1,0.46,0.34,0.72,0.84,0.53c0.96-0.37,1.91-0.75,2.91-1.15C113.8,68.39,113.08,66.96,112.36,65.5
		z M67.67,65.12c0.6,1.28,1.22,2.55,1.78,3.85c0.24,0.56,0.37,1.18,0.57,1.82c0.84-0.37,1.53-0.67,2.17-0.95
		c-0.53-1.77-1.04-3.48-1.59-5.31C69.57,64.73,68.5,64.95,67.67,65.12z M147.06,227.51c0.27-0.5,0.54-0.98,0.77-1.48
		c0.07-0.16,0.09-0.39,0.03-0.55c-0.49-1.4-1-2.79-1.52-4.18c-0.68-1.82-1.37-3.64-2.06-5.46c-0.15,0.2-0.17,0.35-0.15,0.5
		c0.42,2.61,0.94,5.2,1.24,7.82C145.54,225.54,145.46,226.9,147.06,227.51z M80.38,68.21c-0.08-1.58-0.15-3.15-0.23-4.8
		c-1.14,0.07-2.2,0.14-3.33,0.21c0.35,1.73,0.67,3.36,0.99,4.98C78.58,68.48,79.42,68.35,80.38,68.21z M202.2,178.59
		c2.83-4.24,5.01-20.1,4.57-23.97C205.73,162.76,204.43,170.63,202.2,178.59z M98.4,231.23c2.7,0.93,5.29,1.81,7.89,2.7
		c0.46-0.58,0.98-1.23,1.43-1.8c-2.79-0.63-5.58-1.25-8.36-1.87c0-0.09,0-0.18,0-0.28C99.07,230.36,98.78,230.74,98.4,231.23z
		 M155.96,132.23c-0.03-0.02-0.07-0.04-0.1-0.07c-0.13,0.24-0.26,0.48-0.37,0.73c-2.26,4.76-4.17,9.65-5.6,14.72
		c-0.22,0.78-0.24,1.32,0.52,1.47C152.26,143.44,154.11,137.83,155.96,132.23z M100.25,229.34c0.56,0.05,1.08,0.05,1.58,0.14
		c2.36,0.41,4.72,0.86,7.08,1.27c1.14,0.2,1.41-0.08,1.27-1.16c-2.35-0.44-4.73-0.71-6.99-1.38c-1.35-0.4-2.16-0.19-2.9,0.88
		C100.29,229.11,100.29,229.15,100.25,229.34z M192.11,247.31c0.66-0.65,0.74-1.36,0.15-2.17c-0.25-0.34-0.4-0.76-0.58-1.15
		c-0.51-1.11-1.25-2.02-2.28-2.69c-0.41-0.27-0.7-0.31-0.87,0.27c-0.22,0.75-0.49,1.48-0.63,1.9
		C189.4,244.85,190.74,246.06,192.11,247.31z M145.86,213.64c-0.39-1.32-0.83-2.64-1.15-3.98c-0.15-0.61-0.4-0.72-0.88-0.48
		c-0.67,0.34-1.31,0.72-1.84,1.01c0.45,1.56,0.85,2.97,1.26,4.37C144.13,214.25,145.01,213.94,145.86,213.64z M191.05,207.59
		c-0.53,0.26-0.88,0.58-1.22,0.56c-0.59-0.03-0.69,0.23-0.7,0.7c-0.05,2.53,0.46,4.94,1.58,7.25c0.41-0.22,0.79-0.42,1.14-0.61
		c-0.67-2.12-1.15-4.21-0.71-6.42C191.23,208.64,191.1,208.17,191.05,207.59z M153.81,225.27c0.82-0.79,0.41-1.53,0-2.39
		c-1.35-2.85-2.59-5.75-3.89-8.67c0.02-0.01-0.2,0.07-0.42,0.15c0.8,2.69,1.67,5.31,2.32,7.99
		C152.15,223.66,152.83,224.56,153.81,225.27z M133.96,136.66c3.22-3.71,6.43-7.42,9.65-11.12c-0.04-0.04-0.07-0.09-0.11-0.13
		c-3.54,3.35-7.08,6.7-10.62,10.05C133.24,135.87,133.61,136.27,133.96,136.66z M75.83,68.94c-0.24-1.7-0.47-3.38-0.72-5.16
		c-0.95,0.16-1.89,0.31-2.94,0.48c0.59,1.56,1.13,3.05,1.73,4.51c0.09,0.21,0.49,0.41,0.76,0.41
		C75.06,69.19,75.48,69.02,75.83,68.94z M101.6,66.46c-1.08-0.16-2.22-0.32-3.48-0.51c0,1.26,0,2.44,0,3.7
		c1.14,0.21,2.31,0.43,3.23,0.6C101.44,69,101.52,67.77,101.6,66.46z M88.74,68.65c0-1.41,0-2.77,0-4.2c-0.89-0.1-1.78-0.2-2.75-0.3
		c-0.09,1.49-0.18,2.87-0.27,4.27C86.66,68.49,87.65,68.56,88.74,68.65z M143.95,226.03c-0.43-3.14-0.85-6.22-1.27-9.35
		c-1.3,0.74-1.48,1.16-1.17,2.45c0.15,0.62,0.28,1.25,0.39,1.88c0.3,1.76,0.57,3.52,0.86,5.28
		C143.14,226.2,143.5,226.13,143.95,226.03z M130.2,198.52c-0.35-0.69-0.65-1.29-0.96-1.88c-0.58-1.14-1.16-2.27-1.76-3.4
		c-0.09-0.17-0.25-0.4-0.41-0.44c-1.09-0.27-2.19-0.5-3.19-0.72c1.8,2.16,3.72,4.46,5.66,6.79
		C129.77,198.75,129.97,198.64,130.2,198.52z M115.32,63.28c1.58,0.89,2.25,2.57,3.57,3.69c0.6-0.62,1.22-1.27,1.72-1.79
		c-1.39-1.12-2.78-2.23-4.18-3.36C116.06,62.31,115.66,62.84,115.32,63.28z M84.52,68.03c0.03-0.68,0.1-1.39,0.09-2.1
		c-0.01-0.68-0.11-1.36-0.17-2.07c-0.83-0.07-1.76-0.15-2.67-0.24c0.19,1.62,0.36,3.13,0.54,4.66
		C83.03,68.2,83.69,68.13,84.52,68.03z M190.6,199.85c1.01,1.11,2.66,0.69,3.08-0.77c0.27-0.96,0.53-1.94,0.63-2.93
		c0.11-1.09,0.13-2.19-0.58-3.18c-0.36-0.5-0.7-0.46-1.04-0.15c-0.1,0.1,0.05,0.51,0.13,0.76c0.17,0.5,0.53,0.98,0.55,1.48
		C193.47,197.19,192.29,198.64,190.6,199.85z M124.1,54.49c-0.52-0.11-0.94-0.19-1.36-0.29c-0.62-0.15-1.23-0.33-1.86-0.47
		c-1.25-0.29-1.73,0.28-1.73,2c1.65,0.32,3.28,0.63,4.94,0.95C124.1,55.96,124.1,55.23,124.1,54.49z M150.49,212.41
		c1.12-0.08,2.33-0.16,3.66-0.26c-0.23-0.5-0.32-1.17-0.69-1.41c-1.07-0.69-2.23-1.24-3.38-1.79c-0.37-0.18-0.81-0.2-1.19-0.28
		C149.43,209.95,149.93,211.11,150.49,212.41z M173.44,239.66c0.19,1.13,0.55,1.33,1.69,0.92c1.37-0.5,3.46-3.08,3.06-5.3
		c-0.06-0.33-0.4-0.62-0.72-1.1C176.87,236.8,175.91,238.78,173.44,239.66z M179.76,243.49c0.84-0.11,1.62-0.24,2.4-0.32
		c0.72-0.07,1.66,0.18,2.1-0.19c0.44-0.37,0.39-1.34,0.55-2.04c0.01-0.04-0.03-0.09-0.11-0.33c-1.19,0.25-2.4,0.45-3.59,0.76
		C179.57,241.77,179.58,241.81,179.76,243.49z M151.53,213.97c1.35,3.08,2.67,6.08,4.02,9.16c0.23-0.1,0.52-0.23,0.74-0.33
		c-1.18-3.08-2.33-6.07-3.49-9.09C152.43,213.79,152.01,213.88,151.53,213.97z M90.64,68.81c0.73,0.08,1.43,0.16,2.12,0.24
		c0.16-1.39,0.3-2.63,0.45-3.97c-0.88-0.13-1.8-0.26-2.79-0.41C90.5,66.07,90.57,67.38,90.64,68.81z M154.9,214.43
		c0,0.21-0.03,0.31,0,0.39c1.05,2.6,2.1,5.19,3.16,7.79c0.14,0.34,0.31,0.67,0.47,1.01c0.09-0.14,0.18-0.27,0.27-0.41
		c0.33-0.63,0.66-1.25,0.9-1.71C158.08,219.12,156.52,216.83,154.9,214.43z M96.72,233.42c1.71,0.87,3.3,1.7,4.91,2.5
		c0.2,0.1,0.53,0.12,0.73,0.03c0.68-0.31,1.33-0.69,1.77-0.92c-2.12-0.78-4.39-1.62-6.75-2.49
		C97.21,232.75,96.96,233.09,96.72,233.42z M125.73,190.59c-0.43-1.07-0.84-2.15-1.29-3.2c-0.08-0.18-0.34-0.3-0.54-0.41
		c-0.4-0.22-0.89-0.34-1.2-0.64c-0.72-0.68-1.36-1.45-2.11-2.26C121.22,187.15,122.9,189.29,125.73,190.59z M209.51,99.84
		c2.27,3.86,4.54,7.71,6.81,11.57c-0.07-0.44-0.23-0.85-0.41-1.25c-0.64-1.35-1.27-2.71-1.94-4.05c-1.02-2.02-2.07-4.01-3.09-6.03
		C210.48,99.31,210.04,99.14,209.51,99.84z M105.37,70.92c0-1.44,0-2.74,0-4.08c-0.67-0.03-1.3-0.06-1.79-0.08
		c-0.31,1.25-0.61,2.48-0.93,3.73C103.39,70.61,104.33,70.76,105.37,70.92z M130.86,199.53c-1.17,0.98-1.57,3.15-0.99,4.78
		c0.63,1.77,2.39,2.36,4.33,1.2c-0.47-0.22-0.78-0.48-1.1-0.5c-1.18-0.08-2.13-0.73-2.53-1.92c-0.35-1.04-0.23-1.99,0.88-2.62
		C131.24,200.14,131.07,199.87,130.86,199.53z M189.58,198.81c1.54-0.03,3.1-2.82,2.67-4.07c-0.1-0.29-0.81-0.68-1-0.57
		C189.95,194.86,188.88,197.48,189.58,198.81z M118.28,58.38c1.68,0.67,3.28,1.3,4.95,1.96c0.21-0.65,0.39-1.2,0.56-1.71
		c-1.76-0.5-3.4-0.97-5.08-1.46C118.61,57.48,118.46,57.9,118.28,58.38z M106.89,67.02c0,1.37,0,2.65,0,4.06
		c0.74,0.07,1.44,0.14,2.15,0.22c-0.18-1.5-0.35-2.88-0.52-4.28C107.94,67.02,107.43,67.02,106.89,67.02z M64.97,202.81
		c-1.12,1.33-1.58,4.2-0.88,5.5C65.82,207.81,66.38,204.27,64.97,202.81z M121.71,63.68c0.2-0.36,0.28-0.52,0.38-0.67
		c0.46-0.7,0.44-1.08-0.5-1.43c-1.37-0.52-2.65-1.28-3.97-1.94c-0.12,0.2-0.33,0.56-0.56,0.94C118.6,61.6,120.11,62.61,121.71,63.68
		z M136.46,178.07c1.01-0.16,2.01-0.32,3.29-0.53c-1.1-1.34-2.06-2.52-3.02-3.69c-0.09,0.04-0.18,0.08-0.27,0.12
		C136.46,175.33,136.46,176.69,136.46,178.07z M96.24,69.35c0.09-1.05,0.2-2.11,0.25-3.17c0.01-0.2-0.21-0.55-0.39-0.6
		c-0.57-0.14-1.17-0.18-1.61-0.23c-0.07,1.33-0.13,2.57-0.19,3.81C94.9,69.22,95.57,69.28,96.24,69.35z M175.8,250.54
		c1.59-1.88,3.09-3.65,4.59-5.42c-0.78-0.43-0.87,0.32-1.24,0.62c-1.44,1.18-2.93,2.3-4.4,3.45
		C175.08,249.62,175.43,250.07,175.8,250.54z M117.41,68.21c-0.97-1.43-1.9-2.79-2.85-4.19c-0.15,0.11-0.48,0.36-0.82,0.61
		c0.79,1.51,1.54,2.96,2.31,4.44C116.56,68.75,116.99,68.47,117.41,68.21z M182.22,244.87c-0.24,1.2-0.47,2.31-0.7,3.41
		c0.44,0.2,0.86,0.39,1.48,0.67c0.33-1.41,0.63-2.72,0.95-4.08C183.29,244.87,182.69,244.87,182.22,244.87z M186.07,240.78
		c-0.46,2.18-0.92,4.36-1.37,6.54c1.45-1.89,2.04-4.12,2.67-6.34C186.93,240.92,186.51,240.85,186.07,240.78z M99.47,238.29
		c0.31-0.33,0.65-0.68,1.08-1.13c-1.6-0.82-3.11-1.58-4.58-2.33c-0.47,0.49-0.46,0.78,0.09,1.12
		C97.19,236.67,98.27,237.47,99.47,238.29z M246.52,140.5c0.54,0.94,1.49,2.62,2.48,4.35c0.5-0.42,0.92-0.76,1.33-1.1
		c-0.12,0.07-0.24,0.14-0.37,0.21C248.63,142.63,247.31,141.3,246.52,140.5z M74.35,215.72c-0.43-0.38-0.94-0.74-1.33-1.19
		c-0.64-0.74-1.24-0.87-1.94-0.06c0.7,0.86,1.41,1.73,2.15,2.65C73.63,216.62,73.95,216.22,74.35,215.72z M123.59,52.4
		c-0.71-1.38-1.89-2.1-2.9-1.88c-1.09,0.24-1.39,0.6-1.45,1.81C120.65,51.51,122.06,51.86,123.59,52.4z M147.42,208.62
		c-0.49,0.05-0.86,0.1-1.22,0.14c0.47,1.52,0.92,2.95,1.38,4.46c0.27-0.1,0.52-0.18,0.81-0.29
		C148.07,211.48,147.76,210.1,147.42,208.62z M97.6,240.35c0.27-0.3,0.53-0.59,0.75-0.83c-1.25-0.93-2.46-1.83-3.7-2.76
		c-0.18,0.2-0.39,0.45-0.57,0.66C95.27,238.42,96.41,239.36,97.6,240.35z M87.1,207.86c-0.67-1.34-1.07-2.89-3.06-3
		c0.43,0.72,0.86,1.37,1.22,2.06C85.63,207.64,86.04,208.22,87.1,207.86z M186.02,248.92c1.35,0.25,1.24-0.61,1.29-1.46
		c0.04-0.74,0.25-1.47,0.38-2.19C187.08,245.3,185.84,247.89,186.02,248.92z M173.66,237.94c1.11-0.54,2.05-1.99,2.08-3.24
		C174.74,235.16,173.66,236.83,173.66,237.94z M90.75,235.1c0.01-0.33,0.01-0.54,0.04-0.75c0.06-0.55-0.07-1.01-0.71-0.99
		c-0.38,0.01-0.75,0.2-1.13,0.31c0.3,0.43,0.56,0.9,0.92,1.27C90.01,235.09,90.37,235.04,90.75,235.1z M92.32,236.88
		c1.31-1.61,1.39-2.52,0.31-3.61c-0.01,1.22,0.14,2.46-0.98,3.33C91.9,236.7,92.11,236.79,92.32,236.88z M140.97,215.02
		c0.5-1.24-0.14-2.22-0.41-3.33C139.66,213.11,139.7,213.45,140.97,215.02z M88.4,231.45c1.17,0.14,2.33,0.27,3.46,0.4
		c-0.4-0.65-1.07-1.14-1.88-1.06C89.43,230.86,88.57,230.72,88.4,231.45z M183.87,250.98c0.55-0.63,1.01-1.16,1.55-1.78
		C183.32,248.88,183.19,249.04,183.87,250.98z M188.72,248.92c0.11-0.03,0.23-0.06,0.34-0.09c0.3-2.21,0.3-2.21-0.63-2.88
		C188.53,246.95,188.63,247.93,188.72,248.92z M190.55,248.12c0.02,1.25-0.41,2.53,0.33,3.71
		C190.26,250.62,191.54,249.28,190.55,248.12z M111.86,185.96c0.36-0.22,0.71-0.44,1.21-0.76c-0.92-0.14-1.63-0.25-2.42-0.38
		C111.09,185.23,111.46,185.58,111.86,185.96z M154.05,116.64c0.1,0.1,0.2,0.19,0.29,0.29c0.56-0.59,1.12-1.18,1.68-1.77
		c-0.09-0.09-0.19-0.18-0.28-0.28C155.17,115.46,154.61,116.05,154.05,116.64z M192.83,206.87c0.11,0.05,0.21,0.1,0.32,0.15
		c0.32-0.75,0.65-1.5,0.97-2.26c-0.1-0.04-0.2-0.09-0.31-0.13C193.48,205.37,193.16,206.12,192.83,206.87z M242.26,131.51
		c0.09,0.85-0.21,1.87,0.9,2.64C242.81,133.13,242.54,132.32,242.26,131.51z"/>
	<path class="st0" d="M100.08,227.03c-0.15,0-0.35,0.06-0.45-0.02c-0.25-0.2-0.46-0.46-0.68-0.7c0.25-0.18,0.49-0.36,0.74-0.54
		c0.18,0.26,0.37,0.5,0.53,0.77c0.05,0.09-0.01,0.24-0.01,0.36C100.17,226.95,100.12,226.99,100.08,227.03z"/>
	<path class="st0" d="M108.87,110.58c0.1-0.07,0.2-0.18,0.31-0.19c0.32-0.02,0.7-0.09,0.96,0.05c0.16,0.09,0.27,0.62,0.16,0.77
		c-0.17,0.22-0.57,0.41-0.83,0.37c-0.21-0.03-0.37-0.42-0.53-0.67c-0.06-0.09-0.02-0.24-0.03-0.36
		C108.9,110.55,108.87,110.58,108.87,110.58z"/>
	<path class="st0" d="M99.22,140.76c-0.48,0.38-0.77,0.68-1.12,0.83c-0.1,0.04-0.6-0.52-0.56-0.59c0.21-0.37,0.53-0.69,0.86-0.96
		C98.44,140.02,98.81,140.4,99.22,140.76z"/>
	<path class="st0" d="M94.67,140.97c-0.55,0.41-0.86,0.82-1.14,0.79c-0.3-0.03-0.56-0.46-0.84-0.71c0.29-0.27,0.54-0.67,0.87-0.76
		C93.78,140.22,94.12,140.61,94.67,140.97z"/>
	<path class="st0" d="M103.53,108.33c-0.45,0.35-0.72,0.7-0.89,0.66c-0.28-0.07-0.5-0.4-0.74-0.62c0.22-0.21,0.42-0.53,0.67-0.58
		C102.78,107.75,103.05,108.04,103.53,108.33z"/>
	<path class="st0" d="M59.18,127.81c-0.27,0.16-0.57,0.48-0.81,0.45c-0.27-0.04-0.49-0.41-0.74-0.63c0.28-0.2,0.54-0.5,0.85-0.57
		c0.19-0.04,0.46,0.26,0.7,0.41C59.18,127.58,59.18,127.69,59.18,127.81z"/>
	<path class="st0" d="M75.64,164.29c-0.29-0.49-0.58-0.77-0.57-1.04c0.01-0.22,0.37-0.43,0.58-0.65c0.22,0.24,0.56,0.47,0.61,0.74
		C76.3,163.55,75.96,163.83,75.64,164.29z"/>
	<path class="st0" d="M175.18,100.9c-0.51,0.35-0.83,0.73-1.04,0.67c-0.34-0.08-0.61-0.45-0.91-0.7c0.26-0.25,0.51-0.69,0.77-0.7
		C174.32,100.17,174.64,100.54,175.18,100.9z"/>
	<path class="st0" d="M199.89,97.6c0.34,0.51,0.73,0.85,0.67,1.07c-0.09,0.34-0.49,0.59-0.76,0.88c-0.26-0.27-0.74-0.53-0.74-0.79
		C199.08,98.44,199.49,98.13,199.89,97.6z"/>
	<path class="st0" d="M204.82,98.54c-0.49,0.36-0.76,0.7-1.02,0.7c-0.25,0-0.5-0.36-0.75-0.57c0.22-0.24,0.42-0.64,0.68-0.69
		C203.97,97.94,204.29,98.25,204.82,98.54z"/>
	<path class="st0" d="M182.93,94.06c0.32,0.54,0.61,0.82,0.6,1.09c-0.01,0.24-0.36,0.47-0.55,0.7c-0.23-0.27-0.55-0.51-0.64-0.82
		C182.29,94.85,182.61,94.56,182.93,94.06z"/>
	<path class="st0" d="M153.7,74.51c-0.24-0.44-0.51-0.72-0.45-0.88c0.09-0.26,0.4-0.44,0.61-0.65c0.17,0.21,0.5,0.44,0.48,0.64
		C154.32,73.86,154.02,74.08,153.7,74.51z"/>
	<path class="st0" d="M54.73,127.56c-0.44,0.31-0.7,0.65-0.92,0.62c-0.23-0.02-0.58-0.39-0.59-0.62c0-0.23,0.35-0.66,0.54-0.65
		C54.03,126.93,54.29,127.25,54.73,127.56z"/>
	<path class="st0" d="M84.08,152.88c0.13-2.25,1.73-3.49,3.36-3.95c1.33-0.37,3.18,1.28,3.31,2.9c0.13,1.56-0.4,2.89-1.6,3.92
		c-1.08,0.92-3.07,0.67-4-0.62C84.67,154.47,84.43,153.63,84.08,152.88z M85.77,152.35c-0.02,1.05,0.89,2.23,1.76,2.26
		c0.65,0.03,1.58-1.32,1.59-2.3c0-0.9-0.58-1.58-1.4-1.6C86.4,150.66,85.78,151.19,85.77,152.35z"/>
	<path class="st0" d="M87.92,167.58c-1.81,0-2.88-1.09-2.88-2.93c-0.01-2.1,1.63-4.11,3.34-4.12c1.87-0.01,3.31,1.54,3.33,3.53
		C91.72,166.04,89.75,167.82,87.92,167.58z M86.51,164.45c-0.11,0.92,0.44,1.57,1.44,1.63c1.16,0.07,2.21-1.01,2.18-2.13
		c-0.03-1.2-0.98-2.06-2.32-2.1C87.23,161.84,86.5,163.3,86.51,164.45z"/>
	<path class="st0" d="M74.86,143.16c-0.34-0.43-0.76-0.78-0.7-0.95c0.12-0.34,0.51-0.57,0.79-0.85c0.21,0.25,0.6,0.51,0.59,0.75
		C75.51,142.42,75.17,142.7,74.86,143.16z"/>
	<path class="st0" d="M98.16,180.3c-0.29-0.35-0.68-0.64-0.63-0.82c0.07-0.29,0.43-0.5,0.67-0.74c0.23,0.25,0.59,0.48,0.64,0.76
		C98.87,179.68,98.47,179.95,98.16,180.3z"/>
	<path class="st0" d="M95.41,145.74c-0.32,0.29-0.51,0.61-0.73,0.62c-0.18,0.01-0.52-0.36-0.51-0.54c0.01-0.21,0.3-0.5,0.53-0.58
		C94.83,145.19,95.08,145.5,95.41,145.74z"/>
	<path class="st0" d="M98.16,144.43c0.29,0.5,0.57,0.77,0.54,0.98c-0.04,0.24-0.36,0.44-0.56,0.66c-0.22-0.24-0.55-0.45-0.63-0.73
		C97.46,145.18,97.8,144.9,98.16,144.43z"/>
	<path class="st0" d="M65.13,176.43c-0.47,0.42-0.73,0.77-1.06,0.89c-0.14,0.05-0.69-0.49-0.65-0.61c0.13-0.35,0.42-0.71,0.74-0.91
		C64.28,175.74,64.67,176.12,65.13,176.43z"/>
	<path class="st0" d="M69.58,198.52c0.34,0.48,0.75,0.8,0.72,1.07c-0.03,0.28-0.49,0.7-0.76,0.7c-0.25,0-0.68-0.47-0.69-0.75
		C68.82,199.27,69.23,198.97,69.58,198.52z"/>
	<path class="st0" d="M71.63,211.42c-0.5,0.44-0.76,0.79-1.1,0.91c-0.12,0.05-0.44-0.42-0.67-0.65c0.25-0.25,0.47-0.59,0.77-0.7
		C70.8,210.9,71.12,211.18,71.63,211.42z"/>
	<path class="st0" d="M78.95,172.42c-0.31-0.34-0.69-0.57-0.68-0.78c0.01-0.24,0.39-0.67,0.57-0.65c0.29,0.04,0.53,0.37,0.79,0.58
		C79.44,171.81,79.24,172.05,78.95,172.42z"/>
	<path class="st0" d="M78.24,202.58c-0.26-0.37-0.62-0.69-0.56-0.81c0.13-0.27,0.47-0.44,0.72-0.64c0.17,0.2,0.5,0.44,0.47,0.6
		C78.81,201.99,78.52,202.21,78.24,202.58z"/>
	<path class="st0" d="M132.44,168.91c-0.58,0.33-0.9,0.65-1.23,0.66c-0.23,0.01-0.47-0.4-0.71-0.62c0.29-0.27,0.55-0.65,0.89-0.76
		C131.58,168.13,131.91,168.53,132.44,168.91z"/>
	<path class="st0" d="M198.73,212.4c-0.23-0.33-0.71-0.75-0.63-0.97c0.13-0.36,0.59-0.72,0.97-0.81c0.19-0.05,0.7,0.45,0.76,0.76
		C199.97,211.98,199.5,212.23,198.73,212.4z"/>
	<path class="st0" d="M187.5,236.57c0.34,0.45,0.69,0.71,0.67,0.92c-0.04,0.28-0.37,0.52-0.57,0.77c-0.22-0.2-0.61-0.39-0.63-0.6
		C186.95,237.38,187.23,237.08,187.5,236.57z"/>
	<path class="st0" d="M110.47,181.83c-0.49,0.36-0.78,0.73-1.11,0.77c-0.21,0.03-0.49-0.41-0.73-0.64c0.28-0.28,0.51-0.66,0.85-0.78
		C109.65,181.1,110,181.5,110.47,181.83z"/>
	<path class="st0" d="M109.12,160.84c0.34,0.42,0.73,0.74,0.68,0.88c-0.16,0.38-0.5,0.68-0.77,1.01c-0.21-0.24-0.62-0.5-0.59-0.7
		C108.49,161.67,108.81,161.36,109.12,160.84z"/>
	<path class="st0" d="M151.52,171.82c0.16-0.34,0.23-0.8,0.5-0.98c0.17-0.12,0.73,0.07,0.91,0.29c0.15,0.18,0.09,0.69-0.08,0.91
		c-0.13,0.17-0.56,0.16-0.85,0.12c-0.18-0.02-0.34-0.24-0.51-0.37C151.48,171.79,151.52,171.82,151.52,171.82z"/>
	<path class="st0" d="M136.48,169.47c-0.43,0.32-0.65,0.6-0.92,0.65c-0.14,0.03-0.54-0.42-0.5-0.53c0.1-0.27,0.36-0.54,0.62-0.67
		C135.79,168.87,136.07,169.18,136.48,169.47z"/>
	<path class="st0" d="M187.82,69.42c0.3,0.47,0.59,0.73,0.57,0.95c-0.03,0.24-0.35,0.45-0.55,0.67c-0.24-0.23-0.58-0.43-0.67-0.7
		C187.12,70.17,187.48,69.88,187.82,69.42z"/>
	<path class="st0" d="M188.45,78.42c0.28,0.35,0.64,0.63,0.59,0.76c-0.09,0.24-0.39,0.48-0.65,0.55c-0.12,0.03-0.47-0.35-0.48-0.55
		C187.9,78.98,188.19,78.76,188.45,78.42z"/>
	<path class="st0" d="M169.11,54.35c0.36,0.3,0.54,0.45,0.73,0.6c-0.23,0.24-0.43,0.52-0.7,0.7c-0.05,0.04-0.51-0.3-0.5-0.45
		C168.65,54.95,168.89,54.72,169.11,54.35z"/>
	<path class="st0" d="M200.32,95.79c-0.34-0.45-0.77-0.84-0.71-0.95c0.18-0.32,0.54-0.62,0.89-0.74c0.12-0.04,0.63,0.48,0.61,0.7
		C201.07,95.09,200.69,95.35,200.32,95.79z"/>
	<path class="st0" d="M184.76,89.65c0.32,0.45,0.69,0.79,0.62,0.9c-0.17,0.33-0.52,0.58-0.8,0.86c-0.21-0.25-0.6-0.52-0.58-0.76
		C184.03,90.37,184.4,90.11,184.76,89.65z"/>
	<path class="st0" d="M156.45,72.1c-0.31-0.47-0.62-0.73-0.6-0.97c0.01-0.22,0.35-0.59,0.56-0.6c0.21-0.01,0.63,0.33,0.63,0.52
		C157.04,71.32,156.75,71.6,156.45,72.1z"/>
	<path class="st0" d="M173.13,51.82c-0.49,0.35-0.78,0.67-1.13,0.77c-0.14,0.04-0.63-0.52-0.59-0.58c0.22-0.35,0.52-0.67,0.86-0.9
		C172.34,51.07,172.7,51.47,173.13,51.82z"/>
	<path class="st0" d="M204.47,77.84c-0.48,0.3-0.76,0.62-0.99,0.59c-0.27-0.04-0.48-0.39-0.72-0.61c0.26-0.26,0.47-0.64,0.78-0.75
		C203.69,77.02,204.02,77.45,204.47,77.84z"/>
	<path class="st0" d="M190.49,67.88c-0.32-0.46-0.61-0.69-0.59-0.88c0.03-0.26,0.31-0.49,0.48-0.74c0.21,0.2,0.55,0.38,0.59,0.61
		C191.01,67.09,190.75,67.37,190.49,67.88z"/>
	<path class="st0" d="M133.92,188.46c-0.31-0.5-0.66-0.82-0.61-1.03c0.07-0.28,0.46-0.48,0.71-0.72c0.21,0.25,0.58,0.49,0.59,0.74
		C134.63,187.71,134.28,187.98,133.92,188.46z"/>
	<path class="st0" d="M142.86,206.18c0.3,0.51,0.61,0.8,0.59,1.05c-0.02,0.2-0.44,0.52-0.68,0.52c-0.22,0-0.62-0.38-0.6-0.57
		C142.18,206.9,142.5,206.65,142.86,206.18z"/>
	<path class="st0" d="M130.84,182.92c-0.35,0.28-0.53,0.54-0.72,0.55c-0.2,0-0.4-0.24-0.6-0.38c0.17-0.21,0.3-0.52,0.52-0.6
		C130.19,182.44,130.45,182.7,130.84,182.92z"/>
	<path class="st0" d="M138.13,185.37c0.31,0.52,0.63,0.82,0.58,1.03c-0.08,0.3-0.43,0.54-0.66,0.8c-0.25-0.25-0.68-0.48-0.7-0.75
		C137.32,186.19,137.72,185.89,138.13,185.37z"/>
	<path class="st0" d="M83.32,201.21c-0.44,0.3-0.75,0.65-0.89,0.59c-0.29-0.13-0.62-0.44-0.68-0.73c-0.04-0.18,0.42-0.67,0.6-0.64
		C82.63,200.48,82.87,200.83,83.32,201.21z"/>
	<path class="st0" d="M83.94,172.43c-0.37,0.3-0.62,0.63-0.8,0.6c-0.26-0.05-0.46-0.37-0.69-0.57c0.19-0.2,0.37-0.57,0.56-0.57
		C83.27,171.9,83.53,172.17,83.94,172.43z"/>
	<path class="st0" d="M90.15,181.75c-0.45,0.31-0.68,0.6-0.92,0.61c-0.21,0.01-0.43-0.3-0.65-0.46c0.2-0.21,0.37-0.53,0.62-0.6
		C89.39,181.25,89.67,181.5,90.15,181.75z"/>
	<path class="st0" d="M207.23,214.82c-0.49,0.33-0.83,0.73-1.05,0.67c-0.33-0.1-0.73-0.48-0.79-0.79c-0.04-0.21,0.48-0.74,0.72-0.73
		C206.43,213.99,206.72,214.41,207.23,214.82z"/>
	<path class="st0" d="M191.21,239.88c-0.26-0.48-0.55-0.77-0.53-1.05c0.01-0.18,0.45-0.51,0.67-0.48c0.21,0.02,0.53,0.41,0.52,0.63
		C191.86,239.22,191.54,239.46,191.21,239.88z"/>
	<path class="st0" d="M76.02,218.06c-0.14-0.24-0.43-0.51-0.39-0.71c0.06-0.29,0.36-0.53,0.55-0.8c0.23,0.23,0.61,0.44,0.65,0.71
		c0.04,0.24-0.29,0.53-0.46,0.8C76.25,218.07,76.13,218.07,76.02,218.06z"/>
	<path class="st0" d="M96.91,227.94c0.33,0.43,0.62,0.67,0.65,0.93c0.02,0.17-0.35,0.5-0.57,0.53c-0.19,0.02-0.59-0.29-0.59-0.45
		C96.39,228.67,96.65,228.41,96.91,227.94z"/>
	<path class="st0" d="M52.02,123.53c0.29,0.47,0.59,0.73,0.54,0.92c-0.06,0.26-0.38,0.45-0.59,0.67c-0.21-0.22-0.54-0.43-0.59-0.68
		C51.35,124.25,51.68,123.99,52.02,123.53z"/>
	<path class="st0" d="M68.57,109.15c-0.42,0.22-0.66,0.43-0.89,0.42c-0.15,0-0.41-0.35-0.39-0.52c0.02-0.19,0.32-0.52,0.45-0.5
		C67.98,108.6,68.18,108.85,68.57,109.15z"/>
	<path class="st0" d="M204.86,197.93c0.54-0.34,0.86-0.7,1.09-0.66c0.28,0.06,0.49,0.46,0.73,0.72c-0.26,0.23-0.5,0.61-0.79,0.65
		C205.66,198.68,205.37,198.3,204.86,197.93z"/>
	<path class="st0" d="M211.74,199.64c-0.54,0.37-0.84,0.73-1.1,0.7c-0.28-0.03-0.67-0.38-0.75-0.66c-0.12-0.48,0.19-0.87,0.73-0.77
		C210.93,198.98,211.19,199.28,211.74,199.64z"/>
	<path class="st0" d="M201.66,81.01c-0.34,0.25-0.58,0.57-0.78,0.55c-0.22-0.02-0.56-0.37-0.55-0.57c0-0.21,0.35-0.55,0.56-0.57
		C201.09,80.4,201.32,80.73,201.66,81.01z"/>
	<path class="st0" d="M191.95,81.68c-0.36,0.3-0.55,0.57-0.78,0.62c-0.14,0.03-0.51-0.32-0.49-0.43c0.05-0.22,0.27-0.49,0.49-0.57
		C191.32,81.25,191.57,81.48,191.95,81.68z"/>
	<path class="st0" d="M116.85,186.89c-0.49,0.25-0.77,0.51-0.98,0.46c-0.24-0.04-0.42-0.36-0.63-0.56c0.24-0.22,0.46-0.55,0.74-0.62
		C116.14,186.13,116.41,186.51,116.85,186.89z"/>
	<path class="st0" d="M127.33,201.38c-0.3-0.41-0.61-0.66-0.57-0.81c0.08-0.28,0.33-0.57,0.59-0.7c0.1-0.05,0.61,0.34,0.59,0.49
		C127.9,200.65,127.62,200.92,127.33,201.38z"/>
	<path class="st0" d="M60.85,177.72c-0.34,0.22-0.54,0.43-0.75,0.44c-0.13,0.01-0.29-0.27-0.44-0.42c0.19-0.17,0.36-0.41,0.59-0.49
		C60.34,177.21,60.56,177.48,60.85,177.72z"/>
	<path class="st0" d="M191.99,91.25c1.9-0.09,3.56,1.72,3.43,3.51c-0.15,2.06-2.36,3.99-4.26,3.59c-1.19-0.25-2.15-0.67-2.75-1.72
		c-0.76-1.33-0.14-3.51,1.34-4.52c0.65-0.44,1.41-0.73,2.12-1.08C191.91,91.1,191.95,91.17,191.99,91.25z M191.57,96.82
		c1.3,0.01,2.38-1.03,2.4-2.33c0.02-1.14-1.07-2.16-2.26-2.12c-0.83,0.03-2.17,1.72-2.19,2.76
		C189.49,96.16,190.28,96.81,191.57,96.82z"/>
	<path class="st0" d="M195.63,69.22c1.78,0.01,2.9,0.93,3.49,2.55c0.54,1.48,0.4,2.9-0.65,4.11c-0.98,1.12-3.06,1.14-4.64,0.11
		c-1.33-0.86-1.71-2.39-1.05-4.06c0.2-0.5,0.26-1.06,0.46-1.56c0.3-0.77,1.02-0.99,1.74-1.15
		C195.19,69.18,195.42,69.22,195.63,69.22z M196.22,74.97c1.05,0.01,1.45-0.45,1.44-1.63c-0.01-1.13-0.8-2.26-1.59-2.27
		c-1.04-0.02-2.14,1.17-2.12,2.27C193.98,74.33,194.85,74.96,196.22,74.97z"/>
	<path class="st0" d="M144.87,175.51c0-1.1,1.24-2.31,2.4-2.34c1.09-0.03,2.04,0.86,2.04,1.9c0,1.28-1.25,2.51-2.55,2.5
		C145.72,177.57,144.87,176.63,144.87,175.51z M146.8,176.23c0.51-0.47,0.85-0.8,1.2-1.13c-0.21-0.16-0.47-0.5-0.61-0.46
		c-0.44,0.15-0.82,0.44-1.23,0.68C146.33,175.56,146.49,175.79,146.8,176.23z"/>
</g>
<circle class="st1" cx="145.5" cy="145.5" r="144"/>
</svg>
