<?xml version="1.0" encoding="utf-8"?>
<!-- Generator: Adobe Illustrator 23.1.0, SVG Export Plug-In . SVG Version: 6.00 Build 0)  -->
<svg version="1.1" xmlns="http://www.w3.org/2000/svg" xmlns:xlink="http://www.w3.org/1999/xlink" x="0px" y="0px"
	 viewBox="0 0 150 150" style="enable-background:new 0 0 150 150;" xml:space="preserve">
<style type="text/css">
	.st0{display:none;}
	.st1{display:inline;}
</style>
<g id="Layer_1" class="st0">
	<path class="st1" d="M80.32,47.27C81.26,47,82,45.45,83.63,46.1c0.3,0.12,1.04-0.66,1.49-1.12c1.98-2.03,3.92-4.09,5.97-6.23
		c-0.85-2.03-1.75-4.2-2.78-6.65c-4.74,0-9.63,0-14.72,0c-0.36-1.15-0.66-2.11-1.04-3.31c-4.07,0-8.27,0-12.67,0
		c-0.09,0.91-0.17,1.81-0.29,2.97c-3.66,1.14-7.3,0.66-11.08-0.48c-0.11-1.36-0.22-2.66-0.35-4.17c-1.14,0-2.19,0-3.42,0
		c-0.13,1.66-0.24,3.23-0.39,5.13c-5.27,0-10.41,0-15.78,0c-0.1-1.25-0.22-2.72-0.35-4.33c-1.69,0-3.26,0-5.02,0
		c-0.43-3.32-0.55-6.49-0.18-9.69c0.19-1.69,0.36-3.38,0.39-5.08c0.05-2.55,0.14-2.71,2.67-2.9c0.47-0.04,0.94-0.07,1.62-0.12
		c0.13-1.19,0.26-2.37,0.42-3.87c5.8,0,11.54-0.12,17.13,0.28c-0.31,1.75-0.55,3.13-0.86,4.92c1.46-0.19,2.42-0.31,3.43-0.44
		c0-1.2,0.05-2.14-0.01-3.07c-0.09-1.44,0.64-2.17,1.98-2.19c2.92-0.06,5.84-0.02,8.85-0.02c0.31,1.09,0.57,1.97,0.8,2.79
		c4.43,0,8.83,0,13.17,0c0.9-4.7,0.91-3.68,4.92-3.75c1.39-0.03,2.78,0.29,4.37,0.48c0.13-1.74,0.25-3.3,0.4-5.16
		c4.03,0.16,7.91,0.31,12.18,0.48c0.23,1.35,0.54,3.07,0.88,5.04c3.04,0,6.11,0,9.32,0c0-0.97,0-1.89,0-2.81
		c-0.01-2.23,0.13-2.53,2.29-2.61c3.74-0.15,7.5-0.13,11.56-0.19c0.18,2.06,0.34,3.8,0.5,5.68c1.92,0,3.78,0.02,5.65-0.01
		c1.39-0.02,2.36,0.38,2.69,1.92c0.12,0.57,0.58,1.14,1.03,1.55c4.77,4.28,7.89,9.42,9.69,15.67c1.31,4.53,0.56,8.54-0.66,12.74
		c-2.03,6.97-6.58,11.8-12.83,15.19c-0.83,0.45-1.64,0.92-2.58,1.45c0.24,7.39,0.57,14.75,0.69,22.12c0.12,6.9,0.05,13.8,0.01,20.69
		c-0.03,4.92-0.15,9.84-0.25,14.76c-0.03,1.53-0.01,2.82,1.43,4.02c0.81,0.67,0.76,2.39,1.12,3.71c2.22,0.82,2.22,0.82,2.94,3.56
		c0.08,0.04,0.17,0.13,0.25,0.12c4.29-0.38,4.38-0.34,4.4,4.16c0.03,4.73-0.05,9.47-0.09,14.21c-0.03,2.75-0.1,2.83-2.71,3.36
		c-0.73,0.15-1.46,0.26-2.29,0.4c0,0.97,0,1.79,0,2.64c-1.51,1.54-3.43,1.08-5.11,0.87c-9.62-1.2-19.25-0.88-28.9-0.62
		c-6.23,0.16-12.48-0.29-18.71-0.28c-6.43,0.01-12.85,0.25-19.28,0.38c-1.61,0.03-3.22,0.03-4.83,0.05
		c-5.27,0.07-10.55-0.37-15.74,1.26c-2.87,0.9-5.79,0.24-8.43-1.28c-7.34-4.23-10.23-10.83-8.23-19.23c0.87-3.67,2.79-6.8,5.03-9.77
		c0.68-0.9,1.38-1.77,2.14-2.75c-0.59-0.83-1.08-1.63-1.68-2.33c-1.23-1.43-1.96-2.86-0.24-4.51c-0.9-1.15-1.65-2.24-2.52-3.21
		c-10.01-11.2-7.93-24.72-1.13-34.49c0.59-0.85,1.3-1.63,1.89-2.49c0.56-0.81,1.45-1.5,0.77-2.77c-0.17-0.32,0.38-1.2,0.79-1.65
		C26.86,61.27,30.4,57.46,34,53.7c0.55-0.57,1.42-0.84,2.13-1.26c0.55-0.33,1.18-0.6,1.61-1.06c4.72-5.05,10.37-8.43,17.17-9.91
		c3.85-0.83,7.69-1.24,11.46,0.1c3.1,1.1,6.12,2.45,9.17,3.7C76.98,45.86,78.42,46.47,80.32,47.27z M40.95,102.62
		c9.15-12.97,19.42-24.93,29.87-36.75c1.3-1.47,2.36-3.15,3.45-4.62c-0.55-1.77-2.95-1.8-2.82-4.14c0.08-1.39-2.39-2.4-1.32-4.3
		c-3.17-1.6-8.14-2.75-10.55-2.62c-6.47,0.35-11.28,3.9-15.75,8.12c-0.14,0.13-0.31,0.25-0.39,0.41
		c-2.73,5.47-7.02,9.78-10.74,14.52c-0.91,1.15-1.84,1.79-3.19,1.24c-5.52,6.45-5.93,20.06,0.96,26.88c0.68-0.38,1.38-0.77,2.1-1.17
		c1.32,0.95,2.54,1.83,3.77,2.73c0.79-0.59,1.53-1.14,2.32-1.73C39.37,101.63,39.99,102.02,40.95,102.62z M114.35,114.61
		c-0.1-2.06-0.18-3.93-0.28-5.79c-0.22-4.15-0.55-8.29-0.66-12.44c-0.07-2.83,0.28-5.66,0.25-8.49c-0.1-10.3-0.28-20.6-0.44-30.9
		c-0.01-0.61-0.1-1.22-0.15-1.82c-0.19-0.06-0.39-0.12-0.58-0.18c-0.49,0.8-1.54,1.76-1.37,2.38c0.52,1.84-0.5,2.84-1.48,3.96
		c-1.34,1.53-2.68,3.06-3.98,4.55c2.85,3,2.85,3,0.43,5.81c-1.85,2.15-3.73,4.27-5.54,6.45c-1.61,1.94-1.81,2.03-4.33,1.03
		c-2.33,2.88-4.68,5.78-6.83,8.43c1.52,2.94,2.92,5.56,4.24,8.22c2.04,4.11,2.23,8.53,2.07,13.01c-0.07,1.97-0.01,3.94-0.01,5.99
		c3.67,0.54,2.44,3.52,2.82,5.55c4.2,0,8.22,0,12.45,0c0-1.95,0-3.6,0-5.37C112.09,114.88,113.01,114.77,114.35,114.61z
		 M125.32,122.19c-1.61,0-3.18-0.02-4.75,0c-8.14,0.11-16.28,0.33-24.42,0.33c-8.33,0-16.66-0.23-24.99-0.31
		c-2.27-0.02-4.54,0.11-6.81,0.25c-1.15,0.07-2.04,0.48-2.79,1.59c-2.14,3.23-4.5,6.31-6.75,9.48c-3.3,4.64-6.76,9.13-11.52,12.43
		c-0.15,0.11-0.15,0.45-0.24,0.78c0.68,0.03,1.24,0.1,1.8,0.08c6.8-0.21,13.61-0.41,20.41-0.66c2.45-0.09,4.9-0.42,7.35-0.4
		c3.02,0.03,6.03,0.49,9.05,0.47c7.19-0.06,14.38-0.29,21.57-0.46c5.21-0.13,10.39,0.06,15.56,0.77c2.2,0.3,4.47,0.05,6.96,0.05
		C125.61,138.51,125.47,130.52,125.32,122.19z M75.06,29.92c0.59,0.08,0.95,0.19,1.32,0.18c7.46-0.12,14.92-0.23,22.38-0.44
		c0.7-0.02,1.5-0.64,2.06-1.19c1.95-1.92,3.68-4.09,5.75-5.87c4.07-3.51,8.55-6.3,14.25-5.9c1.62,0.11,3.21,0.61,4.97,0.97
		c-0.08-3.49,0.25-6.86-0.77-10.25c-3.91,0-7.65-0.06-11.4,0.02c-2.16,0.05-4.33,0.46-6.49,0.45c-4.15-0.02-8.31-0.18-12.46-0.35
		c-4.9-0.2-9.79-0.48-14.68-0.72c-1.47-0.07-2.94-0.16-4.61-0.26C75.53,14.47,74.49,22.17,75.06,29.92z M38.63,103.31
		c-1.26,1.47-2.36,2.64-3.34,3.9c-2.55,3.28-4.79,6.83-7.64,9.82c-2.12,2.22-3.99,4.54-5.58,7.1c-3.85,6.2-3.71,13.64,0.95,18.97
		c4.19,4.79,11.29,6.31,16.64,3.01c4.21-2.6,7.93-5.86,10.94-9.81c3.04-3.99,5.91-8.1,8.83-12.18c0.59-0.82,1.06-1.72,1.62-2.64
		c-1.35-1.1-2.51-2.06-3.68-3c-0.21-0.17-0.47-0.28-1.11-0.64c-0.59,0.73-1.14,1.66-1.92,2.31c-1,0.83-2.18,1.46-3.3,2.14
		c-1.15,0.71-2.14,0.3-3.12-0.45c-2.05-1.56-2.21-4.3-0.33-7.12c0.51-0.77,1.15-1.45,1.74-2.19
		C45.72,109.44,42.3,106.48,38.63,103.31z M76.16,62.38c-5.99,5.61-30.27,35.2-34.09,41.5c2.45,2.73,5.08,5.25,8.05,7.22
		c12.65-13.27,22.98-28.08,34.14-42.21C81.58,66.74,78.94,64.62,76.16,62.38z M109.15,56.31c2.83-3.47,5.27-6.45,7.7-9.44
		c3.76-4.62,7.25-9.41,10.2-14.62c1.71-3.02,1.44-5.77,0.21-8.9c-1.59-4.03-5.51-5.55-9.17-4.84c-3.78,0.73-7.28,2.38-9.96,5.08
		c-4.18,4.22-8.06,8.75-12.01,13.21c-0.91,1.02-1.56,2.27-2.5,3.66C98.79,45.74,103.79,50.84,109.15,56.31z M98.22,77.66
		c2.71-3.02,5.39-6.01,8.28-9.23c-8.09-7.13-16-14.1-23.92-21.09c-3.07,3.64-5.98,7.09-9.04,10.72c4.21,2.97,7.54,7.02,12.06,9.62
		c0.64-0.69,1.05-1.22,1.54-1.65c0.49-0.44,1.03-0.83,1.61-1.15c1.77-0.99,3.69-0.78,4.98,0.48c1.44,1.4,1.63,2.91,0.54,4.9
		c-0.58,1.06-1.27,2.05-1.95,3.14C94.42,74.91,96.37,76.32,98.22,77.66z M114.73,54.34c0,2.67-0.02,5.21,0,7.74
		c0.12,10.97,0.22,21.95,0.4,32.92c0.1,6.23,0.35,12.46,0.56,18.69c0.01,0.26,0.2,0.51,0.37,0.93c1.71,0,3.44,0,5.16,0
		c0.08-20.18,0.45-40.2-1.16-60.46c-1.09,0-2.2-0.02-3.31,0.01C116.11,54.19,115.47,54.28,114.73,54.34z M48.16,117.52
		c-0.17,2.47,1.01,3.42,2.58,2.64c1.07-0.54,2.15-1.26,2.93-2.16c1.98-2.27,3.76-4.72,5.68-7.05c5.05-6.12,10.16-12.19,15.18-18.34
		c4.78-5.85,9.5-11.76,14.19-17.68c1.35-1.7,2.56-3.52,3.74-5.34c0.65-1,0.85-2.2-0.18-3.09c-0.91-0.78-1.97-0.43-2.9,0.13
		c-0.4,0.24-0.79,0.54-1.08,0.9c-3.69,4.42-7.42,8.81-11.03,13.3c-5.03,6.26-9.9,12.65-14.97,18.87
		c-4.06,4.98-8.38,9.75-12.48,14.69C48.94,115.44,48.51,116.85,48.16,117.52z M84.63,120.2c0.22-2.05-0.01-3.76,1.75-4.68
		c0.26-0.14,0.34-0.87,0.3-1.31c-0.32-3.67-0.67-7.33-1.05-10.99c-0.3-2.82-1.34-5.1-4.54-5.66c-2.91,3.2-18.72,20.31-19.27,23.11
		c0.87,0.15,1.73,0.43,2.58,0.41c3.97-0.09,7.93-0.24,11.89-0.42C79.02,120.56,81.74,120.37,84.63,120.2z M127.58,10.66
		c0,3.26-0.04,5.89,0.03,8.52c0.02,0.62,0.29,1.28,0.59,1.85c2.49,4.72,2.15,9.31-0.74,13.69c-2.7,4.1-5.54,8.11-8.37,12.12
		c-1.4,1.97-2.93,3.85-4.51,5.92c4.83,0.21,7.03-0.18,9.56-1.73c3.98-2.44,7.83-5.05,9.88-9.48c1.55-3.35,2.89-6.79,3.25-10.51
		c0.05-0.56,0.21-1.14,0.11-1.68C136.16,22.31,133.48,16.02,127.58,10.66z M24.61,69.15c-11.78,11.89-11.78,27.96,0.08,38.99
		c1.56-1.7,3.11-3.4,4.61-5.03c-7.76-10-7.41-20-1.15-30.29C27.02,71.65,25.87,70.46,24.61,69.15z M42.49,10.33
		c-0.55-0.08-1.24-0.17-1.86-0.25c-0.19-1.75,1.24-1.17,2.26-1.91c-4.65-0.14-8.87-0.92-13.47-0.41c0,1.73-0.07,3.32,0.01,4.9
		c0.23,4.05,0.34,8.07-0.18,12.14c-0.26,2.03-0.24,4.3,0.6,6.05c4.56,0,8.86,0,13.5,0C43.07,23.86,42.78,17.22,42.49,10.33z
		 M59.81,118.89c4.51-5.13,8.84-9.99,13.1-14.91c5.75-6.65,11.47-13.32,17.15-20.03c1.69-2,3.21-4.14,4.95-6.39
		c-1.43-0.92-2.66-1.72-4.14-2.68c-5.17,6.48-10.15,12.77-15.18,19.01c-5.04,6.25-10.16,12.45-15.2,18.7
		c-1.1,1.37-2.03,2.87-3.09,4.39C58.34,117.73,59.07,118.3,59.81,118.89z M85.22,47.31c6.46,5.97,12.7,11.72,19.05,17.59
		c1.98-2.24,3.77-4.25,5.54-6.25c-6.14-6.04-12.16-11.96-18.26-17.96C89.49,42.83,87.42,45,85.22,47.31z M74.86,47.57
		c-11.98-8.2-26.32-6.33-37.06,6.23c1.11,1.62,2.29,3.16,4.03,4.04c1.96-1.6,3.78-3.1,5.62-4.58c5.79-4.62,12.31-5.99,19.46-4.19
		c1.73,0.43,3.36,1.22,5.18,1.89C72.95,49.91,73.83,48.83,74.86,47.57z M49.69,30.34c3.11,0,5.69,0,8.22,0
		c0.55-4.11,0.33-20.95-0.3-22.92c-2.65,0-5.35,0-7.92,0C49.69,15.11,49.69,22.69,49.69,30.34z M94.36,115.22
		c0.65-8.81-0.39-18.57-4.41-21.5c-1.57,1.45-3.18,2.95-4.69,4.35c2.82,5.53,2.19,11.37,2.7,17.15
		C90.15,115.22,92.17,115.22,94.36,115.22z M30.87,72.64c3.57-4.36,6.94-8.48,10.33-12.63c-1.82-1.95-3.53-3.78-5.33-5.71
		c-4.03,4.04-7.89,7.94-11.46,12.18C26.62,68.58,28.58,70.46,30.87,72.64z M127.52,125.18c0,6.27,0,12.2,0,18.36
		c1.25-0.25,2.31-0.46,3.49-0.69c0-6.15,0-12.06,0-18.23C129.82,124.82,128.74,124.99,127.52,125.18z M32.38,101.86
		c-1.43,1.71-2.76,3.29-4.08,4.88c-1.37,1.64-2.74,3.29-4.2,5.04c0.98,1.09,1.77,1.96,2.81,3.11c2.85-3.6,5.51-6.95,8.25-10.42
		C34.15,103.53,33.29,102.72,32.38,101.86z M24.51,11.49c0.49,5.12-0.44,9.88,0.29,14.7c1.22-0.06,2.22-0.12,3.35-0.18
		c-0.18-4.92-0.35-9.66-0.52-14.52C26.71,11.49,25.82,11.49,24.51,11.49z M63.54,9.73c-0.71,0.8-1.24,1.13-1.28,1.5
		c-0.09,0.93,0.04,1.88,0.09,2.82c0.19,3.18,0.41,6.36-0.52,9.68c-1.06-0.81-0.84-1.8-0.84-2.69c-0.02-3.12-0.01-6.24-0.01-9.36
		c0-0.91-0.08-1.71-1.22-1.41c0,5.57,0,11.01,0,16.44c1.33,0,2.41,0,3.77,0C63.54,21.19,63.54,15.84,63.54,9.73z M116.66,2.47
		c-3.41-0.98-6.63-0.86-9.96-0.38c0,1.39,0,2.64,0,4.09c3.51,0.06,6.82,0.14,10.24-0.03C116.83,4.74,116.76,3.71,116.66,2.47z
		 M44.77,13.15c0,4.23,0,8.14,0,12.14c1.13-0.07,2.05-0.14,2.89-0.19c0-4.16,0-8.21,0-12.51C46.47,12.81,45.66,12.97,44.77,13.15z
		 M86.56,120.49c3.52,0,6.87,0,10.39,0c-0.08-1.23-0.15-2.4-0.23-3.75c-2.6,0-5.02,0-7.44,0C86.47,116.73,86.18,117.08,86.56,120.49
		z M123.07,116.33c-3.6,0-7.04,0-10.8,0c0.21,1.33,0.39,2.48,0.6,3.74c3.53,0.02,6.87,0.26,10.21-0.25
		C123.07,118.47,123.07,117.47,123.07,116.33z M83.64,1.68c0.08,1.52,0.14,2.61,0.22,3.97c3.23,0,6.26,0.15,9.58-0.12
		c-0.25-1.23-0.43-2.1-0.57-2.77C89.7,2.39,86.86,2.05,83.64,1.68z M69.81,27.13c1.16-5.94,0.6-11.34,0.76-16.61
		c-1.6-0.52-1.82,0.19-1.84,1.19c-0.1,4.69-0.23,9.37-0.27,14.06C68.47,26.12,69.15,26.48,69.81,27.13z M89.94,31.98
		c0.87,2.33,1.3,4.31,3.09,5.78c1.51-1.93,2.92-3.73,4.52-5.78C94.88,31.98,92.66,31.98,89.94,31.98z M65.16,10.32
		c0,5.63,0,10.95,0,16.28c1.49-0.25,1.59-0.24,1.64-0.86c0.13-1.59,0.23-3.18,0.24-4.78c0.03-3.29,0.01-6.57-0.01-9.86
		c0-0.25-0.13-0.5-0.21-0.78C66.31,10.32,65.85,10.32,65.16,10.32z M88.03,88.9c-2.03,2.46-3.8,4.61-5.67,6.89
		c0.61,0.49,1.08,0.87,1.54,1.24c2.14-1.87,4.16-3.63,6.3-5.5C89.51,90.69,88.87,89.92,88.03,88.9z M77.2,47.04
		c-2,2.56-3.73,4.77-5.57,7.11c0.54,0.44,0.94,0.77,1.64,1.33c1.86-2.11,3.64-4.13,5.51-6.25C78.26,48.51,77.84,47.93,77.2,47.04z
		 M72.85,10.55c-0.24-0.02-0.49-0.03-0.73-0.05c0.12,2,0.24,4.01,0.36,6.01c0.12,0,0.24,0,0.37-0.01
		C72.85,14.53,72.85,12.54,72.85,10.55z M72.74,22.79c-0.08,0-0.16,0-0.24,0c-0.09,1.12-0.18,2.24-0.28,3.36
		c0.17,0,0.34,0.01,0.51,0.01C72.74,25.04,72.74,23.91,72.74,22.79z"/>
	<path class="st1" d="M112.24,142.26c-1.59-0.29-3.24-0.84-4.89-0.85c-6.62-0.07-13.23,0.01-19.85,0.07
		c-2.37,0.02-4.73,0.16-7.1,0.16c-1.76,0-3.59-0.46-4.73,1.55c-0.2,0.36-1.04,0.6-1.53,0.53c-3.26-0.47-6.57-0.78-9.74-1.64
		c-3.86-1.05-5.42-4.27-4.52-8.2c0.75-3.3,2.45-5.56,5.9-6.54c3.05-0.86,6.12-1.16,9.24-1.21c0.27,0,0.66-0.01,0.79,0.15
		c1.78,2.22,4.35,1.4,6.53,1.51c5.2,0.25,10.43,0.31,15.62,0c3.52-0.21,7.06-0.22,10.59-1.28c3.39-1.01,6.98,0.07,10.1,1.75
		c3.09,1.67,3.56,4.78,3.14,7.91c-0.4,2.96-2.78,4.4-5.28,5.39C115.25,142.07,113.76,142.03,112.24,142.26z M76.98,140.44
		c10.5-0.44,20.93-0.89,31.57-1.34c-0.33-3.33-0.66-6.58-1-9.95c-0.3-0.04-0.66-0.13-1.02-0.1c-0.24,0.02-0.47,0.19-0.67,0.28
		c0.19,6.66,0.19,6.66-1.11,8.06c-0.25-0.86-0.6-1.52-0.6-2.18c-0.01-1.79,0.13-3.59,0.19-5.39c0-0.15-0.14-0.31-0.29-0.6
		c-0.64,0.03-1.34,0.07-2.06,0.1c-0.58,2.73,0.83,5.53-1.01,7.92c-1.39-2.51-0.31-5.31-1.01-7.88c-1.33,0.3-1.37,0.3-1.39,1.13
		c-0.03,1.8,0.02,3.6-0.03,5.4c-0.01,0.45-0.26,0.9-0.4,1.35c-1.54-2.57-0.48-5.36-1.14-7.89c-0.65,0-1.18,0-1.78,0
		c0,1.45,0.11,2.77-0.03,4.06c-0.13,1.25,0.64,2.76-1.24,4.23c-0.12-2.97-0.21-5.44-0.32-8.09c-0.95,0.07-1.65,0.11-2.17,0.15
		c0,2.47,0.04,4.72-0.04,6.97c-0.02,0.44-0.53,0.85-0.81,1.28c-0.22-0.08-0.44-0.15-0.66-0.23c0-2.78,0-5.56,0-8.51
		c-0.93,0.1-1.53,0.16-2.15,0.22c0.02,2.69,0.79,5.26-0.45,8.29c-1.75-3,0.35-6.29-2.11-8.99c-0.86,2.99,0.95,5.69-1.05,8.72
		c-0.23-1.36-0.4-2.11-0.47-2.87c-0.13-1.41-0.18-2.83-0.3-4.24c-0.11-1.23-0.79-1.3-1.84-0.83c0.28,2.88,0.99,5.72-0.54,8.43
		c-0.48-0.65-0.7-1.31-0.72-1.99c-0.06-1.8,0-3.6-0.07-5.4c-0.03-0.73-0.1-1.61-1.47-1.27c-0.08,2.39-0.13,4.83-0.29,7.27
		c-0.04,0.53-0.42,1.4-0.77,1.48C76.14,138.41,76.83,139.32,76.98,140.44z M74.51,127.53c-3.39-0.46-6.39,0.15-9.29,1.4
		c-2.99,1.29-4.82,5.92-3.39,8.83c0.39,0.79,1.11,1.63,1.89,1.98c3.39,1.54,6.96,2.05,10.78,1.63
		C74.51,136.69,74.51,132.26,74.51,127.53z M109.33,127.96c0.3,4.33,0.58,8.25,0.87,12.38c1.99,0,3.87,0.17,5.72-0.04
		c2.1-0.24,4.33-2.46,4.58-4.17c0.38-2.64-0.78-5.64-2.86-6.62C115.15,128.33,112.51,127.71,109.33,127.96z M76.69,128.88
		c-0.71,1.99,0.58,3.62,0.4,5.32c0.27-1.59,0.27-3.17,0.25-4.76C77.34,129.34,77.1,129.23,76.69,128.88z"/>
	<path class="st1" d="M82.3,14.78c2.34-0.02,4.17,1.55,4.25,3.65c0.07,1.92-1.83,3.87-3.75,3.83c-2.24-0.04-4.58-2.01-4.56-3.85
		C78.26,15.96,79.56,14.8,82.3,14.78z M82.32,16.62c-1.77,0.01-2.76,0.67-2.69,1.79c0.06,0.97,1.62,2.04,3.02,2.08
		c1.06,0.03,2.06-0.84,2.14-1.84C84.87,17.44,83.86,16.61,82.32,16.62z"/>
	<path class="st1" d="M93.71,22.29c-2.33,0.03-3.69-1.28-3.73-3.61c-0.04-2.41,1.54-4.4,3.45-4.37c2.11,0.04,3.88,2,3.94,4.37
		C97.43,21,96.16,22.26,93.71,22.29z M93.26,16.11c-1.08,0.07-1.67,0.99-1.59,2.49c0.08,1.54,0.81,2.17,2.34,2.02
		c1.28-0.13,1.8-0.75,1.71-2.04C95.63,17.07,94.59,16.02,93.26,16.11z"/>
	<path class="st1" d="M78.37,27.76c-0.73,0.5-1.17,1.02-1.55,0.99c-0.38-0.03-0.98-0.64-0.98-1c0-0.41,0.54-0.83,0.85-1.24
		C77.15,26.86,77.63,27.21,78.37,27.76z"/>
	<path class="st1" d="M122.8,8.38c0.59,0.71,1.2,1.11,1.16,1.45c-0.06,0.52-0.55,0.98-0.86,1.47c-0.38-0.33-1.04-0.64-1.07-1
		C121.99,9.8,122.42,9.25,122.8,8.38z"/>
	<path class="st1" d="M78.74,9.11c-0.68,0.4-1.16,0.91-1.55,0.85c-0.33-0.05-0.56-0.77-0.83-1.19c0.44-0.24,0.87-0.64,1.32-0.67
		C77.96,8.09,78.27,8.64,78.74,9.11z"/>
	<path class="st1" d="M45.68,130.77c0.38,8.3-8.59,14.5-16.75,10.14c-4.08-2.18-6.24-8.68-4.23-12.86c0.45-0.93,1.05-1.79,1.53-2.71
		c2.11-4.02,5.71-5.26,9.91-5.27C41.6,120.05,46.12,125.98,45.68,130.77z M35.84,122.19c-6.54,0.4-9.89,3.65-10.15,9.19
		c-0.22,4.56,2.93,8.86,8.64,8.92c4.84,0.05,9.19-3.37,9.32-9.36C43.76,126.27,40.14,122.25,35.84,122.19z"/>
	<path class="st1" d="M40.18,107.31c-0.66,0.36-1.09,0.75-1.52,0.76c-0.28,0-0.57-0.57-0.85-0.88c0.41-0.29,0.78-0.73,1.23-0.83
		C39.29,106.31,39.65,106.85,40.18,107.31z"/>
	<path class="st1" d="M56.81,123.76c-0.47-0.52-0.89-0.84-1.05-1.26c-0.05-0.14,0.62-0.8,0.86-0.75c0.41,0.09,0.83,0.5,1.05,0.89
		C57.75,122.77,57.22,123.24,56.81,123.76z"/>
	<path class="st1" d="M125.77,29.26c-0.09,4.91-4,8.95-8.51,8.8c-5.08-0.17-8.96-4.59-8.54-9.68c0.2-2.46,1.6-4.18,3.42-5.63
		c1.72-1.37,3.7-2.23,5.89-2.52c2.19-0.29,3.79,0.96,5.21,2.36C125.16,24.48,125.82,26.46,125.77,29.26z M124.16,28.68
		c-0.01-3.81-2.72-6.45-6.69-6.51c-3.17-0.05-7.11,3.76-7.12,6.89c-0.01,3.61,3.5,7.25,7,7.25C121,36.31,124.17,32.76,124.16,28.68z
		"/>
	<path class="st1" d="M40.5,17.46c0,2.57-1.38,4.34-3.41,4.39c-2.25,0.06-4.01-1.44-4-3.42c0.01-2.35,1.96-4.23,4.37-4.22
		C39.42,14.22,40.51,15.38,40.5,17.46z M38.89,17.56c0-1.18-0.69-1.95-1.84-2.03c-1.19-0.09-2.71,1.51-2.66,2.8
		c0.04,0.92,1.28,1.97,2.4,2.05C37.98,20.45,38.89,19.23,38.89,17.56z"/>
	<path class="st1" d="M32.5,28.49c-0.55,0.45-0.87,0.91-1.2,0.92c-0.31,0.01-0.64-0.45-0.96-0.71c0.33-0.27,0.64-0.64,1.02-0.76
		C31.59,27.87,31.94,28.2,32.5,28.49z"/>
	<path class="st1" d="M40.03,29.4c-0.1-1.07,0.38-1.51,1.27-1.3c0.25,0.06,0.62,0.77,0.52,0.98C41.39,29.99,40.69,29.69,40.03,29.4z
		"/>
	<path class="st1" d="M31.16,10.49c-0.32-0.43-0.75-0.83-0.68-0.94c0.18-0.31,0.57-0.5,0.87-0.74c0.18,0.27,0.5,0.55,0.5,0.82
		C31.84,9.87,31.48,10.11,31.16,10.49z"/>
	<path class="st1" d="M39.28,131.06c0.03,2.53-1.71,4.38-4.12,4.39c-2.82,0.01-4.41-1.58-4.38-4.37c0.03-2.3,2.01-4.75,3.95-4.87
		C36.9,126.07,39.25,128.57,39.28,131.06z M32.56,131.21c0.03,1.57,0.91,2.48,2.44,2.51c1.43,0.03,2.58-1.29,2.48-2.84
		c-0.1-1.6-1.13-2.48-2.86-2.45C33.27,128.46,32.53,129.46,32.56,131.21z"/>
	<path class="st1" d="M121.31,28.94c0.03,2.52-1.31,3.99-3.65,4c-2.15,0.01-3.49-1.32-3.53-3.51c-0.05-2.69,1.17-3.98,3.89-4.09
		C120.14,25.26,121.28,26.5,121.31,28.94z M118.23,26.94c-1.28-0.04-2.43,0.93-2.48,2.08c-0.05,1.28,0.94,2.23,2.32,2.21
		c1.27-0.02,2.15-0.85,2.17-2.05C120.26,27.99,119.35,26.97,118.23,26.94z"/>
</g>
<g id="Layer_2">
	<path d="M122.56,130.09c-0.3,2.91-0.3,2.91-3.28,3.7c-0.18,1.82-1.34,2.96-3.13,3.52c-0.35,0.11-0.82,0.24-0.97,0.51
		c-1.14,2.02-3.09,1.93-4.9,2.03c-0.48,0.82-0.76,2-1.43,2.32c-2.16,1.01-4.43,1.86-6.74,2.43c-0.78,0.19-1.59-0.02-2.26,0.71
		c-1.28,1.41-2.72,1.75-4.42,0.2c-1.1,1.93-2.72,2.67-5.02,2.15c-0.14,0.99-0.13,2.05-1.64,2.05c-9.69,0.05-19.39,0.18-29.08,0.28
		c-0.17,0-0.35-0.14-0.82-0.35c-0.17-1.22-0.35-2.61-0.57-4.21c-0.65-0.15-1.38-0.29-2.09-0.47c-2.87-0.75-5.82-1.28-8.57-2.33
		c-7.5-2.87-14.41-6.8-20.34-12.28c-6.1-5.65-11.4-11.92-14.82-19.62C6.59,97.5,3.89,83.66,4.79,69.23
		c0.56-8.95,2.6-17.65,6.31-25.97c-0.42-0.82-0.84-1.65-1.2-2.34c3.41-4.63,6.71-9.09,10-13.57c0.94-1.28,2.51-1.95,3.1-3.63
		c0.18-0.51,1.47-0.62,2.26-0.91c0.67-3.2,0.85-3.38,3.94-3.83c0.52-3.06,0.52-3.06,2.87-3.34c1.35-1.12,2.37-1.93,3.34-2.8
		c0.4-0.36,0.7-0.86,1.01-1.32c1.14-1.68,1.32-1.74,3.46-1.03c0.85-0.74,1.7-2.09,2.47-2.05c2.03,0.12,2.91-3.52,5.27-1.33
		c1.22-1.18,2.07-2.85,4.13-2.1c0.22,0.08,0.62-0.32,0.92-0.52c0.39-0.27,0.92-0.89,1.1-0.8c2.08,1.08,3.64-1.26,5.61-0.81
		c0.29,0.07,0.82-0.09,0.95-0.31c0.93-1.53,2.42-1.31,3.85-1.34c6.52-0.14,13.05-0.29,19.57-0.44c1.13-0.03,2.36-0.36,2.83,1.23
		c0.08,0.26,0.54,0.49,0.87,0.57c2.32,0.6,4.66,1.11,6.97,1.73c1.57,0.42,3.19,0.8,4.64,1.49c4.85,2.32,9.67,4.69,14.41,7.21
		c1.84,0.98,3.57,2.3,5.11,3.72c7.7,7.13,13.95,15.26,17.74,25.21c2.66,6.97,4.4,14.09,4.96,21.51c0.08,1.03,0.01,2.08,0.01,3.13
		c2.6,0.29,2.96,0.6,2.98,3.3c0.04,5.96,0.05,11.91-0.03,17.87c-0.01,0.71-0.59,1.41-1.03,2.38c0.16,0.76,0.73,1.98,0.54,3.05
		c-0.18,0.99-1.19,1.82-1.91,2.84c0.28,0.6,1.02,1.44,0.98,2.25c-0.04,0.85-0.88,1.63-1.26,2.49c-0.45,1.03-0.7,2.16-1.16,3.18
		c-0.55,1.22-1.77,2.02-1.42,3.8c0.15,0.73-1.47,1.81-2.46,2.93c0.77,1.21,0.41,2.45-0.76,3.57c-0.38,0.36-0.87,1.01-0.77,1.4
		c0.59,2.29-0.77,3.15-2.75,3.66c0.51,1.9-0.39,3.05-1.76,3.95c-0.24,0.16-0.68,0.28-0.7,0.47c-0.3,2.36-2.46,3.16-3.74,4.7
		C125.08,129.59,124.11,130.17,122.56,130.09z M21.38,28.43c-0.65,0.67-1.37,1.28-1.94,2.01c-2.47,3.17-4.9,6.36-7.32,9.57
		c-0.26,0.34-0.33,0.83-0.49,1.27c3.93,2.61,7.73,5.18,11.57,7.67c1.85,1.2,3.74,2.35,5.7,3.34c0.77,0.39,1.78,0.28,2.78,0.4
		c0.03,0.11,0.04,0.56,0.27,0.82c0.21,0.24,0.65,0.28,1.12,0.46c2.47-4.6,5.31-8.89,6.98-13.94c-0.37-0.26-0.61-0.42-0.84-0.58
		c-4.83-3.44-9.66-6.89-14.5-10.33c-0.7-0.5-1.42-1.03-2.21-1.32c-0.28-0.1-0.81,0.46-1.22,0.71L21.38,28.43z M62.09,115.69
		c-0.13-3.29-0.33-6.54-0.37-9.79c-0.06-5.08,2.05-9.3,5.49-12.91c2.51-2.62,9.13-3.45,12.11-1.75c4.77,2.72,6.21,7.1,6.86,11.93
		c0.43,3.22,0.23,6.52,0.5,9.76c0.16,1.97,0.03,3.61-2.24,4.14c0.36,2.54,2.85,0.85,3.91,2.67c0.08,0.61,0.18,1.75,0.37,2.87
		c0.3,1.78,1.03,2.46,2.76,2.11c1.65-0.34,3.26-0.95,4.82-1.6c1.93-0.8,3.8-1.76,5.89-2.75c0.03-1.18,0.58-2.1,2.23-2.05
		c0.59,0.02,4.79-4.73,5.33-5.33c1.31-1.44,1.13-3.42,2.08-5.08c1.1-1.92,3.3-2.94,3.79-5.22c0.23-1.04,0.63-2.05,1.02-3.05
		c0.46-1.21,1.03-2.38,1.48-3.59c0.34-0.93,0.57-1.91,0.97-3.31c-1.02-1.26-1.03-3.05,0.22-4.6c-0.85-2-2.33-1.59-3.56-1.2
		c-2.21,0.7-3.92,0.44-4.76-1.81c-2.48-0.14-4.7-0.44-6.83,0.88c-1.36,0.84-3.1,0.79-4.33-0.29c-1.84-1.63-3.91-1.23-5.98-1.14
		c-0.95,0.04-1.9,0.25-2.85,0.28c-5.35,0.19-10.71,0.36-16.07,0.52c-1.05,0.03-2.11,0-3.17-0.04c-6.51-0.28-13.03-0.56-19.54-0.86
		c-1.72-0.08-3.01,0.26-4.12,1.89c-1.43,2.11-4.14,2.19-5.63,0.12c-1.21-1.68-2.49-1.83-4.28-1.43c-0.28,0.6-0.59,1.26-0.85,1.83
		c-2.62,0.15-5.04,0.3-7.78,0.46c4.58,16.14,13.23,28.57,27.83,36.34c1.35-0.5,2.5-0.92,3.75-1.38c0-0.9,0-1.74,0-2.7
		c1.11-0.27,2.11-0.51,3.09-0.74C64.57,116.61,64.57,116.61,62.09,115.69z M98.71,72.67c1.03-8.26-0.08-15.81-3.97-23.01
		c-5.89-10.91-20.35-14.47-29.85-9.69c-5.24,2.64-9.91,5.96-12.78,11.21c-3.58,6.53-4.31,13.57-3.34,21.1
		C65.44,71.77,81.98,73.2,98.71,72.67z M40.88,72.07c0.06-1.25,0.12-2.2,0.14-3.15c0.14-7.85,1.06-15.53,5.02-22.52
		c2.98-5.26,6.74-9.92,12.23-12.68c7.44-3.73,15.27-5.59,23.63-3.6c8.58,2.04,15.28,6.74,19.48,14.5
		c3.69,6.83,6.05,14.09,5.62,22.06c-0.11,2.03,0.42,4.09,0.66,6.22c1.46-0.11,2.57-0.19,3.64-0.27c0.13-0.65,0.2-1.03,0.28-1.4
		c0.55-2.38,0.59-2.42,3.08-2.29c1.01,0.05,2.01,0.16,2.93,0.24c0.83-2.19,0.64-4.14,0.06-6.1c-0.3-1.01-0.53-2.05-0.74-3.08
		c-1.51-7.29-3.93-14.18-7.97-20.55c-3.92-6.18-8.86-11.13-15.5-14.17c-2.36-1.08-4.92-2.99-7.81-0.88
		c-0.4,0.29-1.15,0.04-1.69,0.21c-0.76,0.23-1.45,0.66-2.2,0.93c-0.61,0.22-1.26,0.44-1.9,0.45c-3.84,0.1-7.68,0.17-11.53,0.19
		c-0.62,0-1.42-0.07-1.82-0.44c-0.85-0.78-1.7-0.77-2.65-0.47c-3.17,1.02-6.45,1.61-9.65,2.59c-4.19,1.27-7.12,3.88-10.32,6.43
		c-1.03,0.82-0.99,1.71-1.24,2.66c-0.39,1.55-0.52,3.23-1.21,4.62c-1.75,3.52-3.84,6.88-5.62,10.38c-1.1,2.15-2.46,3.56-5.16,2.9
		c-0.96,4.33-1.89,8.45-2.77,12.58c-0.16,0.73-0.09,1.5-0.15,2.61c1.15,0,2.18,0,3.2,0c1.34,0,2.69-0.08,4.02,0.03
		c0.61,0.05,1.53,0.32,1.72,0.75C37.59,72.87,39.15,72.15,40.88,72.07z M19.67,48.24c-0.64,2.28-1.1,4.22-1.73,6.11
		c-4.13,12.3-3.33,24.67-0.05,36.9c2.9,10.85,8.66,20.21,16.27,28.52c5.82,6.35,12.75,10.72,20.91,13.25
		c0.79,0.24,1.61,0.37,2.6,0.59c0-2.88,0-5.45,0-7.95c-24.1-12.15-38.72-43.94-28.11-71.58C26.4,52.21,23.21,50.33,19.67,48.24z
		 M12.93,43.68c-0.43,0.87-0.74,1.35-0.93,1.87c-3.24,8.71-4.85,17.75-5.42,26.98c-0.38,6.17,0.69,12.24,1.7,18.31
		c2.25,13.51,7.54,25.57,17.26,35.39c7.34,7.42,16.1,12.68,25.98,16.05c2.05,0.7,4.26,0.97,6.89,1.54c-0.21-3.1-0.4-5.82-0.58-8.5
		c-10.79-2.66-19.41-8.14-26.46-16.4c-6.91-8.09-11.93-17.13-15.13-27.23c-1.85-5.83-2.25-11.86-2.52-17.9
		c-0.23-5.09-0.26-10.2,1.01-15.18c0.97-3.8,2.16-7.54,3.33-11.57C16.54,46.06,14.89,44.97,12.93,43.68z M86.73,12.95
		c2.46,0.71,4.74,1.39,7.04,2.03c4.85,1.35,9.31,3.55,13.55,6.21c3.79,2.38,6.81,5.6,9.53,9.11c6.53,8.43,10.77,17.89,12.66,28.39
		c0.47,2.59,0.72,5.22,1.05,7.7c3,0.21,5.64,0.39,8.58,0.59c0.41-10.38-2.37-19.77-6.78-28.71c-5.39-10.91-12.92-20-23.94-25.68
		c-6.85-3.53-13.8-6.86-21.69-8.36C86.73,7.3,86.73,9.97,86.73,12.95z M42.39,72.3c0.14,0.01,0.27,0.03,0.41,0.04
		c0,2.5-0.02,5,0.01,7.5c0.02,1.34,0.08,2.69,0.22,4.03c0.12,1.16,0.78,1.96,1.97,2.18c1.18,0.22,1.95-0.54,2.17-1.47
		c0.34-1.45,0.57-2.99,0.46-4.47c-0.41-5.34-1.24-10.64-0.89-16.04c0.8-12.34,6.94-20.87,18.16-25.8c1.81-0.8,3.8-1.39,5.76-1.63
		c2.17-0.27,4.43-0.21,6.61,0.05c4,0.48,7.98,1.16,11.3,3.78c5.14,4.07,8.51,9.28,10.36,15.55c1.64,5.52,1.82,11.14,1.41,16.83
		c-0.21,2.97-0.35,5.94-0.38,8.92c-0.02,2.17,1.37,3.06,3.45,2.38c1.73-0.56,2.5-1.85,2.4-4.06c-0.2-4.21-0.67-8.43-0.56-12.64
		c0.2-7.5-1.67-14.43-4.96-21.08c-2.89-5.85-7.44-10.08-13.3-12.62c-4.28-1.85-8.81-3.01-13.67-2.85
		c-6.59,0.22-12.48,2.27-17.63,6.13c-6.41,4.8-10.17,11.54-11.66,19.29C43.01,61.55,42.9,66.96,42.39,72.3z M128.5,66.45
		c-0.1-1.12-0.18-2.05-0.26-2.98c-0.95-11.18-5.01-21.22-11.46-30.29c-2.1-2.94-4.54-5.74-7.25-8.12
		c-6.03-5.3-13.49-7.91-21.03-10.23c-0.5-0.15-1.08-0.02-1.67-0.02c0,2.4,0,4.63,0,7.04c4.51-0.24,7.85,2.25,11.24,4.28
		c2.67,1.6,5.18,3.72,7.23,6.07c5.68,6.5,9.91,13.87,11.93,22.36c0.4,1.68,0.81,3.35,1.22,5.02c0.58,2.3,1.17,4.6,1.74,6.87
		C123.08,66.45,125.72,66.45,128.5,66.45z M98.9,74.88c-0.84-0.09-1.21-0.16-1.58-0.17c-10.26-0.2-20.52-0.39-30.78-0.59
		c-3.64-0.07-7.31,0.03-10.92-0.36c-2.35-0.25-4.49,0.22-6.82,0.45c0.35,2.92,0.68,5.64,1.01,8.34c16.33,0.6,32.38,1.58,48.72-0.08
		C98.64,80,98.76,77.55,98.9,74.88z M63.21,114.76c7.36,0,14.28,0,21.56,0c-0.08-6.33,0.64-12.57-2.54-18.34
		c-1.62-2.93-4.21-4.37-7.47-4.57c-4.45-0.27-7.34,2.08-9.53,5.73C61.94,103.02,63.07,108.86,63.21,114.76z M59.59,124.37
		c0.24,8.06,0.39,15.95,0.99,24.12c9.67-0.22,18.92-0.43,28.49-0.65c-0.37-7.83-0.73-15.34-1.1-22.98
		C78.53,123.98,69.34,124.3,59.59,124.37z M120.33,86.48c7.31,0.48,14.54,0.96,22.17,1.46c-0.36-6.52,0.77-12.75,0.43-19.09
		c-8.02-0.19-15.64-0.37-23.29-0.55C119.88,74.57,120.1,80.47,120.33,86.48z M80.61,24.36c-0.16-5.54-0.3-10.87-0.49-16.2
		c0-0.12-0.46-0.23-0.72-0.35c-0.9,0.47,0.22,2.28-1.28,2.04c-0.51-0.08-0.86-1.18-1.47-2.07c-2.94,0-6.14,0-9.51,0
		c0.13,5.79-0.57,11.4,0.83,17.16C72.04,24.76,76.03,24.57,80.61,24.36z M84.77,2.77c-7.81,0-15.3,0-22.9,0
		c0.66,7.09,1.29,13.93,1.93,20.9c0.9,0.06,1.62,0.11,2.64,0.18c0-1.71,0.06-3.23-0.01-4.75c-0.15-3.45-0.4-6.89-0.53-10.34
		c-0.03-0.89,0.23-1.8,0.37-2.87c5.23,0.26,10.16,0.51,15.35,0.77c0.15,5.85,0.29,11.42,0.43,17.2c1.33-0.42,2.22-0.71,3.2-1.02
		C85.09,16.09,84.93,9.43,84.77,2.77z M35.72,85.32c0-4.71,0-9.17,0-13.58c-2.8,0-5.32,0-7.97,0c-0.37,5.06,0.3,9.68,1.74,14.21
		C31.72,85.73,33.61,85.54,35.72,85.32z M125.94,88.99c-1.55,0.14-2.9,0.17-4.2,0.41c-0.83,0.15-1.78,0.53-1.53,1.69
		c0.24,1.11,0.86,1.74,2.2,1.79c3.13,0.14,6.25,0.48,9.38,0.75c2.37,0.21,4.75,0.46,7.12,0.66c0.47,0.04,1.02,0.08,1.41-0.13
		c0.64-0.33,1.66-0.89,1.64-1.31c-0.04-0.7-0.61-1.67-1.23-1.99c-0.98-0.5-2.18-0.63-3.31-0.78c-1.6-0.21-3.23-0.27-4.84-0.43
		C130.3,89.46,128.02,89.21,125.94,88.99z M113.6,85.13c1.85-0.15,3.24-0.26,4.86-0.39c-0.1-4.8,0.51-9.43-0.53-14.04
		c-1.75,0-3.15,0-4.86,0C113.24,75.47,113.41,80.1,113.6,85.13z M90.19,125.6c-0.24,1.3-0.52,2.14-0.53,2.98
		c-0.05,3.44,0.19,6.91-0.08,10.33c-0.22,2.82,0.56,5.11,2.22,7.21c1.81,0.02,1.88-1.28,1.81-2.39c-0.27-4.38-0.55-8.76-1.05-13.12
		C92.38,128.99,92,127.25,90.19,125.6z M86.57,120.33c-0.36-0.08-0.64-0.19-0.91-0.19c-5.65-0.12-11.3-0.27-16.95-0.31
		c-1.52-0.01-3.04,0.27-4.55,0.51c-1.13,0.18-1.3,0.96-0.93,2.06c7.68,0.33,15.41,0.65,23.33,0.99
		C86.57,122.35,86.57,121.36,86.57,120.33z M116.27,103.91c-0.04,0.29-0.08,0.59-0.12,0.88c2.68,1.96,5.96,2.74,8.84,4.3
		c2.93,1.59,5.78,3.32,8.81,5.07c0.57-0.65,1.16-1.33,1.76-2.01c-0.41-0.55-0.58-0.93-0.88-1.13c-4.7-3.18-9.67-5.86-15.17-7.37
		C118.54,103.38,117.36,103.8,116.27,103.91z M104.26,119.83c-0.29,2.61-0.26,2.63,1.09,4.29c2.24,2.75,4.44,5.53,6.67,8.3
		c0.54,0.67,1.03,1.41,1.66,1.98c1.36,1.22,2.6,1.48,3.29,0.71c1.09-1.22,0.1-2.19-0.6-3c-3.09-3.53-6.23-7.02-9.42-10.46
		C106.32,120.97,105.4,120.59,104.26,119.83z M114.36,107.14c0.39,0.53,0.61,1.09,1.04,1.37c4.56,3.02,9.16,5.98,13.74,8.97
		c1.77,1.15,2.9,0.95,4.54-0.83C130.98,113.36,118.04,106.9,114.36,107.14z M100.84,122.27c-0.15,0.19-0.3,0.38-0.45,0.57
		c0.04,0.27,0.01,0.59,0.15,0.81c2.73,4.37,5.48,8.71,8.21,13.08c1.17,1.87,2.43,2.09,4.81,0.7c-0.1-0.32-0.12-0.74-0.33-1.01
		c-3.37-4.27-6.73-8.55-10.17-12.75C102.53,123.03,101.59,122.73,100.84,122.27z M140.95,98.2c-5.22-3.16-18.2-4.67-21.49-2.41
		c0.63,0.22,1.12,0.45,1.62,0.55c5.73,1.16,11.47,2.23,17.18,3.48C139.77,100.15,140.4,99.64,140.95,98.2z M42.54,33.36
		c0.23-0.18,0.46-0.37,0.69-0.55c-1.84-5.26-5.75-9.24-8.92-13.67c-0.77-1.08-1.74-2.04-3.33-2.09c-0.76,1.68-0.03,3.09,0.89,4.23
		c3.06,3.79,6.25,7.49,9.42,11.19C41.61,32.85,42.12,33.07,42.54,33.36z M117.98,101.35c5.32,1.5,10.16,3.87,14.77,6.8
		c2.24,1.42,2.36,1.3,4.48-0.98C133.67,103.7,121.48,99.84,117.98,101.35z M107.95,140.64c-0.54-3.96-7.38-14.95-10.45-16.44
		c0.39,0.96,0.62,1.62,0.92,2.26c2.11,4.5,4.27,8.99,6.35,13.5C105.55,141.61,105.63,141.69,107.95,140.64z M40.34,37.86
		c0.16-0.22,0.32-0.45,0.49-0.67c-0.95-0.91-1.85-1.89-2.87-2.72c-3.77-3.11-7.58-6.18-11.38-9.27c-0.37-0.3-0.69-0.73-1.11-0.9
		c-0.38-0.15-0.99-0.17-1.27,0.05c-0.29,0.23-0.54,0.93-0.39,1.21c0.37,0.73,0.86,1.49,1.5,1.98c3.97,3.02,7.98,6,12.03,8.92
		C38.23,37.08,39.34,37.4,40.34,37.86z M45.87,31.69c-0.48-4.28-7.47-15.26-10.58-17.14c-1.41,1.56-1.39,1.61-0.05,3.5
		c2.99,4.21,5.94,8.45,8.95,12.65C44.45,31.07,45.04,31.21,45.87,31.69z M120.92,131.41c-3.16-4.99-7.1-9.02-11.43-12.67
		c-0.62-0.52-1.6-0.61-2.41-0.9c-0.15,0.21-0.31,0.42-0.46,0.63c0.39,0.56,0.72,1.17,1.17,1.67c3.33,3.71,6.74,7.34,9.99,11.11
		C118.79,132.42,119.58,132.42,120.92,131.41z M111.86,113.08c-0.19,0.26-0.38,0.51-0.56,0.77c0.6,0.64,1.14,1.35,1.81,1.89
		c2.91,2.34,5.86,4.63,8.79,6.94c0.98,0.77,1.93,1.58,2.93,2.32c0.85,0.62,1.71,0.74,2.43-0.15c-0.09-0.32-0.08-0.55-0.19-0.67
		c-3.73-4.03-8.05-7.34-12.59-10.38C113.77,113.32,112.74,113.31,111.86,113.08z M39.77,34.08c0.19-0.17,0.37-0.33,0.56-0.5
		c-4.08-4.37-6.88-9.94-12.22-13.2c-1.66,1.93-1.68,3.28-0.09,4.54C31.9,28.01,35.84,31.03,39.77,34.08z M82.89,116.04
		c-4.59,0-8.87-0.01-13.15,0.01c-0.76,0-1.52,0.12-2.29,0.16c-1.58,0.08-1.52,0.98-1.24,2.22c5.69,0.26,11.22,0.81,16.9,0.4
		C83.03,117.89,82.98,117.25,82.89,116.04z M48.24,29.21c0.15-0.18,0.31-0.36,0.46-0.54c-0.11-0.46-0.13-0.96-0.34-1.37
		c-1.65-3.25-3.28-6.51-5.02-9.71c-0.82-1.51-1.78-2.96-2.85-4.3c-0.59-0.74-1.54-1.18-2.32-1.76c-0.19,0.13-0.39,0.26-0.58,0.38
		c0.13,0.88-0.02,1.98,0.45,2.61c3.28,4.39,6.39,8.87,8.83,13.79C47.08,28.73,47.77,28.91,48.24,29.21z M42.59,9.89
		c-1.18,0.87-0.96,1.88-0.35,2.98c2.4,4.36,4.77,8.73,7.19,13.08c0.32,0.57,0.85,1.03,1.58,1.89C51.1,23.48,45.7,12.32,42.59,9.89z
		 M124.52,127.84c-1.69-3.56-12.15-11.45-15.29-11.7c0.04,0.18,0.03,0.41,0.14,0.52c3.51,3.5,6.99,7.02,10.57,10.45
		C121.13,128.25,122.62,128.83,124.52,127.84z M61.12,23.7c0.18-0.02,0.36-0.04,0.53-0.06c0.08-0.27,0.23-0.54,0.21-0.8
		c-0.25-4.59-0.44-9.19-0.82-13.77c-0.11-1.29-0.72-2.57-1.22-3.8c-0.29-0.72-0.95-1.47-1.77-0.9c-0.51,0.35-0.69,1.22-0.92,1.88
		c-0.08,0.22,0.15,0.54,0.21,0.82c0.72,3.08,1.44,6.15,2.14,9.23C60.04,18.77,60.57,21.24,61.12,23.7z M45.99,7.83
		c-1.1,1.04-1.12,1.93-0.38,2.97c0.67,0.93,1.29,1.92,1.77,2.96c1.62,3.48,3.18,6.98,4.75,10.48c0.42,0.93,0.58,2.11,2.35,1.83
		c-0.13-0.73-0.16-1.47-0.41-2.13c-1.44-3.76-2.94-7.5-4.4-11.26C48.92,10.76,47.88,9.08,45.99,7.83z M130.33,121.03
		c-3.27-3.75-14.97-10.99-17.9-10.91c0.46,0.52,0.73,1.02,1.15,1.28c1.05,0.65,2.27,1.05,3.23,1.79c3.19,2.46,6.31,4.99,9.42,7.55
		C128.03,122.22,128.62,122.31,130.33,121.03z M56.64,25.09c0.2-0.1,0.39-0.2,0.59-0.3c-0.17-0.81-0.27-1.64-0.53-2.41
		c-1.13-3.35-2.3-6.68-3.46-10.02c-0.57-1.63-1.07-3.28-1.76-4.85c-0.2-0.45-0.95-0.67-1.45-0.99c-0.3,0.55-0.74,1.06-0.86,1.65
		c-0.08,0.39,0.24,0.88,0.43,1.31c0.8,1.84,1.67,3.65,2.43,5.5c1.17,2.83,2.24,5.69,3.43,8.52C55.69,24.08,56.23,24.56,56.64,25.09z
		 M94.85,129.92c-0.29,0.03-0.57,0.07-0.86,0.1c0.32,3.89,0.56,7.79,1,11.67c0.1,0.87,0.77,1.74,1.36,2.47
		c0.28,0.35,1.07,0.59,1.48,0.45c0.43-0.14,0.9-0.79,0.95-1.26c0.08-0.74-0.07-1.54-0.3-2.26C97.3,137.36,96.07,133.64,94.85,129.92
		z M58.95,24.17c0.4-2.69-1.95-14.46-3.52-18.44c-0.21-0.52-0.45-1.04-0.77-1.77c-1.63,2.67-1.65,2.67-1.08,4.45
		c1.08,3.38,2.16,6.76,3.29,10.12C57.47,20.29,58.15,22.02,58.95,24.17z M102.85,142.73c0.2-2.43,0.21-2.43-1.55-6.2
		c-0.89-1.9-1.85-3.77-2.72-5.68c-1.78-3.92-1.77-3.93-3.46-5.04c1.97,5.67,3.86,11.13,5.83,16.8
		C101.39,142.64,102.03,142.68,102.85,142.73z M120.08,97.86c-0.07,0.27-0.14,0.53-0.2,0.8c0.89,0.25,1.77,0.54,2.67,0.75
		c4.2,0.96,8.34,2.09,12.24,3.98c0.43,0.21,0.85,0.44,1.3,0.61c1.6,0.61,1.93,0.39,2.72-1.98C132.68,100,126.4,98.81,120.08,97.86z
		 M37.21,73.6c0.27,3.33,0.51,6.31,0.75,9.32c1.2,0,2.17,0,3.02,0c0-3.07,0-5.9,0-8.78C39.75,73.97,38.74,73.82,37.21,73.6z
		 M111.44,74.73c-1.17-0.08-2.25-0.15-3.61-0.24c0,3.08,0,5.87,0,8.87c1.14-0.06,2.33-0.12,3.61-0.19
		C111.44,80.25,111.44,77.63,111.44,74.73z"/>
	<path d="M69.25,112.31c-0.5,0.27-0.66,0.4-0.84,0.44c-3.48,0.76-3.97,0.34-4.15-3.22c-0.21-4.09,0.55-7.96,2.1-11.75
		c1.04-2.54,2.81-3.92,5.22-4.67c0.99,0.66,0.81,1.44,0.35,2.07c-3.37,4.61-3.38,9.79-2.7,15.12
		C69.32,110.95,69.25,111.62,69.25,112.31z M67.64,111.24c0.16-5.12-0.73-10.45,1.83-15.39c-1.85,1.79-2.71,4.05-3.11,6.38
		c-0.44,2.61-0.46,5.3-0.56,7.95C65.76,111.24,66.35,111.76,67.64,111.24z"/>
	<path d="M63.92,128.76c7.11,0,13.58,0,20.24,0c0.27,4.52,0.64,8.97,0.76,13.42c0.06,2.26-0.52,2.68-2.73,2.7
		c-5.37,0.03-10.74,0.04-16.1,0c-2.49-0.02-3.04-0.4-2.97-2.77C63.24,137.73,63.62,133.36,63.92,128.76z M64.33,143.07
		c3.53,0,6.59,0,9.66,0c3.01,0,6.02,0,9.37,0c-0.32-4.36-0.61-8.33-0.9-12.37c-5.81,0-11.33,0-16.99,0
		C65.08,134.89,64.72,138.88,64.33,143.07z"/>
	<path d="M136.27,79c-0.04,2.55-2.42,4.8-5.1,4.82c-2.77,0.02-5.82-2.81-5.76-5.36c0.07-3.05,3-6.1,5.82-6.07
		C133.98,72.43,136.32,75.51,136.27,79z M134.57,78.82c0.04-2.75-1.66-4.65-4.2-4.68c-1.96-0.02-3.62,1.86-3.69,4.16
		c-0.05,1.65,2.44,3.85,4.34,3.85C132.89,82.15,134.54,80.61,134.57,78.82z"/>
	<path d="M140.6,71.53c-0.63,0.35-1.03,0.75-1.34,0.69c-0.33-0.06-0.57-0.57-0.85-0.89c0.34-0.26,0.67-0.71,1.02-0.72
		C139.73,70.59,140.05,71.07,140.6,71.53z"/>
	<path d="M124.04,70.78c-0.67,0.43-1.07,0.86-1.48,0.88c-0.3,0.02-0.63-0.51-0.95-0.8c0.39-0.32,0.73-0.77,1.18-0.9
		C123.03,69.9,123.43,70.37,124.04,70.78z"/>
	<path d="M140.99,84.58c-0.55,0.44-0.87,0.91-1.2,0.91c-0.34,0-0.68-0.45-1.02-0.7c0.28-0.31,0.54-0.83,0.86-0.89
		C139.96,83.84,140.37,84.24,140.99,84.58z"/>
	<path d="M122.59,84.96c-0.3-0.59-0.62-0.95-0.62-1.31c0-0.24,0.55-0.72,0.7-0.66c0.34,0.13,0.82,0.51,0.82,0.79
		C123.49,84.1,123.03,84.42,122.59,84.96z"/>
	<path d="M70.43,9.31c-0.56,0.43-0.85,0.75-1.2,0.87c-0.11,0.04-0.58-0.47-0.56-0.7c0.02-0.26,0.38-0.62,0.65-0.68
		C69.55,8.74,69.87,9.03,70.43,9.31z"/>
	<path d="M84.47,4.44c-0.48,0.42-0.75,0.79-1.11,0.91c-0.15,0.05-0.73-0.49-0.68-0.6c0.13-0.37,0.42-0.75,0.75-0.96
		C83.55,3.71,83.97,4.11,84.47,4.44z"/>
	<path d="M21.29,28.51c0.73,0.06,1.43-0.07,1.82,0.95c0.32,0.82,1,1.64,1.74,2.15c3.53,2.47,7.11,4.86,10.71,7.23
		c1.68,1.11,2,1.68,1.23,3.49c-0.48,1.14-1.2,2.17-1.84,3.24c-0.97,1.64-1.97,3.26-3.12,5.17c-3.01-1.26-5.52-3.3-8.24-4.97
		c-2.76-1.69-5.62-3.21-8.26-4.7c-0.15-2.31,0.66-3.62,2-4.9c1.44-1.37,2.53-3.11,3.83-4.64c0.87-1.02,0.88-2.02,0.22-3.11
		C21.38,28.43,21.29,28.51,21.29,28.51z M30,47.83l-0.06-0.02c0.35,0.27,0.7,0.54,1.25,0.95c1.58-2.69,3.06-5.2,4.5-7.66
		c-4.45-3.11-8.57-6-12.76-8.92c-1.05,1.33-2.01,2.64-3.07,3.87c-1.03,1.2-2.15,2.31-3.45,3.7C21.16,42.58,25.58,45.21,30,47.83z"/>
	<path d="M78.17,136.68c-0.03,2.2-2.2,4.06-4.65,3.99c-2.39-0.07-4.53-2.25-4.57-4.65c-0.05-2.49,2.11-3.76,4.5-3.73
		C76.09,132.31,78.2,134.36,78.17,136.68z M73.37,133.93c-1.61,0.05-2.51,0.97-2.46,2.52c0.05,1.47,1.43,2.73,2.86,2.6
		c1.22-0.11,2.78-1.48,2.8-2.48C76.6,135.29,74.91,133.89,73.37,133.93z"/>
	<path d="M82.22,141.26c-0.58,0.48-0.99,1.08-1.36,1.06c-0.36-0.02-1-0.7-0.97-1.03c0.04-0.41,0.61-1.01,1.02-1.08
		C81.22,140.15,81.66,140.79,82.22,141.26z"/>
	<path d="M68.39,132.92c-0.7,0.42-1.15,0.88-1.39,0.79c-0.44-0.17-0.85-0.62-1.07-1.06c-0.07-0.14,0.61-0.91,0.75-0.86
		C67.2,131.99,67.65,132.41,68.39,132.92z"/>
	<path d="M80.68,133.98c-0.44-0.53-0.96-0.9-0.91-1.16c0.08-0.44,0.52-0.81,0.81-1.21c0.31,0.27,0.88,0.56,0.86,0.8
		C81.41,132.88,81.04,133.31,80.68,133.98z"/>
	<path d="M66.52,142.26c-0.47-0.5-0.83-0.77-0.99-1.13c-0.05-0.11,0.49-0.71,0.63-0.66c0.36,0.11,0.74,0.4,0.92,0.73
		C67.16,141.35,66.8,141.75,66.52,142.26z"/>
	<path d="M33.53,40.9c0.26,0.73,0.54,1.14,0.51,1.52c-0.03,0.26-0.49,0.48-0.76,0.72c-0.27-0.34-0.75-0.67-0.76-1.01
		C32.51,41.82,33.02,41.5,33.53,40.9z"/>
	<path d="M24.28,34.6c-0.31,0.33-0.56,0.7-0.64,0.67c-0.27-0.12-0.55-0.34-0.69-0.59c-0.05-0.09,0.3-0.58,0.43-0.56
		C23.65,34.15,23.91,34.39,24.28,34.6z"/>
	<path d="M30,47.83c-0.36-0.57-1.29-1.03-0.42-1.85c0.11-0.11,0.48,0.06,0.73,0.09c-0.13,0.57-0.27,1.14-0.39,1.72
		C29.94,47.81,30,47.83,30,47.83z"/>
</g>
</svg>
