<?xml version="1.0" encoding="utf-8"?>
<!-- Generator: Adobe Illustrator 23.1.0, SVG Export Plug-In . SVG Version: 6.00 Build 0)  -->
<svg version="1.1" id="Layer_1" xmlns="http://www.w3.org/2000/svg" xmlns:xlink="http://www.w3.org/1999/xlink" x="0px" y="0px"
	 viewBox="0 0 150 150" style="enable-background:new 0 0 150 150;" xml:space="preserve">
<path d="M80.32,47.27C81.26,47,82,45.45,83.63,46.1c0.3,0.12,1.04-0.66,1.49-1.12c1.98-2.03,3.92-4.09,5.97-6.23
	c-0.85-2.03-1.75-4.2-2.78-6.65c-4.74,0-9.63,0-14.72,0c-0.36-1.15-0.66-2.11-1.04-3.31c-4.07,0-8.27,0-12.67,0
	c-0.09,0.91-0.17,1.81-0.29,2.97c-3.66,1.14-7.3,0.66-11.08-0.48c-0.11-1.36-0.22-2.66-0.35-4.17c-1.14,0-2.19,0-3.42,0
	c-0.13,1.66-0.24,3.23-0.39,5.13c-5.27,0-10.41,0-15.78,0c-0.1-1.25-0.22-2.72-0.35-4.33c-1.69,0-3.26,0-5.02,0
	c-0.43-3.32-0.55-6.49-0.18-9.69c0.19-1.69,0.36-3.38,0.39-5.08c0.05-2.55,0.14-2.71,2.67-2.9c0.47-0.04,0.94-0.07,1.62-0.12
	c0.13-1.19,0.26-2.37,0.42-3.87c5.8,0,11.54-0.12,17.13,0.28c-0.31,1.75-0.55,3.13-0.86,4.92c1.46-0.19,2.42-0.31,3.43-0.44
	c0-1.2,0.05-2.14-0.01-3.07c-0.09-1.44,0.64-2.17,1.98-2.19c2.92-0.06,5.84-0.02,8.85-0.02c0.31,1.09,0.57,1.97,0.8,2.79
	c4.43,0,8.83,0,13.17,0c0.9-4.7,0.91-3.68,4.92-3.75c1.39-0.03,2.78,0.29,4.37,0.48c0.13-1.74,0.25-3.3,0.4-5.16
	c4.03,0.16,7.91,0.31,12.18,0.48c0.23,1.35,0.54,3.07,0.88,5.04c3.04,0,6.11,0,9.32,0c0-0.97,0-1.89,0-2.81
	c-0.01-2.23,0.13-2.53,2.29-2.61c3.74-0.15,7.5-0.13,11.56-0.19c0.18,2.06,0.34,3.8,0.5,5.68c1.92,0,3.78,0.02,5.65-0.01
	c1.39-0.02,2.36,0.38,2.69,1.92c0.12,0.57,0.58,1.14,1.03,1.55c4.77,4.28,7.89,9.42,9.69,15.67c1.31,4.53,0.56,8.54-0.66,12.74
	c-2.03,6.97-6.58,11.8-12.83,15.19c-0.83,0.45-1.64,0.92-2.58,1.45c0.24,7.39,0.57,14.75,0.69,22.12c0.12,6.9,0.05,13.8,0.01,20.69
	c-0.03,4.92-0.15,9.84-0.25,14.76c-0.03,1.53-0.01,2.82,1.43,4.02c0.81,0.67,0.76,2.39,1.12,3.71c2.22,0.82,2.22,0.82,2.94,3.56
	c0.08,0.04,0.17,0.13,0.25,0.12c4.29-0.38,4.38-0.34,4.4,4.16c0.03,4.73-0.05,9.47-0.09,14.21c-0.03,2.75-0.1,2.83-2.71,3.36
	c-0.73,0.15-1.46,0.26-2.29,0.4c0,0.97,0,1.79,0,2.64c-1.51,1.54-3.43,1.08-5.11,0.87c-9.62-1.2-19.25-0.88-28.9-0.62
	c-6.23,0.16-12.48-0.29-18.71-0.28c-6.43,0.01-12.85,0.25-19.28,0.38c-1.61,0.03-3.22,0.03-4.83,0.05
	c-5.27,0.07-10.55-0.37-15.74,1.26c-2.87,0.9-5.79,0.24-8.43-1.28c-7.34-4.23-10.23-10.83-8.23-19.23c0.87-3.67,2.79-6.8,5.03-9.77
	c0.68-0.9,1.38-1.77,2.14-2.75c-0.59-0.83-1.08-1.63-1.68-2.33c-1.23-1.43-1.96-2.86-0.24-4.51c-0.9-1.15-1.65-2.24-2.52-3.21
	c-10.01-11.2-7.93-24.72-1.13-34.49c0.59-0.85,1.3-1.63,1.89-2.49c0.56-0.81,1.45-1.5,0.77-2.77c-0.17-0.32,0.38-1.2,0.79-1.65
	C26.86,61.27,30.4,57.46,34,53.7c0.55-0.57,1.42-0.84,2.13-1.26c0.55-0.33,1.18-0.6,1.61-1.06c4.72-5.05,10.37-8.43,17.17-9.91
	c3.85-0.83,7.69-1.24,11.46,0.1c3.1,1.1,6.12,2.45,9.17,3.7C76.98,45.86,78.42,46.47,80.32,47.27z M40.95,102.62
	c9.15-12.97,19.42-24.93,29.87-36.75c1.3-1.47,2.36-3.15,3.45-4.62c-0.55-1.77-2.95-1.8-2.82-4.14c0.08-1.39-2.39-2.4-1.32-4.3
	c-3.17-1.6-8.14-2.75-10.55-2.62c-6.47,0.35-11.28,3.9-15.75,8.12c-0.14,0.13-0.31,0.25-0.39,0.41c-2.73,5.47-7.02,9.78-10.74,14.52
	c-0.91,1.15-1.84,1.79-3.19,1.24c-5.52,6.45-5.93,20.06,0.96,26.88c0.68-0.38,1.38-0.77,2.1-1.17c1.32,0.95,2.54,1.83,3.77,2.73
	c0.79-0.59,1.53-1.14,2.32-1.73C39.37,101.63,39.99,102.02,40.95,102.62z M114.35,114.61c-0.1-2.06-0.18-3.93-0.28-5.79
	c-0.22-4.15-0.55-8.29-0.66-12.44c-0.07-2.83,0.28-5.66,0.25-8.49c-0.1-10.3-0.28-20.6-0.44-30.9c-0.01-0.61-0.1-1.22-0.15-1.82
	c-0.19-0.06-0.39-0.12-0.58-0.18c-0.49,0.8-1.54,1.76-1.37,2.38c0.52,1.84-0.5,2.84-1.48,3.96c-1.34,1.53-2.68,3.06-3.98,4.55
	c2.85,3,2.85,3,0.43,5.81c-1.85,2.15-3.73,4.27-5.54,6.45c-1.61,1.94-1.81,2.03-4.33,1.03c-2.33,2.88-4.68,5.78-6.83,8.43
	c1.52,2.94,2.92,5.56,4.24,8.22c2.04,4.11,2.23,8.53,2.07,13.01c-0.07,1.97-0.01,3.94-0.01,5.99c3.67,0.54,2.44,3.52,2.82,5.55
	c4.2,0,8.22,0,12.45,0c0-1.95,0-3.6,0-5.37C112.09,114.88,113.01,114.77,114.35,114.61z M125.32,122.19c-1.61,0-3.18-0.02-4.75,0
	c-8.14,0.11-16.28,0.33-24.42,0.33c-8.33,0-16.66-0.23-24.99-0.31c-2.27-0.02-4.54,0.11-6.81,0.25c-1.15,0.07-2.04,0.48-2.79,1.59
	c-2.14,3.23-4.5,6.31-6.75,9.48c-3.3,4.64-6.76,9.13-11.52,12.43c-0.15,0.11-0.15,0.45-0.24,0.78c0.68,0.03,1.24,0.1,1.8,0.08
	c6.8-0.21,13.61-0.41,20.41-0.66c2.45-0.09,4.9-0.42,7.35-0.4c3.02,0.03,6.03,0.49,9.05,0.47c7.19-0.06,14.38-0.29,21.57-0.46
	c5.21-0.13,10.39,0.06,15.56,0.77c2.2,0.3,4.47,0.05,6.96,0.05C125.61,138.51,125.47,130.52,125.32,122.19z M75.06,29.92
	c0.59,0.08,0.95,0.19,1.32,0.18c7.46-0.12,14.92-0.23,22.38-0.44c0.7-0.02,1.5-0.64,2.06-1.19c1.95-1.92,3.68-4.09,5.75-5.87
	c4.07-3.51,8.55-6.3,14.25-5.9c1.62,0.11,3.21,0.61,4.97,0.97c-0.08-3.49,0.25-6.86-0.77-10.25c-3.91,0-7.65-0.06-11.4,0.02
	c-2.16,0.05-4.33,0.46-6.49,0.45c-4.15-0.02-8.31-0.18-12.46-0.35c-4.9-0.2-9.79-0.48-14.68-0.72c-1.47-0.07-2.94-0.16-4.61-0.26
	C75.53,14.47,74.49,22.17,75.06,29.92z M38.63,103.31c-1.26,1.47-2.36,2.64-3.34,3.9c-2.55,3.28-4.79,6.83-7.64,9.82
	c-2.12,2.22-3.99,4.54-5.58,7.1c-3.85,6.2-3.71,13.64,0.95,18.97c4.19,4.79,11.29,6.31,16.64,3.01c4.21-2.6,7.93-5.86,10.94-9.81
	c3.04-3.99,5.91-8.1,8.83-12.18c0.59-0.82,1.06-1.72,1.62-2.64c-1.35-1.1-2.51-2.06-3.68-3c-0.21-0.17-0.47-0.28-1.11-0.64
	c-0.59,0.73-1.14,1.66-1.92,2.31c-1,0.83-2.18,1.46-3.3,2.14c-1.15,0.71-2.14,0.3-3.12-0.45c-2.05-1.56-2.21-4.3-0.33-7.12
	c0.51-0.77,1.15-1.45,1.74-2.19C45.72,109.44,42.3,106.48,38.63,103.31z M76.16,62.38c-5.99,5.61-30.27,35.2-34.09,41.5
	c2.45,2.73,5.08,5.25,8.05,7.22c12.65-13.27,22.98-28.08,34.14-42.21C81.58,66.74,78.94,64.62,76.16,62.38z M109.15,56.31
	c2.83-3.47,5.27-6.45,7.7-9.44c3.76-4.62,7.25-9.41,10.2-14.62c1.71-3.02,1.44-5.77,0.21-8.9c-1.59-4.03-5.51-5.55-9.17-4.84
	c-3.78,0.73-7.28,2.38-9.96,5.08c-4.18,4.22-8.06,8.75-12.01,13.21c-0.91,1.02-1.56,2.27-2.5,3.66
	C98.79,45.74,103.79,50.84,109.15,56.31z M98.22,77.66c2.71-3.02,5.39-6.01,8.28-9.23c-8.09-7.13-16-14.1-23.92-21.09
	c-3.07,3.64-5.98,7.09-9.04,10.72c4.21,2.97,7.54,7.02,12.06,9.62c0.64-0.69,1.05-1.22,1.54-1.65c0.49-0.44,1.03-0.83,1.61-1.15
	c1.77-0.99,3.69-0.78,4.98,0.48c1.44,1.4,1.63,2.91,0.54,4.9c-0.58,1.06-1.27,2.05-1.95,3.14C94.42,74.91,96.37,76.32,98.22,77.66z
	 M114.73,54.34c0,2.67-0.02,5.21,0,7.74c0.12,10.97,0.22,21.95,0.4,32.92c0.1,6.23,0.35,12.46,0.56,18.69
	c0.01,0.26,0.2,0.51,0.37,0.93c1.71,0,3.44,0,5.16,0c0.08-20.18,0.45-40.2-1.16-60.46c-1.09,0-2.2-0.02-3.31,0.01
	C116.11,54.19,115.47,54.28,114.73,54.34z M48.16,117.52c-0.17,2.47,1.01,3.42,2.58,2.64c1.07-0.54,2.15-1.26,2.93-2.16
	c1.98-2.27,3.76-4.72,5.68-7.05c5.05-6.12,10.16-12.19,15.18-18.34c4.78-5.85,9.5-11.76,14.19-17.68c1.35-1.7,2.56-3.52,3.74-5.34
	c0.65-1,0.85-2.2-0.18-3.09c-0.91-0.78-1.97-0.43-2.9,0.13c-0.4,0.24-0.79,0.54-1.08,0.9c-3.69,4.42-7.42,8.81-11.03,13.3
	c-5.03,6.26-9.9,12.65-14.97,18.87c-4.06,4.98-8.38,9.75-12.48,14.69C48.94,115.44,48.51,116.85,48.16,117.52z M84.63,120.2
	c0.22-2.05-0.01-3.76,1.75-4.68c0.26-0.14,0.34-0.87,0.3-1.31c-0.32-3.67-0.67-7.33-1.05-10.99c-0.3-2.82-1.34-5.1-4.54-5.66
	c-2.91,3.2-18.72,20.31-19.27,23.11c0.87,0.15,1.73,0.43,2.58,0.41c3.97-0.09,7.93-0.24,11.89-0.42
	C79.02,120.56,81.74,120.37,84.63,120.2z M127.58,10.66c0,3.26-0.04,5.89,0.03,8.52c0.02,0.62,0.29,1.28,0.59,1.85
	c2.49,4.72,2.15,9.31-0.74,13.69c-2.7,4.1-5.54,8.11-8.37,12.12c-1.4,1.97-2.93,3.85-4.51,5.92c4.83,0.21,7.03-0.18,9.56-1.73
	c3.98-2.44,7.83-5.05,9.88-9.48c1.55-3.35,2.89-6.79,3.25-10.51c0.05-0.56,0.21-1.14,0.11-1.68
	C136.16,22.31,133.48,16.02,127.58,10.66z M24.61,69.15c-11.78,11.89-11.78,27.96,0.08,38.99c1.56-1.7,3.11-3.4,4.61-5.03
	c-7.76-10-7.41-20-1.15-30.29C27.02,71.65,25.87,70.46,24.61,69.15z M42.49,10.33c-0.55-0.08-1.24-0.17-1.86-0.25
	c-0.19-1.75,1.24-1.17,2.26-1.91c-4.65-0.14-8.87-0.92-13.47-0.41c0,1.73-0.07,3.32,0.01,4.9c0.23,4.05,0.34,8.07-0.18,12.14
	c-0.26,2.03-0.24,4.3,0.6,6.05c4.56,0,8.86,0,13.5,0C43.07,23.86,42.78,17.22,42.49,10.33z M59.81,118.89
	c4.51-5.13,8.84-9.99,13.1-14.91c5.75-6.65,11.47-13.32,17.15-20.03c1.69-2,3.21-4.14,4.95-6.39c-1.43-0.92-2.66-1.72-4.14-2.68
	c-5.17,6.48-10.15,12.77-15.18,19.01c-5.04,6.25-10.16,12.45-15.2,18.7c-1.1,1.37-2.03,2.87-3.09,4.39
	C58.34,117.73,59.07,118.3,59.81,118.89z M85.22,47.31c6.46,5.97,12.7,11.72,19.05,17.59c1.98-2.24,3.77-4.25,5.54-6.25
	c-6.14-6.04-12.16-11.96-18.26-17.96C89.49,42.83,87.42,45,85.22,47.31z M74.86,47.57c-11.98-8.2-26.32-6.33-37.06,6.23
	c1.11,1.62,2.29,3.16,4.03,4.04c1.96-1.6,3.78-3.1,5.62-4.58c5.79-4.62,12.31-5.99,19.46-4.19c1.73,0.43,3.36,1.22,5.18,1.89
	C72.95,49.91,73.83,48.83,74.86,47.57z M49.69,30.34c3.11,0,5.69,0,8.22,0c0.55-4.11,0.33-20.95-0.3-22.92c-2.65,0-5.35,0-7.92,0
	C49.69,15.11,49.69,22.69,49.69,30.34z M94.36,115.22c0.65-8.81-0.39-18.57-4.41-21.5c-1.57,1.45-3.18,2.95-4.69,4.35
	c2.82,5.53,2.19,11.37,2.7,17.15C90.15,115.22,92.17,115.22,94.36,115.22z M30.87,72.64c3.57-4.36,6.94-8.48,10.33-12.63
	c-1.82-1.95-3.53-3.78-5.33-5.71c-4.03,4.04-7.89,7.94-11.46,12.18C26.62,68.58,28.58,70.46,30.87,72.64z M127.52,125.18
	c0,6.27,0,12.2,0,18.36c1.25-0.25,2.31-0.46,3.49-0.69c0-6.15,0-12.06,0-18.23C129.82,124.82,128.74,124.99,127.52,125.18z
	 M32.38,101.86c-1.43,1.71-2.76,3.29-4.08,4.88c-1.37,1.64-2.74,3.29-4.2,5.04c0.98,1.09,1.77,1.96,2.81,3.11
	c2.85-3.6,5.51-6.95,8.25-10.42C34.15,103.53,33.29,102.72,32.38,101.86z M24.51,11.49c0.49,5.12-0.44,9.88,0.29,14.7
	c1.22-0.06,2.22-0.12,3.35-0.18c-0.18-4.92-0.35-9.66-0.52-14.52C26.71,11.49,25.82,11.49,24.51,11.49z M63.54,9.73
	c-0.71,0.8-1.24,1.13-1.28,1.5c-0.09,0.93,0.04,1.88,0.09,2.82c0.19,3.18,0.41,6.36-0.52,9.68c-1.06-0.81-0.84-1.8-0.84-2.69
	c-0.02-3.12-0.01-6.24-0.01-9.36c0-0.91-0.08-1.71-1.22-1.41c0,5.57,0,11.01,0,16.44c1.33,0,2.41,0,3.77,0
	C63.54,21.19,63.54,15.84,63.54,9.73z M116.66,2.47c-3.41-0.98-6.63-0.86-9.96-0.38c0,1.39,0,2.64,0,4.09
	c3.51,0.06,6.82,0.14,10.24-0.03C116.83,4.74,116.76,3.71,116.66,2.47z M44.77,13.15c0,4.23,0,8.14,0,12.14
	c1.13-0.07,2.05-0.14,2.89-0.19c0-4.16,0-8.21,0-12.51C46.47,12.81,45.66,12.97,44.77,13.15z M86.56,120.49c3.52,0,6.87,0,10.39,0
	c-0.08-1.23-0.15-2.4-0.23-3.75c-2.6,0-5.02,0-7.44,0C86.47,116.73,86.18,117.08,86.56,120.49z M123.07,116.33c-3.6,0-7.04,0-10.8,0
	c0.21,1.33,0.39,2.48,0.6,3.74c3.53,0.02,6.87,0.26,10.21-0.25C123.07,118.47,123.07,117.47,123.07,116.33z M83.64,1.68
	c0.08,1.52,0.14,2.61,0.22,3.97c3.23,0,6.26,0.15,9.58-0.12c-0.25-1.23-0.43-2.1-0.57-2.77C89.7,2.39,86.86,2.05,83.64,1.68z
	 M69.81,27.13c1.16-5.94,0.6-11.34,0.76-16.61c-1.6-0.52-1.82,0.19-1.84,1.19c-0.1,4.69-0.23,9.37-0.27,14.06
	C68.47,26.12,69.15,26.48,69.81,27.13z M89.94,31.98c0.87,2.33,1.3,4.31,3.09,5.78c1.51-1.93,2.92-3.73,4.52-5.78
	C94.88,31.98,92.66,31.98,89.94,31.98z M65.16,10.32c0,5.63,0,10.95,0,16.28c1.49-0.25,1.59-0.24,1.64-0.86
	c0.13-1.59,0.23-3.18,0.24-4.78c0.03-3.29,0.01-6.57-0.01-9.86c0-0.25-0.13-0.5-0.21-0.78C66.31,10.32,65.85,10.32,65.16,10.32z
	 M88.03,88.9c-2.03,2.46-3.8,4.61-5.67,6.89c0.61,0.49,1.08,0.87,1.54,1.24c2.14-1.87,4.16-3.63,6.3-5.5
	C89.51,90.69,88.87,89.92,88.03,88.9z M77.2,47.04c-2,2.56-3.73,4.77-5.57,7.11c0.54,0.44,0.94,0.77,1.64,1.33
	c1.86-2.11,3.64-4.13,5.51-6.25C78.26,48.51,77.84,47.93,77.2,47.04z M72.85,10.55c-0.24-0.02-0.49-0.03-0.73-0.05
	c0.12,2,0.24,4.01,0.36,6.01c0.12,0,0.24,0,0.37-0.01C72.85,14.53,72.85,12.54,72.85,10.55z M72.74,22.79c-0.08,0-0.16,0-0.24,0
	c-0.09,1.12-0.18,2.24-0.28,3.36c0.17,0,0.34,0.01,0.51,0.01C72.74,25.04,72.74,23.91,72.74,22.79z"/>
<path d="M112.24,142.26c-1.59-0.29-3.24-0.84-4.89-0.85c-6.62-0.07-13.23,0.01-19.85,0.07c-2.37,0.02-4.73,0.16-7.1,0.16
	c-1.76,0-3.59-0.46-4.73,1.55c-0.2,0.36-1.04,0.6-1.53,0.53c-3.26-0.47-6.57-0.78-9.74-1.64c-3.86-1.05-5.42-4.27-4.52-8.2
	c0.75-3.3,2.45-5.56,5.9-6.54c3.05-0.86,6.12-1.16,9.24-1.21c0.27,0,0.66-0.01,0.79,0.15c1.78,2.22,4.35,1.4,6.53,1.51
	c5.2,0.25,10.43,0.31,15.62,0c3.52-0.21,7.06-0.22,10.59-1.28c3.39-1.01,6.98,0.07,10.1,1.75c3.09,1.67,3.56,4.78,3.14,7.91
	c-0.4,2.96-2.78,4.4-5.28,5.39C115.25,142.07,113.76,142.03,112.24,142.26z M76.98,140.44c10.5-0.44,20.93-0.89,31.57-1.34
	c-0.33-3.33-0.66-6.58-1-9.95c-0.3-0.04-0.66-0.13-1.02-0.1c-0.24,0.02-0.47,0.19-0.67,0.28c0.19,6.66,0.19,6.66-1.11,8.06
	c-0.25-0.86-0.6-1.52-0.6-2.18c-0.01-1.79,0.13-3.59,0.19-5.39c0-0.15-0.14-0.31-0.29-0.6c-0.64,0.03-1.34,0.07-2.06,0.1
	c-0.58,2.73,0.83,5.53-1.01,7.92c-1.39-2.51-0.31-5.31-1.01-7.88c-1.33,0.3-1.37,0.3-1.39,1.13c-0.03,1.8,0.02,3.6-0.03,5.4
	c-0.01,0.45-0.26,0.9-0.4,1.35c-1.54-2.57-0.48-5.36-1.14-7.89c-0.65,0-1.18,0-1.78,0c0,1.45,0.11,2.77-0.03,4.06
	c-0.13,1.25,0.64,2.76-1.24,4.23c-0.12-2.97-0.21-5.44-0.32-8.09c-0.95,0.07-1.65,0.11-2.17,0.15c0,2.47,0.04,4.72-0.04,6.97
	c-0.02,0.44-0.53,0.85-0.81,1.28c-0.22-0.08-0.44-0.15-0.66-0.23c0-2.78,0-5.56,0-8.51c-0.93,0.1-1.53,0.16-2.15,0.22
	c0.02,2.69,0.79,5.26-0.45,8.29c-1.75-3,0.35-6.29-2.11-8.99c-0.86,2.99,0.95,5.69-1.05,8.72c-0.23-1.36-0.4-2.11-0.47-2.87
	c-0.13-1.41-0.18-2.83-0.3-4.24c-0.11-1.23-0.79-1.3-1.84-0.83c0.28,2.88,0.99,5.72-0.54,8.43c-0.48-0.65-0.7-1.31-0.72-1.99
	c-0.06-1.8,0-3.6-0.07-5.4c-0.03-0.73-0.1-1.61-1.47-1.27c-0.08,2.39-0.13,4.83-0.29,7.27c-0.04,0.53-0.42,1.4-0.77,1.48
	C76.14,138.41,76.83,139.32,76.98,140.44z M74.51,127.53c-3.39-0.46-6.39,0.15-9.29,1.4c-2.99,1.29-4.82,5.92-3.39,8.83
	c0.39,0.79,1.11,1.63,1.89,1.98c3.39,1.54,6.96,2.05,10.78,1.63C74.51,136.69,74.51,132.26,74.51,127.53z M109.33,127.96
	c0.3,4.33,0.58,8.25,0.87,12.38c1.99,0,3.87,0.17,5.72-0.04c2.1-0.24,4.33-2.46,4.58-4.17c0.38-2.64-0.78-5.64-2.86-6.62
	C115.15,128.33,112.51,127.71,109.33,127.96z M76.69,128.88c-0.71,1.99,0.58,3.62,0.4,5.32c0.27-1.59,0.27-3.17,0.25-4.76
	C77.34,129.34,77.1,129.23,76.69,128.88z"/>
<path d="M82.3,14.78c2.34-0.02,4.17,1.55,4.25,3.65c0.07,1.92-1.83,3.87-3.75,3.83c-2.24-0.04-4.58-2.01-4.56-3.85
	C78.26,15.96,79.56,14.8,82.3,14.78z M82.32,16.62c-1.77,0.01-2.76,0.67-2.69,1.79c0.06,0.97,1.62,2.04,3.02,2.08
	c1.06,0.03,2.06-0.84,2.14-1.84C84.87,17.44,83.86,16.61,82.32,16.62z"/>
<path d="M93.71,22.29c-2.33,0.03-3.69-1.28-3.73-3.61c-0.04-2.41,1.54-4.4,3.45-4.37c2.11,0.04,3.88,2,3.94,4.37
	C97.43,21,96.16,22.26,93.71,22.29z M93.26,16.11c-1.08,0.07-1.67,0.99-1.59,2.49c0.08,1.54,0.81,2.17,2.34,2.02
	c1.28-0.13,1.8-0.75,1.71-2.04C95.63,17.07,94.59,16.02,93.26,16.11z"/>
<path d="M78.37,27.76c-0.73,0.5-1.17,1.02-1.55,0.99c-0.38-0.03-0.98-0.64-0.98-1c0-0.41,0.54-0.83,0.85-1.24
	C77.15,26.86,77.63,27.21,78.37,27.76z"/>
<path d="M122.8,8.38c0.59,0.71,1.2,1.11,1.16,1.45c-0.06,0.52-0.55,0.98-0.86,1.47c-0.38-0.33-1.04-0.64-1.07-1
	C121.99,9.8,122.42,9.25,122.8,8.38z"/>
<path d="M78.74,9.11c-0.68,0.4-1.16,0.91-1.55,0.85c-0.33-0.05-0.56-0.77-0.83-1.19c0.44-0.24,0.87-0.64,1.32-0.67
	C77.96,8.09,78.27,8.64,78.74,9.11z"/>
<path d="M45.68,130.77c0.38,8.3-8.59,14.5-16.75,10.14c-4.08-2.18-6.24-8.68-4.23-12.86c0.45-0.93,1.05-1.79,1.53-2.71
	c2.11-4.02,5.71-5.26,9.91-5.27C41.6,120.05,46.12,125.98,45.68,130.77z M35.84,122.19c-6.54,0.4-9.89,3.65-10.15,9.19
	c-0.22,4.56,2.93,8.86,8.64,8.92c4.84,0.05,9.19-3.37,9.32-9.36C43.76,126.27,40.14,122.25,35.84,122.19z"/>
<path d="M40.18,107.31c-0.66,0.36-1.09,0.75-1.52,0.76c-0.28,0-0.57-0.57-0.85-0.88c0.41-0.29,0.78-0.73,1.23-0.83
	C39.29,106.31,39.65,106.85,40.18,107.31z"/>
<path d="M56.81,123.76c-0.47-0.52-0.89-0.84-1.05-1.26c-0.05-0.14,0.62-0.8,0.86-0.75c0.41,0.09,0.83,0.5,1.05,0.89
	C57.75,122.77,57.22,123.24,56.81,123.76z"/>
<path d="M125.77,29.26c-0.09,4.91-4,8.95-8.51,8.8c-5.08-0.17-8.96-4.59-8.54-9.68c0.2-2.46,1.6-4.18,3.42-5.63
	c1.72-1.37,3.7-2.23,5.89-2.52c2.19-0.29,3.79,0.96,5.21,2.36C125.16,24.48,125.82,26.46,125.77,29.26z M124.16,28.68
	c-0.01-3.81-2.72-6.45-6.69-6.51c-3.17-0.05-7.11,3.76-7.12,6.89c-0.01,3.61,3.5,7.25,7,7.25C121,36.31,124.17,32.76,124.16,28.68z"
	/>
<path d="M40.5,17.46c0,2.57-1.38,4.34-3.41,4.39c-2.25,0.06-4.01-1.44-4-3.42c0.01-2.35,1.96-4.23,4.37-4.22
	C39.42,14.22,40.51,15.38,40.5,17.46z M38.89,17.56c0-1.18-0.69-1.95-1.84-2.03c-1.19-0.09-2.71,1.51-2.66,2.8
	c0.04,0.92,1.28,1.97,2.4,2.05C37.98,20.45,38.89,19.23,38.89,17.56z"/>
<path d="M32.5,28.49c-0.55,0.45-0.87,0.91-1.2,0.92c-0.31,0.01-0.64-0.45-0.96-0.71c0.33-0.27,0.64-0.64,1.02-0.76
	C31.59,27.87,31.94,28.2,32.5,28.49z"/>
<path d="M40.03,29.4c-0.1-1.07,0.38-1.51,1.27-1.3c0.25,0.06,0.62,0.77,0.52,0.98C41.39,29.99,40.69,29.69,40.03,29.4z"/>
<path d="M31.16,10.49c-0.32-0.43-0.75-0.83-0.68-0.94c0.18-0.31,0.57-0.5,0.87-0.74c0.18,0.27,0.5,0.55,0.5,0.82
	C31.84,9.87,31.48,10.11,31.16,10.49z"/>
<path d="M39.28,131.06c0.03,2.53-1.71,4.38-4.12,4.39c-2.82,0.01-4.41-1.58-4.38-4.37c0.03-2.3,2.01-4.75,3.95-4.87
	C36.9,126.07,39.25,128.57,39.28,131.06z M32.56,131.21c0.03,1.57,0.91,2.48,2.44,2.51c1.43,0.03,2.58-1.29,2.48-2.84
	c-0.1-1.6-1.13-2.48-2.86-2.45C33.27,128.46,32.53,129.46,32.56,131.21z"/>
<path d="M121.31,28.94c0.03,2.52-1.31,3.99-3.65,4c-2.15,0.01-3.49-1.32-3.53-3.51c-0.05-2.69,1.17-3.98,3.89-4.09
	C120.14,25.26,121.28,26.5,121.31,28.94z M118.23,26.94c-1.28-0.04-2.43,0.93-2.48,2.08c-0.05,1.28,0.94,2.23,2.32,2.21
	c1.27-0.02,2.15-0.85,2.17-2.05C120.26,27.99,119.35,26.97,118.23,26.94z"/>
</svg>
